<?xml version="1.0" encoding="UTF-8"?>
<!DOCTYPE svg PUBLIC "-//W3C//DTD SVG 1.1//EN" "http://www.w3.org/Graphics/SVG/1.1/DTD/svg11.dtd">
<svg xmlns="http://www.w3.org/2000/svg" version="1.1" width="300px" height="300px" style="shape-rendering:geometricPrecision; text-rendering:geometricPrecision; image-rendering:optimizeQuality; fill-rule:evenodd; clip-rule:evenodd" xmlns:xlink="http://www.w3.org/1999/xlink">
<g><path style="opacity:1" fill="#e7cdb6" d="M -0.5,-0.5 C 99.5,-0.5 199.5,-0.5 299.5,-0.5C 299.5,99.5 299.5,199.5 299.5,299.5C 199.5,299.5 99.5,299.5 -0.5,299.5C -0.5,199.5 -0.5,99.5 -0.5,-0.5 Z"/></g>
<g><path style="opacity:1" fill="#faf6f3" d="M 133.5,18.5 C 136.247,18.1866 138.914,18.52 141.5,19.5C 140.675,20.3857 139.675,20.719 138.5,20.5C 136.704,24.482 137.371,27.982 140.5,31C 146.808,32.1603 153.141,33.1603 159.5,34C 162.762,35.2118 165.596,37.0452 168,39.5C 168.782,42.2569 168.282,44.7569 166.5,47C 161.764,49.4346 156.764,51.1013 151.5,52C 149.697,52.6368 148.364,53.8035 147.5,55.5C 150.91,58.288 154.41,60.9546 158,63.5C 158.039,73.6368 156.706,74.3034 154,65.5C 149.912,63.2058 145.745,61.0391 141.5,59C 137.063,54.4143 137.729,50.7476 143.5,48C 148.236,47.3158 152.903,46.3158 157.5,45C 160.266,44.3088 160.933,42.8088 159.5,40.5C 150.795,39.878 142.128,39.0446 133.5,38C 125.506,31.3266 125.506,24.8266 133.5,18.5 Z"/></g>
<g><path style="opacity:1" fill="#d8bfaa" d="M 139.5,80.5 C 139.5,81.5 139.5,82.5 139.5,83.5C 148.173,83.6664 156.84,83.4998 165.5,83C 167.058,82.79 168.391,82.29 169.5,81.5C 171.786,81.595 173.786,82.2616 175.5,83.5C 174.833,83.5 174.5,83.8333 174.5,84.5C 172.5,83.1667 170.5,83.1667 168.5,84.5C 156.829,84.3335 145.162,84.5001 133.5,85C 132.584,85.2784 131.918,85.7784 131.5,86.5C 130.5,87.1667 129.5,87.8333 128.5,88.5C 127.833,88.1667 127.167,87.8333 126.5,87.5C 125.903,86.8614 125.07,86.528 124,86.5C 122.301,86.3866 121.134,87.0532 120.5,88.5C 119.622,90.0194 118.622,90.8527 117.5,91C 117.759,92.2613 118.426,93.2613 119.5,94C 117.101,94.711 114.768,94.5443 112.5,93.5C 111.702,93.9569 111.369,94.6236 111.5,95.5C 112.122,97.1216 113.122,98.4549 114.5,99.5C 115.222,99.0825 115.722,98.4158 116,97.5C 116.359,100.544 117.026,100.878 118,98.5C 118.359,101.544 119.026,101.878 120,99.5C 120.368,100.91 121.201,101.91 122.5,102.5C 123.511,100.156 125.178,98.489 127.5,97.5C 130.145,98.1076 132.812,98.6076 135.5,99C 134.62,100.356 134.286,101.856 134.5,103.5C 126.109,104.133 117.942,103.133 110,100.5C 106.846,101.434 107.012,102.101 110.5,102.5C 110.657,103.873 110.49,105.207 110,106.5C 108.667,105.167 107.333,103.833 106,102.5C 105.333,105.167 105.333,107.833 106,110.5C 106.308,109.692 106.808,109.025 107.5,108.5C 108.298,110.078 108.798,111.744 109,113.5C 110.717,110.755 111.883,107.755 112.5,104.5C 113.167,104.167 113.833,103.833 114.5,103.5C 114.911,104.262 115.077,105.262 115,106.5C 117.157,103.922 118.323,103.922 118.5,106.5C 120.432,105.48 122.432,105.313 124.5,106C 123.748,106.671 123.414,107.504 123.5,108.5C 119.846,108.942 116.179,109.276 112.5,109.5C 112.421,110.93 112.754,112.264 113.5,113.5C 112.624,114.251 111.624,114.751 110.5,115C 111.416,115.278 112.082,115.778 112.5,116.5C 112.918,117.222 113.584,117.722 114.5,118C 113.906,118.464 113.239,118.631 112.5,118.5C 108.773,117.948 105.606,116.282 103,113.5C 102.601,113.728 102.435,114.062 102.5,114.5C 101.596,113.791 101.263,112.791 101.5,111.5C 103.14,108.512 103.974,105.179 104,101.5C 105.074,100.382 106.24,99.3816 107.5,98.5C 108.643,93.8933 110.643,89.7266 113.5,86C 121.71,82.0578 130.377,80.2245 139.5,80.5 Z"/></g>
<g><path style="opacity:1" fill="#8b715c" d="M 120.5,88.5 C 120.433,89.9587 120.766,91.2921 121.5,92.5C 120.596,93.209 120.263,94.209 120.5,95.5C 126.544,95.8389 132.544,96.5056 138.5,97.5C 138.708,99.9201 138.374,102.253 137.5,104.5C 135.167,105.167 132.833,105.833 130.5,106.5C 137.833,107.833 145.167,107.833 152.5,106.5C 152.154,105.304 151.654,105.304 151,106.5C 150.517,105.552 150.351,104.552 150.5,103.5C 157.15,102.702 163.817,102.035 170.5,101.5C 170.343,100.127 170.51,98.7932 171,97.5C 171.654,98.6956 172.154,98.6956 172.5,97.5C 171.675,96.6143 170.675,96.281 169.5,96.5C 169.5,97.5 169.5,98.5 169.5,99.5C 164.994,98.0596 160.327,97.2263 155.5,97C 163.436,96.0075 171.269,94.5075 179,92.5C 180.171,93.3396 181.338,94.1729 182.5,95C 181.956,95.7172 181.289,96.2172 180.5,96.5C 178.206,95.7879 176.206,96.6213 174.5,99C 175.345,100.558 174.679,101.558 172.5,102C 173.448,102.483 174.448,102.649 175.5,102.5C 176.882,103.801 178.548,104.634 180.5,105C 177.576,105.988 174.576,106.654 171.5,107C 156.869,108.432 142.203,109.265 127.5,109.5C 125.068,118.457 123.735,118.457 123.5,109.5C 127.5,109.167 127.5,108.833 123.5,108.5C 123.414,107.504 123.748,106.671 124.5,106C 122.432,105.313 120.432,105.48 118.5,106.5C 118.323,103.922 117.157,103.922 115,106.5C 115.077,105.262 114.911,104.262 114.5,103.5C 113.833,103.833 113.167,104.167 112.5,104.5C 111.883,107.755 110.717,110.755 109,113.5C 108.798,111.744 108.298,110.078 107.5,108.5C 106.808,109.025 106.308,109.692 106,110.5C 105.333,107.833 105.333,105.167 106,102.5C 107.333,103.833 108.667,105.167 110,106.5C 110.49,105.207 110.657,103.873 110.5,102.5C 107.012,102.101 106.846,101.434 110,100.5C 117.942,103.133 126.109,104.133 134.5,103.5C 134.286,101.856 134.62,100.356 135.5,99C 132.812,98.6076 130.145,98.1076 127.5,97.5C 125.178,98.489 123.511,100.156 122.5,102.5C 121.201,101.91 120.368,100.91 120,99.5C 119.026,101.878 118.359,101.544 118,98.5C 117.026,100.878 116.359,100.544 116,97.5C 115.722,98.4158 115.222,99.0825 114.5,99.5C 114.33,98.1779 114.663,97.0113 115.5,96C 114.041,96.3554 112.707,96.1888 111.5,95.5C 111.369,94.6236 111.702,93.9569 112.5,93.5C 114.768,94.5443 117.101,94.711 119.5,94C 118.426,93.2613 117.759,92.2613 117.5,91C 118.622,90.8527 119.622,90.0194 120.5,88.5 Z"/></g>
<g><path style="opacity:1" fill="#e6ceba" d="M 192.5,108.5 C 193.092,111.631 192.092,113.964 189.5,115.5C 189.062,115.565 188.728,115.399 188.5,115C 190.628,113.208 191.961,111.042 192.5,108.5 Z"/></g>
<g><path style="opacity:1" fill="#e7ceb6" d="M 174.5,84.5 C 174.5,83.8333 174.833,83.5 175.5,83.5C 178.267,84.0507 180.6,85.3841 182.5,87.5C 184.274,90.7148 185.774,94.0482 187,97.5C 189.874,98.5322 191.374,100.532 191.5,103.5C 191.5,104.833 191.5,106.167 191.5,107.5C 188.23,108.103 186.23,110.103 185.5,113.5C 184.264,114.246 182.93,114.579 181.5,114.5C 181.154,111.398 181.821,108.565 183.5,106C 181.893,106.019 180.226,106.185 178.5,106.5C 178.682,108.591 178.348,110.591 177.5,112.5C 178.853,113.524 179.52,114.857 179.5,116.5C 172.826,117.557 166.159,118.724 159.5,120C 168.677,120.284 177.677,119.118 186.5,116.5C 185.653,117.966 184.32,118.8 182.5,119C 164.276,122.476 145.943,123.309 127.5,121.5C 126.737,120.732 125.737,120.232 124.5,120C 125.167,119.667 125.833,119.333 126.5,119C 121.762,118.481 117.095,117.648 112.5,116.5C 112.082,115.778 111.416,115.278 110.5,115C 111.624,114.751 112.624,114.251 113.5,113.5C 112.754,112.264 112.421,110.93 112.5,109.5C 116.179,109.276 119.846,108.942 123.5,108.5C 127.5,108.833 127.5,109.167 123.5,109.5C 123.735,118.457 125.068,118.457 127.5,109.5C 142.203,109.265 156.869,108.432 171.5,107C 174.576,106.654 177.576,105.988 180.5,105C 178.548,104.634 176.882,103.801 175.5,102.5C 175.5,101.833 175.833,101.5 176.5,101.5C 179.181,101.462 181.681,102.129 184,103.5C 184.349,102.527 185.182,101.694 186.5,101C 184.012,97.9218 181.345,97.7551 178.5,100.5C 177.702,100.043 177.369,99.3764 177.5,98.5C 179.027,98.573 180.027,97.9063 180.5,96.5C 181.289,96.2172 181.956,95.7172 182.5,95C 181.338,94.1729 180.171,93.3396 179,92.5C 171.269,94.5075 163.436,96.0075 155.5,97C 160.327,97.2263 164.994,98.0596 169.5,99.5C 169.5,98.5 169.5,97.5 169.5,96.5C 170.675,96.281 171.675,96.6143 172.5,97.5C 172.154,98.6956 171.654,98.6956 171,97.5C 170.51,98.7932 170.343,100.127 170.5,101.5C 163.817,102.035 157.15,102.702 150.5,103.5C 150.351,104.552 150.517,105.552 151,106.5C 151.654,105.304 152.154,105.304 152.5,106.5C 145.167,107.833 137.833,107.833 130.5,106.5C 132.833,105.833 135.167,105.167 137.5,104.5C 138.374,102.253 138.708,99.9201 138.5,97.5C 132.544,96.5056 126.544,95.8389 120.5,95.5C 120.263,94.209 120.596,93.209 121.5,92.5C 122.239,92.631 122.906,92.4643 123.5,92C 124.399,90.3484 125.399,88.8484 126.5,87.5C 127.167,87.8333 127.833,88.1667 128.5,88.5C 128.579,89.9305 128.246,91.2638 127.5,92.5C 128,93.8805 129,94.5472 130.5,94.5C 143.549,93.8516 156.549,93.185 169.5,92.5C 171.854,92.162 174.187,91.662 176.5,91C 177.791,89.7083 177.791,88.5417 176.5,87.5C 177.674,85.6322 177.007,84.6322 174.5,84.5 Z"/></g>
<g><path style="opacity:1" fill="#8d7560" d="M 191.5,103.5 C 192.451,104.919 192.784,106.585 192.5,108.5C 191.961,111.042 190.628,113.208 188.5,115C 188.728,115.399 189.062,115.565 189.5,115.5C 188.791,116.404 187.791,116.737 186.5,116.5C 177.677,119.118 168.677,120.284 159.5,120C 166.159,118.724 172.826,117.557 179.5,116.5C 179.52,114.857 178.853,113.524 177.5,112.5C 178.348,110.591 178.682,108.591 178.5,106.5C 180.226,106.185 181.893,106.019 183.5,106C 181.821,108.565 181.154,111.398 181.5,114.5C 182.93,114.579 184.264,114.246 185.5,113.5C 186.23,110.103 188.23,108.103 191.5,107.5C 191.5,106.167 191.5,104.833 191.5,103.5 Z"/></g>
<g><path style="opacity:1" fill="#342017" d="M 189.5,123.5 C 188.836,125.978 188.503,128.645 188.5,131.5C 188.683,135.016 189.35,138.349 190.5,141.5C 189.817,155.517 188.817,169.517 187.5,183.5C 186.981,186.269 185.314,187.936 182.5,188.5C 178.882,189.803 175.549,191.47 172.5,193.5C 170.708,193.366 169.042,193.699 167.5,194.5C 159.231,195.88 150.898,196.546 142.5,196.5C 136.731,196.563 131.064,195.896 125.5,194.5C 122.345,193.584 119.178,192.584 116,191.5C 114.97,191.836 114.47,192.503 114.5,193.5C 114.263,194.791 114.596,195.791 115.5,196.5C 115.5,199.167 115.5,201.833 115.5,204.5C 115.762,205.978 115.429,207.311 114.5,208.5C 113.893,208.376 113.56,208.043 113.5,207.5C 113.822,201.642 113.489,195.975 112.5,190.5C 111.833,190.5 111.5,190.167 111.5,189.5C 127.616,193.274 143.949,194.44 160.5,193C 168.058,191.536 175.391,189.369 182.5,186.5C 183.71,186.068 184.71,185.401 185.5,184.5C 185.954,177.841 186.287,171.174 186.5,164.5C 188.258,157.351 188.591,150.018 187.5,142.5C 186.893,142.624 186.56,142.957 186.5,143.5C 160.337,151.822 134.337,151.489 108.5,142.5C 108.5,148.167 108.5,153.833 108.5,159.5C 108.983,166.345 109.649,173.178 110.5,180C 110.492,181.707 110.158,183.207 109.5,184.5C 108.277,171.162 106.944,157.829 105.5,144.5C 105.67,142.285 106.337,140.285 107.5,138.5C 106.867,131.525 106.2,124.525 105.5,117.5C 104.145,116.812 103.145,115.812 102.5,114.5C 102.435,114.062 102.601,113.728 103,113.5C 105.606,116.282 108.773,117.948 112.5,118.5C 117.256,120.118 122.256,121.118 127.5,121.5C 145.943,123.309 164.276,122.476 182.5,119C 184.32,118.8 185.653,117.966 186.5,116.5C 187.791,116.737 188.791,116.404 189.5,115.5C 192.092,113.964 193.092,111.631 192.5,108.5C 192.784,106.585 192.451,104.919 191.5,103.5C 191.374,100.532 189.874,98.5322 187,97.5C 185.774,94.0482 184.274,90.7148 182.5,87.5C 180.6,85.3841 178.267,84.0507 175.5,83.5C 173.786,82.2616 171.786,81.595 169.5,81.5C 159.552,80.5496 149.552,80.2162 139.5,80.5C 130.377,80.2245 121.71,82.0578 113.5,86C 110.643,89.7266 108.643,93.8933 107.5,98.5C 106.24,99.3816 105.074,100.382 104,101.5C 103.974,105.179 103.14,108.512 101.5,111.5C 101.344,107.418 101.844,103.418 103,99.5C 104,98.8333 105,98.1667 106,97.5C 106.955,89.9201 110.788,84.4201 117.5,81C 136.059,76.684 154.725,76.3507 173.5,80C 181.941,82.3546 187.108,87.8546 189,96.5C 190.512,97.2567 191.846,98.2567 193,99.5C 194.218,104.455 194.551,109.455 194,114.5C 190.466,116.522 188.966,119.522 189.5,123.5 Z"/></g>
<g><path style="opacity:1" fill="#917665" d="M 112.5,116.5 C 117.095,117.648 121.762,118.481 126.5,119C 125.833,119.333 125.167,119.667 124.5,120C 125.737,120.232 126.737,120.732 127.5,121.5C 122.256,121.118 117.256,120.118 112.5,118.5C 113.239,118.631 113.906,118.464 114.5,118C 113.584,117.722 112.918,117.222 112.5,116.5 Z"/></g>
<g><path style="opacity:1" fill="#f0d5bf" d="M 162.5,103.5 C 175.71,104.667 175.543,105.667 162,106.5C 159.167,106.167 156.333,105.833 153.5,105.5C 156.642,104.833 159.642,104.166 162.5,103.5 Z"/></g>
<g><path style="opacity:1" fill="#957a67" d="M 177.5,98.5 C 177.369,99.3764 177.702,100.043 178.5,100.5C 181.345,97.7551 184.012,97.9218 186.5,101C 185.182,101.694 184.349,102.527 184,103.5C 181.681,102.129 179.181,101.462 176.5,101.5C 176.263,100.209 176.596,99.209 177.5,98.5 Z"/></g>
<g><path style="opacity:1" fill="#452a1b" d="M 111.5,95.5 C 112.707,96.1888 114.041,96.3554 115.5,96C 114.663,97.0113 114.33,98.1779 114.5,99.5C 113.122,98.4549 112.122,97.1216 111.5,95.5 Z"/></g>
<g><path style="opacity:1" fill="#543928" d="M 180.5,96.5 C 180.027,97.9063 179.027,98.573 177.5,98.5C 176.596,99.209 176.263,100.209 176.5,101.5C 175.833,101.5 175.5,101.833 175.5,102.5C 174.448,102.649 173.448,102.483 172.5,102C 174.679,101.558 175.345,100.558 174.5,99C 176.206,96.6213 178.206,95.7879 180.5,96.5 Z"/></g>
<g><path style="opacity:1" fill="#6c5444" d="M 131.5,86.5 C 131.5,86.8333 131.5,87.1667 131.5,87.5C 130.972,88.7206 130.305,89.8873 129.5,91C 143.204,91.8372 152.871,91.6705 158.5,90.5C 157.197,87.1497 157.863,86.8164 160.5,89.5C 163.344,87.8971 166.344,87.3971 169.5,88C 168.672,88.9147 167.672,89.5814 166.5,90C 167.833,90.3333 169.167,90.6667 170.5,91C 169.944,91.3826 169.611,91.8826 169.5,92.5C 156.549,93.185 143.549,93.8516 130.5,94.5C 129,94.5472 128,93.8805 127.5,92.5C 128.246,91.2638 128.579,89.9305 128.5,88.5C 129.5,87.8333 130.5,87.1667 131.5,86.5 Z"/></g>
<g><path style="opacity:1" fill="#574230" d="M 126.5,87.5 C 125.399,88.8484 124.399,90.3484 123.5,92C 122.906,92.4643 122.239,92.631 121.5,92.5C 120.766,91.2921 120.433,89.9587 120.5,88.5C 121.134,87.0532 122.301,86.3866 124,86.5C 125.07,86.528 125.903,86.8614 126.5,87.5 Z"/></g>
<g><path style="opacity:1" fill="#f1e4d1" d="M 121.5,88.5 C 123.337,88.6395 123.67,89.3061 122.5,90.5C 121.702,90.0431 121.369,89.3764 121.5,88.5 Z"/></g>
<g><path style="opacity:1" fill="#e1c8b3" d="M 131.5,87.5 C 133.5,87.5 135.5,87.5 137.5,87.5C 141.514,87.3345 145.514,87.5012 149.5,88C 148.692,88.3076 148.025,88.8076 147.5,89.5C 150.167,90.8333 152.833,90.8333 155.5,89.5C 149.041,88.0298 149.374,87.3631 156.5,87.5C 156.427,89.0269 157.094,90.0269 158.5,90.5C 152.871,91.6705 143.204,91.8372 129.5,91C 130.305,89.8873 130.972,88.7206 131.5,87.5 Z"/></g>
<g><path style="opacity:1" fill="#7e6756" d="M 137.5,87.5 C 143.833,86.1667 150.167,86.1667 156.5,87.5C 149.374,87.3631 149.041,88.0298 155.5,89.5C 152.833,90.8333 150.167,90.8333 147.5,89.5C 148.025,88.8076 148.692,88.3076 149.5,88C 145.514,87.5012 141.514,87.3345 137.5,87.5 Z"/></g>
<g><path style="opacity:1" fill="#89725d" d="M 174.5,84.5 C 177.007,84.6322 177.674,85.6322 176.5,87.5C 173.837,86.2479 171.17,85.2479 168.5,84.5C 170.5,83.1667 172.5,83.1667 174.5,84.5 Z"/></g>
<g><path style="opacity:1" fill="#3a2318" d="M 168.5,84.5 C 171.17,85.2479 173.837,86.2479 176.5,87.5C 177.791,88.5417 177.791,89.7083 176.5,91C 174.187,91.662 171.854,92.162 169.5,92.5C 169.611,91.8826 169.944,91.3826 170.5,91C 169.167,90.6667 167.833,90.3333 166.5,90C 167.672,89.5814 168.672,88.9147 169.5,88C 166.344,87.3971 163.344,87.8971 160.5,89.5C 157.863,86.8164 157.197,87.1497 158.5,90.5C 157.094,90.0269 156.427,89.0269 156.5,87.5C 150.167,86.1667 143.833,86.1667 137.5,87.5C 135.5,87.5 133.5,87.5 131.5,87.5C 131.5,87.1667 131.5,86.8333 131.5,86.5C 131.918,85.7784 132.584,85.2784 133.5,85C 145.162,84.5001 156.829,84.3335 168.5,84.5 Z"/></g>
<g><path style="opacity:1" fill="#edd7bc" d="M 139.5,80.5 C 149.552,80.2162 159.552,80.5496 169.5,81.5C 168.391,82.29 167.058,82.79 165.5,83C 156.84,83.4998 148.173,83.6664 139.5,83.5C 139.5,82.5 139.5,81.5 139.5,80.5 Z"/></g>
<g><path style="opacity:1" fill="#957e6c" d="M 186.5,124.5 C 186.657,123.127 186.49,121.793 186,120.5C 185.741,123.587 185.241,126.587 184.5,129.5C 183.503,129.53 182.836,129.03 182.5,128C 183.187,126.838 183.353,125.672 183,124.5C 181.32,125.603 179.82,125.27 178.5,123.5C 176.902,124.485 175.235,124.651 173.5,124C 174.416,123.722 175.082,123.222 175.5,122.5C 179.578,121.752 183.578,120.752 187.5,119.5C 187.784,121.415 187.451,123.081 186.5,124.5 Z"/></g>
<g><path style="opacity:1" fill="#a89182" d="M 111.5,121.5 C 111.369,122.239 111.536,122.906 112,123.5C 112.718,122.549 113.551,122.383 114.5,123C 113.5,124 112.5,125 111.5,126C 112.189,128.95 113.189,131.783 114.5,134.5C 114.19,135.738 113.69,135.738 113,134.5C 111.956,132.285 111.29,129.952 111,127.5C 110.781,128.938 110.281,130.271 109.5,131.5C 108.509,127.555 108.176,123.555 108.5,119.5C 110.179,119.285 111.179,119.952 111.5,121.5 Z"/></g>
<g><path style="opacity:1" fill="#e4cab3" d="M 118.5,121.5 C 136.011,124.686 153.677,125.352 171.5,123.5C 171.389,124.117 171.056,124.617 170.5,125C 168.167,125.333 165.833,125.667 163.5,126C 166.361,125.97 168.695,126.803 170.5,128.5C 170.316,130.925 169.649,130.925 168.5,128.5C 168.167,129.167 167.833,129.833 167.5,130.5C 169.365,134.326 169.865,138.326 169,142.5C 168.944,139.22 168.111,136.22 166.5,133.5C 164.828,136.181 163.161,138.847 161.5,141.5C 158.727,142.253 156.06,143.253 153.5,144.5C 161.022,145.073 168.355,145.073 175.5,144.5C 159.941,147.816 144.274,148.316 128.5,146C 125.135,145.495 122.135,144.328 119.5,142.5C 124.103,135.923 123.437,130.256 117.5,125.5C 118.473,125.013 119.473,124.513 120.5,124C 119.244,123.583 118.577,122.75 118.5,121.5 Z"/></g>
<g><path style="opacity:1" fill="#715a49" d="M 118.5,121.5 C 118.577,122.75 119.244,123.583 120.5,124C 119.473,124.513 118.473,125.013 117.5,125.5C 123.437,130.256 124.103,135.923 119.5,142.5C 117.158,142.225 117.158,141.392 119.5,140C 117.609,139.691 116.275,140.525 115.5,142.5C 112.388,141.649 112.054,140.483 114.5,139C 114.402,137.382 114.402,135.882 114.5,134.5C 113.189,131.783 112.189,128.95 111.5,126C 112.5,125 113.5,124 114.5,123C 113.551,122.383 112.718,122.549 112,123.5C 111.536,122.906 111.369,122.239 111.5,121.5C 113.756,120.562 116.09,120.562 118.5,121.5 Z"/></g>
<g><path style="opacity:1" fill="#a28975" d="M 117.5,125.5 C 116.837,127.042 116.17,128.709 115.5,130.5C 112.538,127.622 112.871,125.289 116.5,123.5C 117.298,123.957 117.631,124.624 117.5,125.5 Z"/></g>
<g><path style="opacity:1" fill="#ad9784" d="M 189.5,123.5 C 188.992,129.19 189.659,134.69 191.5,140C 191.43,140.765 191.097,141.265 190.5,141.5C 189.35,138.349 188.683,135.016 188.5,131.5C 188.503,128.645 188.836,125.978 189.5,123.5 Z"/></g>
<g><path style="opacity:1" fill="#5b4432" d="M 175.5,122.5 C 175.082,123.222 174.416,123.722 173.5,124C 175.235,124.651 176.902,124.485 178.5,123.5C 179.82,125.27 181.32,125.603 183,124.5C 183.353,125.672 183.187,126.838 182.5,128C 182.836,129.03 183.503,129.53 184.5,129.5C 184.813,133.042 184.479,136.375 183.5,139.5C 183.167,139.5 182.833,139.5 182.5,139.5C 181.542,139.953 180.708,140.619 180,141.5C 179,140.5 178,139.5 177,138.5C 176.552,140.224 175.718,140.891 174.5,140.5C 174.709,141.086 175.043,141.586 175.5,142C 174.365,142.749 173.365,142.583 172.5,141.5C 173.33,139.865 173.497,138.198 173,136.5C 175.62,133.424 178.12,130.258 180.5,127C 178.206,125.866 176.039,125.366 174,125.5C 172.961,126.71 171.794,127.71 170.5,128.5C 168.695,126.803 166.361,125.97 163.5,126C 165.833,125.667 168.167,125.333 170.5,125C 171.056,124.617 171.389,124.117 171.5,123.5C 172.708,122.766 174.041,122.433 175.5,122.5 Z"/></g>
<g><path style="opacity:1" fill="#cdb7a5" d="M 186.5,124.5 C 186.666,129.844 186.499,135.177 186,140.5C 184.539,141.883 183.706,141.549 183.5,139.5C 184.479,136.375 184.813,133.042 184.5,129.5C 185.241,126.587 185.741,123.587 186,120.5C 186.49,121.793 186.657,123.127 186.5,124.5 Z"/></g>
<g><path style="opacity:1" fill="#8f7562" d="M 182.5,139.5 C 181.514,142.76 179.181,144.427 175.5,144.5C 168.355,145.073 161.022,145.073 153.5,144.5C 156.06,143.253 158.727,142.253 161.5,141.5C 163.161,138.847 164.828,136.181 166.5,133.5C 168.111,136.22 168.944,139.22 169,142.5C 169.865,138.326 169.365,134.326 167.5,130.5C 167.833,129.833 168.167,129.167 168.5,128.5C 169.649,130.925 170.316,130.925 170.5,128.5C 171.794,127.71 172.961,126.71 174,125.5C 176.039,125.366 178.206,125.866 180.5,127C 178.12,130.258 175.62,133.424 173,136.5C 173.497,138.198 173.33,139.865 172.5,141.5C 173.365,142.583 174.365,142.749 175.5,142C 175.043,141.586 174.709,141.086 174.5,140.5C 175.718,140.891 176.552,140.224 177,138.5C 178,139.5 179,140.5 180,141.5C 180.708,140.619 181.542,139.953 182.5,139.5 Z"/></g>
<g><path style="opacity:1" fill="#886e5c" d="M 186.5,143.5 C 186.56,142.957 186.893,142.624 187.5,142.5C 188.591,150.018 188.258,157.351 186.5,164.5C 186.628,160.119 186.295,155.785 185.5,151.5C 183.076,151.808 180.743,151.474 178.5,150.5C 181.304,148.899 184.304,147.899 187.5,147.5C 187.768,145.901 187.434,144.568 186.5,143.5 Z"/></g>
<g><path style="opacity:1" fill="#846b58" d="M 111.5,189.5 C 110.463,188.07 109.796,186.403 109.5,184.5C 110.158,183.207 110.492,181.707 110.5,180C 109.649,173.178 108.983,166.345 108.5,159.5C 109.268,158.737 109.768,157.737 110,156.5C 110.667,160.5 111.333,160.5 112,156.5C 112.248,165.074 113.748,173.407 116.5,181.5C 116.167,182.5 115.833,183.5 115.5,184.5C 114.5,183.167 113.5,183.167 112.5,184.5C 111.548,186.045 111.215,187.712 111.5,189.5 Z"/></g>
<g><path style="opacity:1" fill="#7f6854" d="M 185.5,184.5 C 184.71,185.401 183.71,186.068 182.5,186.5C 182.225,184.242 181.225,183.908 179.5,185.5C 179.167,184.667 178.833,183.833 178.5,183C 180.289,180.533 182.122,178.033 184,175.5C 184.777,178.429 184.61,181.263 183.5,184C 184.094,184.464 184.761,184.631 185.5,184.5 Z"/></g>
<g><path style="opacity:1" fill="#e6cdb6" d="M 186.5,143.5 C 187.434,144.568 187.768,145.901 187.5,147.5C 184.304,147.899 181.304,148.899 178.5,150.5C 180.743,151.474 183.076,151.808 185.5,151.5C 186.295,155.785 186.628,160.119 186.5,164.5C 186.287,171.174 185.954,177.841 185.5,184.5C 184.761,184.631 184.094,184.464 183.5,184C 184.61,181.263 184.777,178.429 184,175.5C 182.122,178.033 180.289,180.533 178.5,183C 178.833,183.833 179.167,184.667 179.5,185.5C 181.225,183.908 182.225,184.242 182.5,186.5C 175.391,189.369 168.058,191.536 160.5,193C 143.949,194.44 127.616,193.274 111.5,189.5C 111.215,187.712 111.548,186.045 112.5,184.5C 113.5,183.167 114.5,183.167 115.5,184.5C 115.833,183.5 116.167,182.5 116.5,181.5C 113.748,173.407 112.248,165.074 112,156.5C 111.333,160.5 110.667,160.5 110,156.5C 109.768,157.737 109.268,158.737 108.5,159.5C 108.5,153.833 108.5,148.167 108.5,142.5C 134.337,151.489 160.337,151.822 186.5,143.5 Z"/></g>
<g><path style="opacity:1" fill="#856a54" d="M 117.5,180.5 C 120.723,182.797 124.057,185.13 127.5,187.5C 124.404,188.619 121.404,188.286 118.5,186.5C 117.534,184.604 117.201,182.604 117.5,180.5 Z"/></g>
<g><path style="opacity:1" fill="#836955" d="M 175.5,182.5 C 177.549,182.706 177.883,183.539 176.5,185C 174.061,186.782 171.394,187.449 168.5,187C 170.898,185.476 173.231,183.976 175.5,182.5 Z"/></g>
<g><path style="opacity:1" fill="#937864" d="M 169.5,171.5 C 168.565,181.796 163.232,186.463 153.5,185.5C 155.989,185.702 158.323,185.202 160.5,184C 164.028,179.603 167.028,175.437 169.5,171.5 Z"/></g>
<g><path style="opacity:1" fill="#8f745f" d="M 171.5,166.5 C 171.167,166.5 170.833,166.5 170.5,166.5C 167.776,159.653 163.776,158.819 158.5,164C 154.762,167.539 151.929,171.706 150,176.5C 149.401,178.535 149.901,180.201 151.5,181.5C 151.5,182.833 152.167,183.5 153.5,183.5C 153.5,184.167 153.5,184.833 153.5,185.5C 152.508,185.328 151.842,185.662 151.5,186.5C 150.542,186.047 149.708,185.381 149,184.5C 148.667,182.167 148.333,179.833 148,177.5C 141.111,184.777 135.111,184.111 130,175.5C 125.596,168.684 125.429,161.851 129.5,155C 130.448,154.517 131.448,154.351 132.5,154.5C 136.053,153.045 139.553,153.378 143,155.5C 147.949,161.368 149.949,168.035 149,175.5C 151.669,168.498 156.169,162.998 162.5,159C 167.996,158.319 170.996,160.819 171.5,166.5 Z"/></g>
<g><path style="opacity:1" fill="#e6ccb8" d="M 170.5,166.5 C 170.784,168.415 170.451,170.081 169.5,171.5C 167.028,175.437 164.028,179.603 160.5,184C 158.323,185.202 155.989,185.702 153.5,185.5C 153.5,184.833 153.5,184.167 153.5,183.5C 154.916,179.983 157.249,177.316 160.5,175.5C 159.674,174.549 159.508,173.549 160,172.5C 161.667,170.833 163.333,169.167 165,167.5C 165.798,165.741 165.631,164.074 164.5,162.5C 161.277,165.208 159.11,168.542 158,172.5C 156.649,174.019 155.149,175.352 153.5,176.5C 152.972,178.336 152.306,180.003 151.5,181.5C 149.901,180.201 149.401,178.535 150,176.5C 151.929,171.706 154.762,167.539 158.5,164C 163.776,158.819 167.776,159.653 170.5,166.5 Z"/></g>
<g><path style="opacity:1" fill="#e6ccb5" d="M 141.5,175.5 C 141.62,173.266 141.287,171.099 140.5,169C 138.124,164.653 136.124,160.153 134.5,155.5C 135.946,154.387 137.613,154.22 139.5,155C 147.685,161.485 149.519,169.318 145,178.5C 143.641,177.635 142.474,176.635 141.5,175.5 Z"/></g>
<g><path style="opacity:1" fill="#694e3a" d="M 170.5,166.5 C 170.833,166.5 171.167,166.5 171.5,166.5C 172.295,176.852 167.962,184.019 158.5,188C 155.935,188.609 153.601,188.109 151.5,186.5C 151.842,185.662 152.508,185.328 153.5,185.5C 163.232,186.463 168.565,181.796 169.5,171.5C 170.451,170.081 170.784,168.415 170.5,166.5 Z"/></g>
<g><path style="opacity:1" fill="#593d2b" d="M 153.5,183.5 C 152.167,183.5 151.5,182.833 151.5,181.5C 152.306,180.003 152.972,178.336 153.5,176.5C 155.149,175.352 156.649,174.019 158,172.5C 159.11,168.542 161.277,165.208 164.5,162.5C 165.631,164.074 165.798,165.741 165,167.5C 163.333,169.167 161.667,170.833 160,172.5C 159.508,173.549 159.674,174.549 160.5,175.5C 157.249,177.316 154.916,179.983 153.5,183.5 Z"/></g>
<g><path style="opacity:1" fill="#e5cab6" d="M 132.5,157.5 C 133.619,161.074 134.786,165.074 136,169.5C 137.332,171.66 138.832,173.66 140.5,175.5C 140.5,176.5 140.5,177.5 140.5,178.5C 144.244,178.98 144.077,179.646 140,180.5C 130.906,176.99 126.906,170.323 128,160.5C 128.495,157.259 129.995,156.259 132.5,157.5 Z"/></g>
<g><path style="opacity:1" fill="#5b402f" d="M 132.5,154.5 C 133.167,154.833 133.833,155.167 134.5,155.5C 136.124,160.153 138.124,164.653 140.5,169C 141.287,171.099 141.62,173.266 141.5,175.5C 141.167,175.5 140.833,175.5 140.5,175.5C 138.832,173.66 137.332,171.66 136,169.5C 134.786,165.074 133.619,161.074 132.5,157.5C 132.5,156.5 132.5,155.5 132.5,154.5 Z"/></g>
<g><path style="opacity:1" fill="#765f46" d="M 111.5,146.5 C 113.783,146.608 115.783,147.441 117.5,149C 115.385,149.557 113.385,150.391 111.5,151.5C 110.334,149.833 110.334,148.166 111.5,146.5 Z"/></g>
<g><path style="opacity:1" fill="#91643b" d="M 223.5,207.5 C 221.097,207.607 219.264,206.607 218,204.5C 217.079,199.374 217.912,194.541 220.5,190C 220.167,189.5 219.833,189 219.5,188.5C 210.523,193.661 200.856,196.495 190.5,197C 188.137,197.589 187.137,199.089 187.5,201.5C 190.833,201.5 194.167,201.5 197.5,201.5C 193.833,202.167 190.167,202.833 186.5,203.5C 185.212,205.035 185.212,206.701 186.5,208.5C 187.298,208.043 187.631,207.376 187.5,206.5C 188.338,206.842 188.672,207.508 188.5,208.5C 187.432,209.434 186.099,209.768 184.5,209.5C 184.552,205.802 184.886,202.135 185.5,198.5C 190.55,195.07 196.217,193.57 202.5,194C 206.984,192.257 211.317,190.257 215.5,188C 217.473,187.505 219.473,187.338 221.5,187.5C 221.395,192.042 220.395,196.376 218.5,200.5C 219.014,203.677 220.681,206.011 223.5,207.5 Z"/></g>
<g><path style="opacity:1" fill="#87735b" d="M 185.5,191.5 C 184.833,193.5 184.167,195.5 183.5,197.5C 183.192,195.076 183.526,192.743 184.5,190.5C 185.107,190.624 185.44,190.957 185.5,191.5 Z"/></g>
<g><path style="opacity:1" fill="#df9648" d="M 223.5,207.5 C 225.65,208.67 227.984,209.67 230.5,210.5C 231.711,211.274 231.711,212.107 230.5,213C 223.372,216.209 216.039,218.709 208.5,220.5C 206.546,215.015 205.38,209.349 205,203.5C 204.617,202.944 204.117,202.611 203.5,202.5C 201.621,201.659 199.621,201.325 197.5,201.5C 194.167,201.5 190.833,201.5 187.5,201.5C 187.137,199.089 188.137,197.589 190.5,197C 200.856,196.495 210.523,193.661 219.5,188.5C 219.833,189 220.167,189.5 220.5,190C 217.912,194.541 217.079,199.374 218,204.5C 219.264,206.607 221.097,207.607 223.5,207.5 Z"/></g>
<g><path style="opacity:1" fill="#b0988a" d="M 125.5,194.5 C 125.5,194.833 125.5,195.167 125.5,195.5C 121.767,195.13 118.101,194.463 114.5,193.5C 114.47,192.503 114.97,191.836 116,191.5C 119.178,192.584 122.345,193.584 125.5,194.5 Z"/></g>
<g><path style="opacity:1" fill="#7c6351" d="M 182.5,188.5 C 182.363,193.009 182.196,197.676 182,202.5C 181.667,200.5 181.333,198.5 181,196.5C 179.027,199.988 177.861,203.488 177.5,207C 178.756,207.417 179.423,208.25 179.5,209.5C 178.12,208.294 176.953,208.627 176,210.5C 176,209.167 176,207.833 176,206.5C 174.289,209.58 171.789,210.746 168.5,210C 171.676,205.994 175.009,202.16 178.5,198.5C 176.578,197.04 175.911,195.373 176.5,193.5C 175.135,194.807 173.802,194.807 172.5,193.5C 175.549,191.47 178.882,189.803 182.5,188.5 Z"/></g>
<g><path style="opacity:1" fill="#604734" d="M 185.5,191.5 C 185.5,193.833 185.5,196.167 185.5,198.5C 184.886,202.135 184.552,205.802 184.5,209.5C 178.645,211.064 172.645,211.73 166.5,211.5C 166.5,211.167 166.5,210.833 166.5,210.5C 166.5,208.167 166.5,205.833 166.5,203.5C 167.478,203.811 168.145,204.478 168.5,205.5C 167.674,206.451 167.508,207.451 168,208.5C 169.743,206.679 171.243,204.679 172.5,202.5C 171.34,202.563 170.006,202.23 168.5,201.5C 167.526,199.257 167.192,196.924 167.5,194.5C 169.042,193.699 170.708,193.366 172.5,193.5C 173.802,194.807 175.135,194.807 176.5,193.5C 175.911,195.373 176.578,197.04 178.5,198.5C 175.009,202.16 171.676,205.994 168.5,210C 171.789,210.746 174.289,209.58 176,206.5C 176,207.833 176,209.167 176,210.5C 176.953,208.627 178.12,208.294 179.5,209.5C 180.302,208.048 180.802,206.382 181,204.5C 181.219,205.938 181.719,207.271 182.5,208.5C 183.489,204.893 183.823,201.226 183.5,197.5C 184.167,195.5 184.833,193.5 185.5,191.5 Z"/></g>
<g><path style="opacity:1" fill="#a38d76" d="M 112.5,190.5 C 113.489,195.975 113.822,201.642 113.5,207.5C 112.833,207.5 112.167,207.5 111.5,207.5C 112.573,205.347 112.573,203.347 111.5,201.5C 111.5,200.167 111.5,198.833 111.5,197.5C 111.5,197.167 111.5,196.833 111.5,196.5C 112.461,194.735 112.795,192.735 112.5,190.5 Z"/></g>
<g><path style="opacity:1" fill="#a9917e" d="M 167.5,194.5 C 167.192,196.924 167.526,199.257 168.5,201.5C 170.006,202.23 171.34,202.563 172.5,202.5C 171.243,204.679 169.743,206.679 168,208.5C 167.508,207.451 167.674,206.451 168.5,205.5C 168.145,204.478 167.478,203.811 166.5,203.5C 166.768,201.901 166.434,200.568 165.5,199.5C 162.333,198.972 159.166,198.305 156,197.5C 154.293,197.508 152.793,197.842 151.5,198.5C 148.813,198.664 146.146,198.497 143.5,198C 142.944,197.617 142.611,197.117 142.5,196.5C 150.898,196.546 159.231,195.88 167.5,194.5 Z"/></g>
<g><path style="opacity:1" fill="#594231" d="M 114.5,193.5 C 118.101,194.463 121.767,195.13 125.5,195.5C 125.635,200.289 125.635,205.289 125.5,210.5C 124.833,210.5 124.5,210.167 124.5,209.5C 124.451,203.169 123.451,203.169 121.5,209.5C 120.508,209.672 119.842,209.338 119.5,208.5C 120.391,207.739 121.058,206.739 121.5,205.5C 120.053,201.438 118.053,198.438 115.5,196.5C 114.596,195.791 114.263,194.791 114.5,193.5 Z"/></g>
<g><path style="opacity:1" fill="#e4c9b3" d="M 125.5,194.5 C 131.064,195.896 136.731,196.563 142.5,196.5C 142.611,197.117 142.944,197.617 143.5,198C 146.146,198.497 148.813,198.664 151.5,198.5C 153.299,200.15 155.132,201.817 157,203.5C 158.087,201.068 158.587,201.402 158.5,204.5C 160.167,204.5 161.833,204.5 163.5,204.5C 163.281,205.675 163.614,206.675 164.5,207.5C 165.48,204.914 165.813,202.247 165.5,199.5C 166.434,200.568 166.768,201.901 166.5,203.5C 166.5,205.833 166.5,208.167 166.5,210.5C 152.833,211.833 139.167,211.833 125.5,210.5C 125.635,205.289 125.635,200.289 125.5,195.5C 125.5,195.167 125.5,194.833 125.5,194.5 Z"/></g>
<g><path style="opacity:1" fill="#825a2f" d="M 111.5,196.5 C 111.5,196.833 111.5,197.167 111.5,197.5C 100.405,197.135 90.072,194.135 80.5,188.5C 80.1667,189.333 79.8333,190.167 79.5,191C 82.0009,196.258 82.0009,201.425 79.5,206.5C 75.8019,207.394 72.1353,208.394 68.5,209.5C 68.1667,209.833 67.8333,210.167 67.5,210.5C 68.5244,211.852 69.5244,213.185 70.5,214.5C 67.0232,214.388 65.5232,212.721 66,209.5C 68.9301,207.745 72.0967,206.578 75.5,206C 77.492,205.426 78.992,204.259 80,202.5C 79.7121,197.45 78.8788,192.45 77.5,187.5C 79.1992,187.34 80.8659,187.506 82.5,188C 91.5763,192.852 101.243,195.686 111.5,196.5 Z"/></g>
<g><path style="opacity:1" fill="#7d6450" d="M 165.5,199.5 C 165.813,202.247 165.48,204.914 164.5,207.5C 163.614,206.675 163.281,205.675 163.5,204.5C 161.833,204.5 160.167,204.5 158.5,204.5C 158.587,201.402 158.087,201.068 157,203.5C 155.132,201.817 153.299,200.15 151.5,198.5C 152.793,197.842 154.293,197.508 156,197.5C 159.166,198.305 162.333,198.972 165.5,199.5 Z"/></g>
<g><path style="opacity:1" fill="#2e1a0f" d="M 111.5,201.5 C 112.573,203.347 112.573,205.347 111.5,207.5C 110.5,207.5 109.5,207.5 108.5,207.5C 104.89,206.297 101.223,205.297 97.5,204.5C 96.8333,203.833 96.1667,203.167 95.5,202.5C 100.64,201.512 105.974,201.179 111.5,201.5 Z"/></g>
<g><path style="opacity:1" fill="#80675a" d="M 119.5,208.5 C 118.5,208.5 117.5,208.5 116.5,208.5C 116.768,206.901 116.434,205.568 115.5,204.5C 115.5,201.833 115.5,199.167 115.5,196.5C 118.053,198.438 120.053,201.438 121.5,205.5C 121.058,206.739 120.391,207.739 119.5,208.5 Z"/></g>
<g><path style="opacity:1" fill="#e09548" d="M 111.5,197.5 C 111.5,198.833 111.5,200.167 111.5,201.5C 105.974,201.179 100.64,201.512 95.5,202.5C 92.1492,207.792 90.4825,213.792 90.5,220.5C 83.731,218.808 77.0643,216.808 70.5,214.5C 69.5244,213.185 68.5244,211.852 67.5,210.5C 67.8333,210.167 68.1667,209.833 68.5,209.5C 72.1353,208.394 75.8019,207.394 79.5,206.5C 82.0009,201.425 82.0009,196.258 79.5,191C 79.8333,190.167 80.1667,189.333 80.5,188.5C 90.072,194.135 100.405,197.135 111.5,197.5 Z"/></g>
<g><path style="opacity:1" fill="#8e5216" d="M 95.5,202.5 C 96.1667,203.167 96.8333,203.833 97.5,204.5C 96.5,204.5 95.5,204.5 94.5,204.5C 94.0079,209.959 93.0079,215.292 91.5,220.5C 91.1667,220.5 90.8333,220.5 90.5,220.5C 90.4825,213.792 92.1492,207.792 95.5,202.5 Z"/></g>
<g><path style="opacity:1" fill="#2e1710" d="M 197.5,201.5 C 199.621,201.325 201.621,201.659 203.5,202.5C 202.833,203.167 202.167,203.833 201.5,204.5C 198.554,204.897 195.887,205.897 193.5,207.5C 191.784,207.629 190.117,207.962 188.5,208.5C 188.672,207.508 188.338,206.842 187.5,206.5C 186.89,205.609 186.557,204.609 186.5,203.5C 190.167,202.833 193.833,202.167 197.5,201.5 Z"/></g>
<g><path style="opacity:1" fill="#e2cebd" d="M 186.5,203.5 C 186.557,204.609 186.89,205.609 187.5,206.5C 187.631,207.376 187.298,208.043 186.5,208.5C 185.212,206.701 185.212,205.035 186.5,203.5 Z"/></g>
<g><path style="opacity:1" fill="#d2baa0" d="M 124.5,209.5 C 123.5,209.5 122.5,209.5 121.5,209.5C 123.451,203.169 124.451,203.169 124.5,209.5 Z"/></g>
<g><path style="opacity:1" fill="#875c30" d="M 115.5,204.5 C 116.434,205.568 116.768,206.901 116.5,208.5C 117.5,208.5 118.5,208.5 119.5,208.5C 119.842,209.338 120.508,209.672 121.5,209.5C 122.5,209.5 123.5,209.5 124.5,209.5C 124.5,210.167 124.833,210.5 125.5,210.5C 139.167,211.833 152.833,211.833 166.5,210.5C 166.5,210.833 166.5,211.167 166.5,211.5C 162.232,212.373 157.898,212.706 153.5,212.5C 144.416,212.804 135.416,212.471 126.5,211.5C 120.146,211.225 114.146,209.892 108.5,207.5C 109.5,207.5 110.5,207.5 111.5,207.5C 112.167,207.5 112.833,207.5 113.5,207.5C 113.56,208.043 113.893,208.376 114.5,208.5C 115.429,207.311 115.762,205.978 115.5,204.5 Z"/></g>
<g><path style="opacity:1" fill="#915217" d="M 203.5,202.5 C 204.117,202.611 204.617,202.944 205,203.5C 205.38,209.349 206.546,215.015 208.5,220.5C 208.167,220.5 207.833,220.5 207.5,220.5C 205.789,214.937 203.789,209.604 201.5,204.5C 202.167,203.833 202.833,203.167 203.5,202.5 Z"/></g>
<g><path style="opacity:1" fill="#7e532b" d="M 70.5,214.5 C 77.0643,216.808 83.731,218.808 90.5,220.5C 90.8333,220.5 91.1667,220.5 91.5,220.5C 90.2153,226.537 92.5486,230.204 98.5,231.5C 101.096,232.055 103.429,233.055 105.5,234.5C 96.7033,234.798 91.37,230.798 89.5,222.5C 84.204,220.568 78.8707,218.735 73.5,217C 72.0577,216.623 71.0577,215.79 70.5,214.5 Z"/></g>
<g><path style="opacity:1" fill="#391d0f" d="M 194.5,213.5 C 195.576,218.322 194.909,222.989 192.5,227.5C 191.828,226.051 191.161,224.718 190.5,223.5C 190.452,220.687 189.785,218.021 188.5,215.5C 190.304,214.232 192.304,213.565 194.5,213.5 Z"/></g>
<g><path style="opacity:1" fill="#d49554" d="M 160.5,219.5 C 160.166,222.188 160.832,224.521 162.5,226.5C 161.662,226.842 161.328,227.508 161.5,228.5C 161.823,233.839 164.157,234.839 168.5,231.5C 168.5,232.5 168.5,233.5 168.5,234.5C 165.881,234.768 163.381,234.435 161,233.5C 160.936,230.237 160.102,227.237 158.5,224.5C 158.833,223.833 159.167,223.167 159.5,222.5C 156.457,220.905 154.124,221.572 152.5,224.5C 151.624,224.631 150.957,224.298 150.5,223.5C 151.243,222.818 151.909,222.151 152.5,221.5C 151.448,219.744 149.781,219.077 147.5,219.5C 146.513,224.305 146.179,229.305 146.5,234.5C 148.735,234.795 150.735,234.461 152.5,233.5C 152.179,231.952 151.179,231.285 149.5,231.5C 149.5,230.167 149.5,228.833 149.5,227.5C 151.179,227.715 152.179,227.048 152.5,225.5C 156.57,235.579 153.57,238.246 143.5,233.5C 143.374,231.8 142.707,230.3 141.5,229C 144.023,227.089 144.023,225.255 141.5,223.5C 142.325,222.614 143.325,222.281 144.5,222.5C 144.5,221.5 144.5,220.5 144.5,219.5C 144.908,218.357 145.575,217.357 146.5,216.5C 150.912,218.558 155.579,219.558 160.5,219.5 Z"/></g>
<g><path style="opacity:1" fill="#8c6039" d="M 223.5,207.5 C 226.216,207.678 228.883,208.178 231.5,209C 232.554,210.388 232.72,211.888 232,213.5C 224.849,217.16 217.349,219.826 209.5,221.5C 209.87,228.643 206.537,233.143 199.5,235C 189.353,237.802 179.02,239.302 168.5,239.5C 168.5,239.167 168.5,238.833 168.5,238.5C 175.421,238.305 182.087,237.305 188.5,235.5C 195.563,235.425 201.729,233.092 207,228.5C 207.497,225.854 207.664,223.187 207.5,220.5C 207.833,220.5 208.167,220.5 208.5,220.5C 216.039,218.709 223.372,216.209 230.5,213C 231.711,212.107 231.711,211.274 230.5,210.5C 227.984,209.67 225.65,208.67 223.5,207.5 Z"/></g>
<g><path style="opacity:1" fill="#39190b" d="M 160.5,219.5 C 160.833,219.5 161.167,219.5 161.5,219.5C 163.827,219.247 165.827,219.914 167.5,221.5C 166.167,221.833 164.833,222.167 163.5,222.5C 166.485,224.806 168.152,227.806 168.5,231.5C 164.157,234.839 161.823,233.839 161.5,228.5C 162.735,228.721 163.735,229.388 164.5,230.5C 165.602,228.463 164.935,227.13 162.5,226.5C 160.832,224.521 160.166,222.188 160.5,219.5 Z"/></g>
<g><path style="opacity:1" fill="#452110" d="M 144.5,219.5 C 144.5,220.5 144.5,221.5 144.5,222.5C 143.325,222.281 142.325,222.614 141.5,223.5C 144.023,225.255 144.023,227.089 141.5,229C 142.707,230.3 143.374,231.8 143.5,233.5C 141.833,233.5 140.167,233.5 138.5,233.5C 138.5,228.833 138.5,224.167 138.5,219.5C 140.5,219.5 142.5,219.5 144.5,219.5 Z"/></g>
<g><path style="opacity:1" fill="#85582d" d="M 147.5,219.5 C 147.5,224.167 147.5,228.833 147.5,233.5C 149.167,233.5 150.833,233.5 152.5,233.5C 150.735,234.461 148.735,234.795 146.5,234.5C 146.179,229.305 146.513,224.305 147.5,219.5 Z"/></g>
<g><path style="opacity:1" fill="#3c190e" d="M 136.5,218.5 C 136.5,219.5 136.5,220.5 136.5,221.5C 135.5,221.5 134.5,221.5 133.5,221.5C 133.48,223.143 134.147,224.476 135.5,225.5C 135.376,226.107 135.043,226.44 134.5,226.5C 132.692,227.918 132.025,229.918 132.5,232.5C 131.5,232.5 130.5,232.5 129.5,232.5C 130.127,227.859 130.46,223.193 130.5,218.5C 132.5,218.5 134.5,218.5 136.5,218.5 Z"/></g>
<g><path style="opacity:1" fill="#937461" d="M 162.5,226.5 C 164.935,227.13 165.602,228.463 164.5,230.5C 163.735,229.388 162.735,228.721 161.5,228.5C 161.328,227.508 161.662,226.842 162.5,226.5 Z"/></g>
<g><path style="opacity:1" fill="#de944a" d="M 201.5,204.5 C 203.789,209.604 205.789,214.937 207.5,220.5C 207.664,223.187 207.497,225.854 207,228.5C 201.729,233.092 195.563,235.425 188.5,235.5C 184.233,235.203 180.066,235.536 176,236.5C 175.51,235.207 175.343,233.873 175.5,232.5C 179.798,231.8 184.131,231.467 188.5,231.5C 188.244,227.138 188.077,222.805 188,218.5C 188.757,220.315 189.59,221.981 190.5,223.5C 191.161,224.718 191.828,226.051 192.5,227.5C 194.909,222.989 195.576,218.322 194.5,213.5C 193.659,211.621 193.325,209.621 193.5,207.5C 195.887,205.897 198.554,204.897 201.5,204.5 Z"/></g>
<g><path style="opacity:1" fill="#2f1b11" d="M 45.5,227.5 C 47.9288,227.585 49.9288,228.585 51.5,230.5C 49.7253,233.313 48.892,236.313 49,239.5C 51,236.833 53,234.167 55,231.5C 56.586,232.376 58.086,233.376 59.5,234.5C 57.0066,240.157 54.0066,245.49 50.5,250.5C 49.5,250.167 48.8333,249.5 48.5,248.5C 55.3641,236.053 54.6974,235.553 46.5,247C 45.552,247.483 44.552,247.649 43.5,247.5C 44.265,243.402 45.0984,239.402 46,235.5C 43.966,238.706 42.1326,242.04 40.5,245.5C 39.2801,245.113 38.6135,244.28 38.5,243C 41.1159,237.908 43.4492,232.741 45.5,227.5 Z"/></g>
<g><path style="opacity:1" fill="#e19445" d="M 123.5,217.5 C 122.833,217.5 122.5,217.833 122.5,218.5C 120.974,217.895 119.974,216.729 119.5,215C 116.779,214.398 114.113,214.565 111.5,215.5C 111.586,214.504 111.252,213.671 110.5,213C 108.231,212.242 106.064,212.409 104,213.5C 101.75,217.941 100.75,222.607 101,227.5C 101.671,228.252 102.504,228.586 103.5,228.5C 105.364,229.793 107.364,229.793 109.5,228.5C 109.942,227.261 110.609,226.261 111.5,225.5C 111.488,229.446 113.488,231.113 117.5,230.5C 119.344,231.204 119.844,232.537 119,234.5C 117.989,235.337 116.822,235.67 115.5,235.5C 112.193,234.949 108.86,234.616 105.5,234.5C 103.429,233.055 101.096,232.055 98.5,231.5C 96.6452,229.967 94.8119,228.3 93,226.5C 92.8333,225.667 92.6667,224.833 92.5,224C 94.5839,218.012 95.9173,211.845 96.5,205.5C 97.7946,206.098 99.1279,206.598 100.5,207C 99.4829,208.049 99.3162,209.216 100,210.5C 101.333,209.833 102.333,208.833 103,207.5C 109.379,210.718 116.212,212.385 123.5,212.5C 123.5,214.167 123.5,215.833 123.5,217.5 Z"/></g>
<g><path style="opacity:1" fill="#d69450" d="M 97.5,204.5 C 101.223,205.297 104.89,206.297 108.5,207.5C 114.146,209.892 120.146,211.225 126.5,211.5C 125.334,213.166 125.334,214.833 126.5,216.5C 128.367,213.771 129.367,214.104 129.5,217.5C 130.5,217.5 131.5,217.5 132.5,217.5C 132.5,216.5 132.5,215.5 132.5,214.5C 133.833,214.5 135.167,214.5 136.5,214.5C 136.5,215.833 136.5,217.167 136.5,218.5C 134.5,218.5 132.5,218.5 130.5,218.5C 130.46,223.193 130.127,227.859 129.5,232.5C 130.5,232.5 131.5,232.5 132.5,232.5C 132.025,229.918 132.692,227.918 134.5,226.5C 134.777,229.448 134.444,232.281 133.5,235C 130.343,235.07 127.343,234.236 124.5,232.5C 122.45,233.077 121.45,234.41 121.5,236.5C 123.099,236.232 124.432,236.566 125.5,237.5C 121.878,237.678 118.544,237.011 115.5,235.5C 116.822,235.67 117.989,235.337 119,234.5C 119.844,232.537 119.344,231.204 117.5,230.5C 118.811,225.939 119.478,221.272 119.5,216.5C 117.396,216.201 115.396,216.534 113.5,217.5C 112.705,220.144 112.038,222.811 111.5,225.5C 110.609,226.261 109.942,227.261 109.5,228.5C 107.364,229.793 105.364,229.793 103.5,228.5C 105.781,228.923 107.448,228.256 108.5,226.5C 109.234,225.292 109.567,223.959 109.5,222.5C 111.168,220.521 111.834,218.188 111.5,215.5C 114.113,214.565 116.779,214.398 119.5,215C 119.974,216.729 120.974,217.895 122.5,218.5C 121.577,222.861 121.577,227.194 122.5,231.5C 123.768,229.696 124.435,227.696 124.5,225.5C 125.675,225.719 126.675,225.386 127.5,224.5C 126.147,223.476 125.48,222.143 125.5,220.5C 127.355,220.728 128.188,220.061 128,218.5C 126.644,217.62 125.144,217.286 123.5,217.5C 123.5,215.833 123.5,214.167 123.5,212.5C 116.212,212.385 109.379,210.718 103,207.5C 102.333,208.833 101.333,209.833 100,210.5C 99.3162,209.216 99.4829,208.049 100.5,207C 99.1279,206.598 97.7946,206.098 96.5,205.5C 95.9173,211.845 94.5839,218.012 92.5,224C 92.6667,224.833 92.8333,225.667 93,226.5C 94.8119,228.3 96.6452,229.967 98.5,231.5C 92.5486,230.204 90.2153,226.537 91.5,220.5C 93.0079,215.292 94.0079,209.959 94.5,204.5C 95.5,204.5 96.5,204.5 97.5,204.5 Z"/></g>
<g><path style="opacity:1" fill="#32160c" d="M 123.5,217.5 C 125.144,217.286 126.644,217.62 128,218.5C 128.188,220.061 127.355,220.728 125.5,220.5C 125.48,222.143 126.147,223.476 127.5,224.5C 126.675,225.386 125.675,225.719 124.5,225.5C 124.435,227.696 123.768,229.696 122.5,231.5C 121.577,227.194 121.577,222.861 122.5,218.5C 122.5,217.833 122.833,217.5 123.5,217.5 Z"/></g>
<g><path style="opacity:1" fill="#bd8750" d="M 111.5,215.5 C 111.834,218.188 111.168,220.521 109.5,222.5C 108.5,222.5 107.5,222.5 106.5,222.5C 106.719,223.675 106.386,224.675 105.5,225.5C 105.167,225.167 104.833,224.833 104.5,224.5C 105.501,221.828 106.501,219.161 107.5,216.5C 109.712,220.11 110.712,219.443 110.5,214.5C 108.5,214.5 106.5,214.5 104.5,214.5C 103.344,218.445 102.844,222.445 103,226.5C 104.828,227.752 106.661,227.752 108.5,226.5C 107.448,228.256 105.781,228.923 103.5,228.5C 102.504,228.586 101.671,228.252 101,227.5C 100.75,222.607 101.75,217.941 104,213.5C 106.064,212.409 108.231,212.242 110.5,213C 111.252,213.671 111.586,214.504 111.5,215.5 Z"/></g>
<g><path style="opacity:1" fill="#351407" d="M 109.5,222.5 C 109.567,223.959 109.234,225.292 108.5,226.5C 106.661,227.752 104.828,227.752 103,226.5C 102.844,222.445 103.344,218.445 104.5,214.5C 106.5,214.5 108.5,214.5 110.5,214.5C 110.712,219.443 109.712,220.11 107.5,216.5C 106.501,219.161 105.501,221.828 104.5,224.5C 104.833,224.833 105.167,225.167 105.5,225.5C 106.386,224.675 106.719,223.675 106.5,222.5C 107.5,222.5 108.5,222.5 109.5,222.5 Z"/></g>
<g><path style="opacity:1" fill="#35170c" d="M 117.5,230.5 C 113.488,231.113 111.488,229.446 111.5,225.5C 112.038,222.811 112.705,220.144 113.5,217.5C 115.396,216.534 117.396,216.201 119.5,216.5C 119.478,221.272 118.811,225.939 117.5,230.5 Z"/></g>
<g><path style="opacity:1" fill="#a5815c" d="M 115.5,218.5 C 116.497,218.47 117.164,218.97 117.5,220C 116.896,222.584 116.063,225.084 115,227.5C 114.505,224.469 114.671,221.469 115.5,218.5 Z"/></g>
<g><path style="opacity:1" fill="#2d0e01" d="M 147.5,219.5 C 149.781,219.077 151.448,219.744 152.5,221.5C 151.5,221.5 150.5,221.5 149.5,221.5C 149.5,222.833 149.5,224.167 149.5,225.5C 150.5,225.5 151.5,225.5 152.5,225.5C 152.179,227.048 151.179,227.715 149.5,227.5C 149.5,228.833 149.5,230.167 149.5,231.5C 151.179,231.285 152.179,231.952 152.5,233.5C 150.833,233.5 149.167,233.5 147.5,233.5C 147.5,228.833 147.5,224.167 147.5,219.5 Z"/></g>
<g><path style="opacity:1" fill="#865e38" d="M 105.5,234.5 C 108.86,234.616 112.193,234.949 115.5,235.5C 118.544,237.011 121.878,237.678 125.5,237.5C 139.421,239.199 153.421,239.865 167.5,239.5C 148.869,241.295 130.202,240.461 111.5,237C 109.389,236.155 107.389,235.322 105.5,234.5 Z"/></g>
<g><path style="opacity:1" fill="#dc9246" d="M 126.5,211.5 C 135.416,212.471 144.416,212.804 153.5,212.5C 152.492,214.841 153.492,215.841 156.5,215.5C 158.044,215.21 159.377,214.544 160.5,213.5C 161.466,215.396 161.799,217.396 161.5,219.5C 161.167,219.5 160.833,219.5 160.5,219.5C 155.579,219.558 150.912,218.558 146.5,216.5C 145.575,217.357 144.908,218.357 144.5,219.5C 142.5,219.5 140.5,219.5 138.5,219.5C 138.5,224.167 138.5,228.833 138.5,233.5C 140.167,233.5 141.833,233.5 143.5,233.5C 153.57,238.246 156.57,235.579 152.5,225.5C 152.5,225.167 152.5,224.833 152.5,224.5C 154.124,221.572 156.457,220.905 159.5,222.5C 159.167,223.167 158.833,223.833 158.5,224.5C 160.102,227.237 160.936,230.237 161,233.5C 163.381,234.435 165.881,234.768 168.5,234.5C 168.5,233.5 168.5,232.5 168.5,231.5C 169.609,231.557 170.609,231.89 171.5,232.5C 171.5,234.167 171.5,235.833 171.5,237.5C 170.209,237.263 169.209,237.596 168.5,238.5C 168.5,238.833 168.5,239.167 168.5,239.5C 168.167,239.5 167.833,239.5 167.5,239.5C 153.421,239.865 139.421,239.199 125.5,237.5C 124.432,236.566 123.099,236.232 121.5,236.5C 121.45,234.41 122.45,233.077 124.5,232.5C 127.343,234.236 130.343,235.07 133.5,235C 134.444,232.281 134.777,229.448 134.5,226.5C 135.043,226.44 135.376,226.107 135.5,225.5C 134.147,224.476 133.48,223.143 133.5,221.5C 134.5,221.5 135.5,221.5 136.5,221.5C 136.5,220.5 136.5,219.5 136.5,218.5C 136.5,217.167 136.5,215.833 136.5,214.5C 135.167,214.5 133.833,214.5 132.5,214.5C 132.5,215.5 132.5,216.5 132.5,217.5C 131.5,217.5 130.5,217.5 129.5,217.5C 129.367,214.104 128.367,213.771 126.5,216.5C 125.334,214.833 125.334,213.166 126.5,211.5 Z"/></g>
<g><path style="opacity:1" fill="#7e5731" d="M 152.5,221.5 C 151.909,222.151 151.243,222.818 150.5,223.5C 150.957,224.298 151.624,224.631 152.5,224.5C 152.5,224.833 152.5,225.167 152.5,225.5C 151.5,225.5 150.5,225.5 149.5,225.5C 149.5,224.167 149.5,222.833 149.5,221.5C 150.5,221.5 151.5,221.5 152.5,221.5 Z"/></g>
<g><path style="opacity:1" fill="#c78b4b" d="M 193.5,207.5 C 193.325,209.621 193.659,211.621 194.5,213.5C 192.304,213.565 190.304,214.232 188.5,215.5C 189.785,218.021 190.452,220.687 190.5,223.5C 189.59,221.981 188.757,220.315 188,218.5C 188.077,222.805 188.244,227.138 188.5,231.5C 184.131,231.467 179.798,231.8 175.5,232.5C 175.343,233.873 175.51,235.207 176,236.5C 180.066,235.536 184.233,235.203 188.5,235.5C 182.087,237.305 175.421,238.305 168.5,238.5C 169.209,237.596 170.209,237.263 171.5,237.5C 171.5,235.833 171.5,234.167 171.5,232.5C 170.609,231.89 169.609,231.557 168.5,231.5C 168.152,227.806 166.485,224.806 163.5,222.5C 164.833,222.167 166.167,221.833 167.5,221.5C 165.827,219.914 163.827,219.247 161.5,219.5C 161.799,217.396 161.466,215.396 160.5,213.5C 159.377,214.544 158.044,215.21 156.5,215.5C 153.492,215.841 152.492,214.841 153.5,212.5C 157.898,212.706 162.232,212.373 166.5,211.5C 172.645,211.73 178.645,211.064 184.5,209.5C 186.099,209.768 187.432,209.434 188.5,208.5C 190.117,207.962 191.784,207.629 193.5,207.5 Z"/></g>
<g><path style="opacity:1" fill="#331007" d="M 181.5,216.5 C 183.39,216.297 184.89,216.963 186,218.5C 186.719,222.145 187.219,225.812 187.5,229.5C 185.801,229.66 184.134,229.494 182.5,229C 181.718,226.328 180.718,223.828 179.5,221.5C 179.12,219.302 179.787,217.635 181.5,216.5 Z"/></g>
<g><path style="opacity:1" fill="#a6845a" d="M 182.5,218.5 C 185.032,221.437 185.699,224.771 184.5,228.5C 183.192,225.294 182.525,221.96 182.5,218.5 Z"/></g>
<g><path style="opacity:1" fill="#896c49" d="M 176.5,218.5 C 175.001,219.678 174.001,221.345 173.5,223.5C 172.548,221.955 172.215,220.288 172.5,218.5C 173.961,217.314 175.295,217.314 176.5,218.5 Z"/></g>
<g><path style="opacity:1" fill="#2f1409" d="M 170.5,218.5 C 171.167,218.5 171.833,218.5 172.5,218.5C 172.215,220.288 172.548,221.955 173.5,223.5C 174.001,221.345 175.001,219.678 176.5,218.5C 177.038,220.117 177.371,221.784 177.5,223.5C 177.292,225.92 177.626,228.253 178.5,230.5C 177.675,231.386 176.675,231.719 175.5,231.5C 175.799,229.396 175.466,227.396 174.5,225.5C 174.062,228.295 173.062,230.628 171.5,232.5C 171.167,227.833 170.833,223.167 170.5,218.5 Z"/></g>
<g><path style="opacity:1" fill="#dd9447" d="M 181.5,216.5 C 179.787,217.635 179.12,219.302 179.5,221.5C 179.663,223.857 179.497,226.19 179,228.5C 178.802,226.618 178.302,224.952 177.5,223.5C 177.371,221.784 177.038,220.117 176.5,218.5C 175.295,217.314 173.961,217.314 172.5,218.5C 171.833,218.5 171.167,218.5 170.5,218.5C 168.833,218.5 167.167,218.5 165.5,218.5C 165.5,216.5 165.5,214.5 165.5,212.5C 172.935,212.779 180.269,212.112 187.5,210.5C 187.5,212.167 187.5,213.833 187.5,215.5C 185.265,215.205 183.265,215.539 181.5,216.5 Z"/></g>
<g><path style="opacity:1" fill="#2e1810" d="M 63.5,236.5 C 65.5,236.833 67.5,237.167 69.5,237.5C 68.2705,244.087 66.2705,250.421 63.5,256.5C 62.0653,255.176 61.0653,253.51 60.5,251.5C 59.1502,252.95 57.4835,253.617 55.5,253.5C 57.3602,247.447 60.0268,241.78 63.5,236.5 Z"/></g>
<g><path style="opacity:1" fill="#301a12" d="M 231.5,235.5 C 232.497,235.47 233.164,235.97 233.5,237C 231.628,238.974 231.295,241.141 232.5,243.5C 234.263,242.046 235.597,242.38 236.5,244.5C 234.553,246.276 234.22,248.276 235.5,250.5C 237.71,249.018 239.376,249.518 240.5,252C 238.182,253.993 235.516,255.159 232.5,255.5C 230.938,249.869 228.938,244.369 226.5,239C 226.645,238.228 226.978,237.561 227.5,237C 229.058,236.79 230.391,236.29 231.5,235.5 Z"/></g>
<g><path style="opacity:1" fill="#321f15" d="M 220.5,239.5 C 221.5,239.5 222.5,239.5 223.5,239.5C 223.643,241.262 223.309,242.929 222.5,244.5C 224.837,248.847 226.17,253.514 226.5,258.5C 225.325,258.719 224.325,258.386 223.5,257.5C 221.576,253.662 220.242,249.662 219.5,245.5C 217.365,245.853 216.032,245.02 215.5,243C 216.921,241.377 218.588,240.21 220.5,239.5 Z"/></g>
<g><path style="opacity:1" fill="#af978c" d="M 64.5,240.5 C 65.1944,243.232 64.5277,245.899 62.5,248.5C 62.1667,248.167 61.8333,247.833 61.5,247.5C 62.7019,245.22 63.7019,242.886 64.5,240.5 Z"/></g>
<g><path style="opacity:1" fill="#2f1b11" d="M 247.5,227.5 C 251.784,232.031 255.117,237.364 257.5,243.5C 256.758,244.287 255.925,244.953 255,245.5C 253.08,242.661 251.413,239.661 250,236.5C 250.298,240.241 251.131,243.908 252.5,247.5C 251.127,247.657 249.793,247.49 248.5,247C 241.754,236.832 241.088,237.165 246.5,248C 246.387,249.28 245.72,250.113 244.5,250.5C 242,246.167 239.5,241.833 237,237.5C 235.835,234.186 237.002,232.186 240.5,231.5C 242.667,234.5 244.833,237.5 247,240.5C 246.098,236.598 245.265,232.598 244.5,228.5C 245.791,228.737 246.791,228.404 247.5,227.5 Z"/></g>
<g><path style="opacity:1" fill="#2d1910" d="M 206.5,244.5 C 209.908,243.828 212.575,244.828 214.5,247.5C 212.424,248.1 210.424,248.433 208.5,248.5C 211.57,250.464 214.403,252.798 217,255.5C 217.993,261.502 215.493,263.668 209.5,262C 206.35,258.385 207.016,256.551 211.5,256.5C 211.281,257.675 211.614,258.675 212.5,259.5C 213.583,258.635 213.749,257.635 213,256.5C 210.667,254.833 208.333,253.167 206,251.5C 205.297,249.071 205.463,246.738 206.5,244.5 Z"/></g>
<g><path style="opacity:1" fill="#2d1810" d="M 87.5,245.5 C 89.1992,245.34 90.8659,245.506 92.5,246C 93.0219,246.561 93.3552,247.228 93.5,248C 92.337,253.479 91.337,258.979 90.5,264.5C 89.5,264.5 88.5,264.5 87.5,264.5C 87.5,263.5 87.5,262.5 87.5,261.5C 85.857,261.48 84.5237,262.147 83.5,263.5C 82.1195,263 81.4528,262 81.5,260.5C 83.2114,255.407 85.2114,250.407 87.5,245.5 Z"/></g>
<g><path style="opacity:1" fill="#644d37" d="M 130.5,253.5 C 132.265,252.539 134.265,252.205 136.5,252.5C 136.784,254.415 136.451,256.081 135.5,257.5C 135.5,256.167 135.5,254.833 135.5,253.5C 133.833,253.5 132.167,253.5 130.5,253.5 Z"/></g>
<g><path style="opacity:1" fill="#2e180e" d="M 73.5,258.5 C 74.6225,256.712 74.7891,254.712 74,252.5C 72.9614,253.244 72.4614,254.244 72.5,255.5C 72.5,256.5 72.5,257.5 72.5,258.5C 71.1667,258.5 69.8333,258.5 68.5,258.5C 70.5514,252.67 72.218,246.67 73.5,240.5C 74.8333,240.5 76.1667,240.5 77.5,240.5C 77.3367,242.857 77.5034,245.19 78,247.5C 78.1545,244.475 79.6545,242.809 82.5,242.5C 80.8333,248.5 79.1667,254.5 77.5,260.5C 75.5168,260.843 74.1834,260.176 73.5,258.5 Z"/></g>
<g><path style="opacity:1" fill="#2e1b11" d="M 163.5,252.5 C 166.167,252.5 168.833,252.5 171.5,252.5C 171.045,254.367 170.378,256.2 169.5,258C 170.345,262.461 170.678,266.961 170.5,271.5C 169.167,271.5 167.833,271.5 166.5,271.5C 166.666,267.486 166.499,263.486 166,259.5C 164.587,257.348 163.754,255.014 163.5,252.5 Z"/></g>
<g><path style="opacity:1" fill="#886f60" d="M 73.5,258.5 C 73.7373,257.209 73.404,256.209 72.5,255.5C 72.4614,254.244 72.9614,253.244 74,252.5C 74.7891,254.712 74.6225,256.712 73.5,258.5 Z"/></g>
<g><path style="opacity:1" fill="#b29c94" d="M 88.5,250.5 C 89.7728,253.196 89.4395,255.862 87.5,258.5C 87.1667,258 86.8333,257.5 86.5,257C 87.2741,254.846 87.9408,252.679 88.5,250.5 Z"/></g>
<g><path style="opacity:1" fill="#301e13" d="M 183.5,249.5 C 187.145,248.68 189.478,250.013 190.5,253.5C 188.662,254.189 186.995,254.522 185.5,254.5C 187.53,256.607 189.697,258.607 192,260.5C 192.755,263.303 192.422,265.97 191,268.5C 185.529,270.545 183.029,268.545 183.5,262.5C 185.912,262.244 187.579,263.244 188.5,265.5C 188.833,265.167 189.167,264.833 189.5,264.5C 187.527,261.861 185.194,259.527 182.5,257.5C 181.102,254.565 181.435,251.898 183.5,249.5 Z"/></g>
<g><path style="opacity:1" fill="#695446" d="M 160.5,258.5 C 159.837,256.958 159.17,255.291 158.5,253.5C 157.833,256.167 157.167,258.833 156.5,261.5C 155.571,260.311 155.238,258.978 155.5,257.5C 156.451,256.081 156.784,254.415 156.5,252.5C 157.833,252.5 159.167,252.5 160.5,252.5C 160.5,254.5 160.5,256.5 160.5,258.5 Z"/></g>
<g><path style="opacity:1" fill="#2c180f" d="M 130.5,253.5 C 132.167,253.5 133.833,253.5 135.5,253.5C 135.5,254.833 135.5,256.167 135.5,257.5C 135.5,260.167 135.5,262.833 135.5,265.5C 134.539,267.265 134.205,269.265 134.5,271.5C 133.5,271.5 132.5,271.5 131.5,271.5C 131.788,268.134 131.954,264.8 132,261.5C 130.241,264.608 129.408,267.941 129.5,271.5C 128.167,271.5 126.833,271.5 125.5,271.5C 124.833,256.833 124.167,256.833 123.5,271.5C 122.5,271.5 121.5,271.5 120.5,271.5C 120.295,265.122 120.628,258.789 121.5,252.5C 123.5,252.5 125.5,252.5 127.5,252.5C 127.101,263.896 128.101,264.229 130.5,253.5 Z"/></g>
<g><path style="opacity:1" fill="#2f1710" d="M 198.5,246.5 C 199.5,246.5 200.5,246.5 201.5,246.5C 201.407,252.863 201.74,259.196 202.5,265.5C 201.325,265.719 200.325,265.386 199.5,264.5C 197.976,259.118 195.642,254.118 192.5,249.5C 193.242,248.713 194.075,248.047 195,247.5C 196.252,249.001 197.252,250.668 198,252.5C 198.495,250.527 198.662,248.527 198.5,246.5 Z"/></g>
<g><path style="opacity:1" fill="#301b11" d="M 104.5,264.5 C 103.732,265.263 103.232,266.263 103,267.5C 100.959,266.577 98.7925,266.244 96.5,266.5C 95.1057,260.651 95.7723,254.984 98.5,249.5C 104.296,247.295 106.963,249.295 106.5,255.5C 105.5,255.5 104.5,255.5 103.5,255.5C 103.762,254.022 103.429,252.689 102.5,251.5C 100.34,253.637 99.3398,256.304 99.5,259.5C 99.6667,260.833 99.8333,262.167 100,263.5C 100.895,261.196 101.729,258.862 102.5,256.5C 103.167,256.833 103.833,257.167 104.5,257.5C 105.363,259.771 105.363,262.105 104.5,264.5 Z"/></g>
<g><path style="opacity:1" fill="#382117" d="M 139.5,253.5 C 142.167,253.5 144.833,253.5 147.5,253.5C 147.5,254.5 147.5,255.5 147.5,256.5C 146.167,256.5 144.833,256.5 143.5,256.5C 143.5,257.833 143.5,259.167 143.5,260.5C 144.833,260.5 146.167,260.5 147.5,260.5C 147.5,261.833 147.5,263.167 147.5,264.5C 146.167,264.5 144.833,264.5 143.5,264.5C 143.5,265.833 143.5,267.167 143.5,268.5C 144.833,268.5 146.167,268.5 147.5,268.5C 147.5,269.833 147.5,271.167 147.5,272.5C 144.833,272.5 142.167,272.5 139.5,272.5C 139.5,266.167 139.5,259.833 139.5,253.5 Z"/></g>
<g><path style="opacity:1" fill="#2b170c" d="M 155.5,257.5 C 155.238,258.978 155.571,260.311 156.5,261.5C 157.167,258.833 157.833,256.167 158.5,253.5C 159.17,255.291 159.837,256.958 160.5,258.5C 160.5,263.167 160.5,267.833 160.5,272.5C 157.5,272.833 156.167,271.5 156.5,268.5C 156.509,266.692 156.009,265.025 155,263.5C 154.502,266.482 154.335,269.482 154.5,272.5C 153.5,272.5 152.5,272.5 151.5,272.5C 151.5,266.167 151.5,259.833 151.5,253.5C 154.142,253.488 155.475,254.821 155.5,257.5 Z"/></g>
<g><path style="opacity:1" fill="#8d7664" d="M 104.5,264.5 C 104.5,265.833 104.5,267.167 104.5,268.5C 101.627,268.198 98.9608,267.531 96.5,266.5C 98.7925,266.244 100.959,266.577 103,267.5C 103.232,266.263 103.732,265.263 104.5,264.5 Z"/></g>
<g><path style="opacity:1" fill="#2f1b0f" d="M 115.5,266.5 C 115.5,267.5 115.5,268.5 115.5,269.5C 114.167,269.5 112.833,269.5 111.5,269.5C 110.5,269.5 109.5,269.5 108.5,269.5C 108.605,263.099 109.272,256.766 110.5,250.5C 113.167,250.5 115.833,250.5 118.5,250.5C 118.5,251.833 118.5,253.167 118.5,254.5C 116.833,254.5 115.167,254.5 113.5,254.5C 113.5,255.833 113.5,257.167 113.5,258.5C 114.5,258.5 115.5,258.5 116.5,258.5C 116.5,259.5 116.5,260.5 116.5,261.5C 115.167,261.5 113.833,261.5 112.5,261.5C 112.5,263.167 112.5,264.833 112.5,266.5C 113.5,266.5 114.5,266.5 115.5,266.5 Z"/></g>
<g><path style="opacity:1" fill="#877067" d="M 156.5,268.5 C 155.833,269.833 155.167,271.167 154.5,272.5C 154.335,269.482 154.502,266.482 155,263.5C 156.009,265.025 156.509,266.692 156.5,268.5 Z"/></g>
<g><path style="opacity:1" fill="#85705a" d="M 115.5,266.5 C 116.434,267.568 116.768,268.901 116.5,270.5C 114.585,270.784 112.919,270.451 111.5,269.5C 112.833,269.5 114.167,269.5 115.5,269.5C 115.5,268.5 115.5,267.5 115.5,266.5 Z"/></g>
<g><path style="opacity:1" fill="#7d6650" d="M 135.5,265.5 C 135.5,267.833 135.5,270.167 135.5,272.5C 133.901,272.768 132.568,272.434 131.5,271.5C 132.5,271.5 133.5,271.5 134.5,271.5C 134.205,269.265 134.539,267.265 135.5,265.5 Z"/></g>
</svg>
