<?xml version="1.0" encoding="utf-8"?>
<!-- Generator: Adobe Illustrator 24.2.0, SVG Export Plug-In . SVG Version: 6.00 Build 0)  -->
<svg version="1.1" id="Layer_1" xmlns="http://www.w3.org/2000/svg" xmlns:xlink="http://www.w3.org/1999/xlink" x="0px" y="0px"
	 width="35px" height="35px"
	 viewBox="0 0 252 252" enable-background="new 0 0 252 252" xml:space="preserve">
<path fill="#1F419B" d="M-317.51,8.75c34.29-4.3,70.17,7.76,94.8,32.01c2.03,2.23,1.45,5.91-0.76,7.8
	c-7.82,7.83-15.64,15.66-23.48,23.47c-2.07,2.49-6.11,2.57-8.37,0.31c-11.4-10.26-26.3-16.63-41.66-17.27
	c-16.4-0.83-32.95,4.83-45.55,15.33c-13.01,10.68-21.88,26.17-24.77,42.74c-2.87,16.09-0.26,33.13,7.53,47.52
	c7.27,13.56,19.06,24.72,33.19,30.89c14.54,6.43,31.44,7.34,46.57,2.43c9.63-3.05,18.45-8.43,25.82-15.32c2-2.13,5.71-2.5,7.84-0.36
	c8.08,7.95,16.05,16.02,24.08,24.03c2.25,1.93,2.74,5.74,0.62,7.95c-17.53,17.54-40.83,29.25-65.4,32.71
	c-25.53,3.72-52.26-1.31-74.61-14.23c-25.81-14.71-45.61-39.55-54.17-68c-8.48-27.67-6.43-58.45,5.84-84.68
	c11.19-24.25,30.87-44.45,54.85-56.2C-343.35,14.07-330.56,10.28-317.51,8.75z"/>
<g>
	<path fill="#1F419B" d="M-551.26,19.67c1.03-3.53,4.52-6.19,8.23-6.05c14.67,0,29.34,0.01,44.01,0c3.79-0.3,7.47,2.33,8.54,5.95
		c26.02,71.18,52.13,142.34,78.11,213.54c1.27,2.46-0.87,5.58-3.64,5.18c-14.66,0.05-29.31,0.01-43.97,0.03
		c-3.71,0.22-7.23-2.5-8.16-6.05c-5.03-15.15-10.09-30.29-15.13-45.44c-26.36-0.04-52.72,0-79.08-0.02
		c-5.19,15.21-10.18,30.49-15.3,45.72c-1.01,3.55-4.64,6.08-8.32,5.79c-14.01-0.06-28.03,0.08-42.04-0.07
		c-2.62,0.01-4.06-3.12-2.84-5.3C-604.37,161.84-577.77,90.77-551.26,19.67z M-550.58,147.3c18.38,0.02,36.75,0.02,55.13,0
		c-9.05-28.22-18.15-56.43-27.2-84.65C-532.04,90.84-541.27,119.08-550.58,147.3z"/>
</g>
<g>
	<path fill="#1F419B" d="M-204.69,19.95c-0.38-3.25,2.3-6.57,5.7-6.31c21.01-0.03,42.02-0.01,63.04-0.02
		c17.71-0.05,35.98-0.72,52.87,5.54c13.64,4.74,26.48,13.68,32.99,26.91c5.71,12.05,7.45,26.16,4.19,39.13
		c-4.73,15.38-16.48,29.11-32.16,33.86c15.26,3.63,29.75,12.45,37.83,26.21c8.56,13.14,9.08,29.79,6.21,44.77
		c-2.96,15.54-13.43,29.21-27.34,36.62c-16.67,9.01-36.03,11.05-54.68,11.62c-27.65,0.06-55.31,0.03-82.97,0.02
		c-3.33,0.23-6-2.99-5.67-6.2C-204.69,161.39-204.69,90.67-204.69,19.95z M-155.05,53.07c-0.02,16.81-0.02,33.61,0,50.42
		c10.02,0.02,20.05,0,30.07,0.01c6.79-0.09,13.79-1.27,19.69-4.8c5.92-3.47,9.94-9.92,10.55-16.74c0.76-6.97-0.41-14.6-5.28-19.95
		c-5.93-6.73-15.36-8.65-23.94-8.91C-134.32,53.01-144.69,53.08-155.05,53.07z M-155.05,140.63c-0.02,19.52-0.02,39.03,0,58.55
		c12.34-0.06,24.68,0.15,37.01-0.12c9.72-0.37,20.4-2.26,27.26-9.8c6.54-6.5,7.48-16.48,6.27-25.17
		c-1.07-7.85-6.48-14.7-13.45-18.27c-8.57-4.58-18.56-5.27-28.09-5.2C-135.72,140.64-145.39,140.61-155.05,140.63z"/>
</g>
<path fill="#00AEEF" d="M-306.51,86.73c9.78-2,20.3-0.24,28.82,4.99c9.53,5.72,16.47,15.56,18.58,26.49
	c1.99,9.96,0.07,20.65-5.39,29.23c-6.17,9.88-16.83,16.83-28.38,18.36c-10.07,1.44-20.65-1.1-28.9-7.06
	c-8.49-6.01-14.48-15.44-16.23-25.71c-1.73-9.74,0.26-20.1,5.61-28.44C-326.66,95.46-317.1,88.83-306.51,86.73z"/>
<g>
	<path fill="#1F419B" d="M8.711,122.876c-4.3-34.29,7.76-70.17,32.01-94.8c2.23-2.03,5.91-1.45,7.8,0.76
		c7.83,7.82,15.66,15.64,23.47,23.48c2.49,2.07,2.57,6.11,0.31,8.37c-10.26,11.4-16.63,26.3-17.27,41.66
		c-0.83,16.4,4.83,32.95,15.33,45.55c10.68,13.01,26.17,21.88,42.74,24.77c16.09,2.87,33.13,0.26,47.52-7.53
		c13.56-7.27,24.72-19.06,30.89-33.19c6.43-14.54,7.34-31.44,2.43-46.57c-3.05-9.63-8.43-18.45-15.32-25.82
		c-2.13-2-2.5-5.71-0.36-7.84c7.95-8.08,16.02-16.05,24.03-24.08c1.93-2.25,5.74-2.74,7.95-0.62c17.54,17.53,29.25,40.83,32.71,65.4
		c3.72,25.53-1.31,52.26-14.23,74.61c-14.71,25.81-39.55,45.61-68,54.17c-27.67,8.48-58.45,6.43-84.68-5.84
		c-24.25-11.19-44.45-30.87-56.2-54.85C14.031,148.716,10.241,135.926,8.711,122.876z"/>
	<path fill="#00AEEF" d="M86.691,111.876c-2-9.78-0.24-20.3,4.99-28.82c5.72-9.53,15.56-16.47,26.49-18.58
		c9.96-1.99,20.65-0.07,29.23,5.39c9.88,6.17,16.83,16.83,18.36,28.38c1.44,10.07-1.1,20.65-7.06,28.9
		c-6.01,8.49-15.44,14.48-25.71,16.23c-9.74,1.73-20.1-0.26-28.44-5.61C95.421,132.026,88.791,122.466,86.691,111.876z"/>
</g>
</svg>
