<?xml version="1.0" encoding="UTF-8"?>
<svg xmlns="http://www.w3.org/2000/svg" xmlns:xlink="http://www.w3.org/1999/xlink" width="30px" height="30px"
     viewBox="0 0 30 30" version="1.1">
    <g id="surface1">
        <path style=" stroke:none;fill-rule:nonzero;fill:rgb(255,255,255);fill-opacity:1;"
              d="M 13.691406 9.523438 L 13.691406 13.691406 L 9.523438 13.691406 C 5.773438 13.691406 5.359375 13.808594 5.359375 14.878906 C 5.359375 15.953125 5.773438 16.074219 9.523438 16.074219 L 13.632812 16.074219 L 13.808594 20.058594 C 13.925781 23.332031 14.167969 24.109375 15.058594 24.285156 C 15.953125 24.464844 16.074219 23.988281 16.074219 20.296875 L 16.074219 16.074219 L 20.238281 16.074219 C 23.988281 16.074219 24.402344 15.953125 24.402344 14.878906 C 24.402344 13.808594 23.988281 13.691406 20.238281 13.691406 L 16.074219 13.691406 L 16.074219 9.523438 C 16.074219 5.773438 15.953125 5.359375 14.878906 5.359375 C 13.808594 5.359375 13.691406 5.773438 13.691406 9.523438 Z M 13.691406 9.523438 "/>
    </g>
</svg>
