<?xml version="1.0" encoding="UTF-8"?>
<!DOCTYPE svg PUBLIC "-//W3C//DTD SVG 1.1//EN" "http://www.w3.org/Graphics/SVG/1.1/DTD/svg11.dtd">
<svg xmlns="http://www.w3.org/2000/svg" version="1.1" width="278px" height="272px" style="shape-rendering:geometricPrecision; text-rendering:geometricPrecision; image-rendering:optimizeQuality; fill-rule:evenodd; clip-rule:evenodd" xmlns:xlink="http://www.w3.org/1999/xlink">
<g><path style="opacity:1" fill="#e7cdb4" d="M -0.5,-0.5 C 55.8333,-0.5 112.167,-0.5 168.5,-0.5C 169.681,1.0672 171.347,1.90054 173.5,2C 176.562,2.7415 179.562,2.57483 182.5,1.5C 183.795,2.09826 185.128,2.59826 186.5,3C 185.542,4.14748 185.875,5.14748 187.5,6C 189.557,6.30518 191.557,6.30518 193.5,6C 194.79,8.29201 196.457,10.292 198.5,12C 198.043,12.414 197.709,12.914 197.5,13.5C 198.97,16.7964 201.137,19.4631 204,21.5C 205.401,24.6846 205.568,28.0179 204.5,31.5C 201.775,26.3781 199.275,21.0447 197,15.5C 189.882,8.67344 181.382,4.50678 171.5,3C 144.371,-0.854084 117.371,-0.187418 90.5,5C 85.6012,6.44915 80.9346,8.44915 76.5,11C 73.8941,12.9384 72.0608,15.4384 71,18.5C 69.393,23.9884 67.393,29.3217 65,34.5C 60.4064,37.0095 58.4064,41.0095 59,46.5C 58.3333,51.1667 58.3333,55.8333 59,60.5C 61.4682,63.7205 64.1349,66.7205 67,69.5C 67.2562,80.8585 67.7562,92.1918 68.5,103.5C 67.5,103.5 66.5,103.5 65.5,103.5C 65.8846,131.801 68.8846,159.801 74.5,187.5C 75.7481,188.04 76.9148,188.707 78,189.5C 78.1667,194.333 78.3333,199.167 78.5,204C 78.4937,209.216 77.8271,214.049 76.5,218.5C 75.9094,217.849 75.2427,217.182 74.5,216.5C 77.2996,211.853 78.1329,206.853 77,201.5C 76.6174,200.944 76.1174,200.611 75.5,200.5C 74.9423,199.21 73.9423,198.377 72.5,198C 62.7121,197.146 53.0455,195.646 43.5,193.5C 42.2196,192.069 40.5529,191.402 38.5,191.5C 35.4846,189.326 32.1513,187.659 28.5,186.5C 27.0351,185.263 25.3684,184.263 23.5,183.5C 22.1667,183.5 20.8333,183.5 19.5,183.5C 20.0965,190.794 21.4299,197.96 23.5,205C 23.3473,207.216 23.0139,209.383 22.5,211.5C 21.5,211.833 20.8333,212.5 20.5,213.5C 14.2648,215.133 8.26475,217.133 2.5,219.5C 1.39105,219.557 0.391047,219.89 -0.5,220.5C -0.5,146.833 -0.5,73.1667 -0.5,-0.5 Z"/></g>
<g><path style="opacity:1" fill="#e7cdb4" d="M 168.5,-0.5 C 204.833,-0.5 241.167,-0.5 277.5,-0.5C 277.5,73.5 277.5,147.5 277.5,221.5C 274.426,219.698 271.092,218.698 267.5,218.5C 263.576,216.853 259.576,215.186 255.5,213.5C 254.076,211.275 253.409,208.775 253.5,206C 253.859,202.428 254.526,198.928 255.5,195.5C 257.074,193.898 257.741,191.898 257.5,189.5C 258.461,187.735 258.795,185.735 258.5,183.5C 256.585,183.216 254.919,183.549 253.5,184.5C 250.088,185.042 247.088,186.375 244.5,188.5C 241.088,189.042 238.088,190.375 235.5,192.5C 228.654,194.603 221.654,195.936 214.5,196.5C 212.585,196.216 210.919,196.549 209.5,197.5C 205.981,197.259 203.315,198.593 201.5,201.5C 198.567,207.088 199.233,212.422 203.5,217.5C 202.081,218.451 200.415,218.784 198.5,218.5C 198.899,208.102 198.399,197.768 197,187.5C 195.641,198.35 194.808,209.35 194.5,220.5C 193.325,220.719 192.325,220.386 191.5,219.5C 192.766,211.905 193.433,204.238 193.5,196.5C 193.658,193.478 192.325,191.478 189.5,190.5C 188.812,187.381 189.645,187.047 192,189.5C 192.309,188.234 192.809,187.067 193.5,186C 196.412,184.627 199.246,183.127 202,181.5C 204.665,155.536 205.832,129.536 205.5,103.5C 204.914,103.709 204.414,104.043 204,104.5C 203.129,92.4368 203.629,80.4368 205.5,68.5C 211.475,66.1937 214.141,61.8604 213.5,55.5C 213.138,49.1326 212.472,42.7992 211.5,36.5C 208.923,35.0569 206.59,33.3902 204.5,31.5C 205.568,28.0179 205.401,24.6846 204,21.5C 201.137,19.4631 198.97,16.7964 197.5,13.5C 197.709,12.914 198.043,12.414 198.5,12C 196.457,10.292 194.79,8.29201 193.5,6C 191.557,6.30518 189.557,6.30518 187.5,6C 185.875,5.14748 185.542,4.14748 186.5,3C 185.128,2.59826 183.795,2.09826 182.5,1.5C 179.562,2.57483 176.562,2.7415 173.5,2C 171.347,1.90054 169.681,1.0672 168.5,-0.5 Z"/></g>
<g><path style="opacity:1" fill="#392314" d="M 204.5,31.5 C 206.59,33.3902 208.923,35.0569 211.5,36.5C 212.472,42.7992 213.138,49.1326 213.5,55.5C 214.141,61.8604 211.475,66.1937 205.5,68.5C 203.629,80.4368 203.129,92.4368 204,104.5C 204.414,104.043 204.914,103.709 205.5,103.5C 205.832,129.536 204.665,155.536 202,181.5C 199.246,183.127 196.412,184.627 193.5,186C 192.809,187.067 192.309,188.234 192,189.5C 189.645,187.047 188.812,187.381 189.5,190.5C 184.678,190.069 180.012,191.069 175.5,193.5C 174.719,194.737 173.719,195.737 172.5,196.5C 172.5,195.5 172.5,194.5 172.5,193.5C 171.148,194.524 169.815,195.524 168.5,196.5C 168.083,195.876 167.416,195.543 166.5,195.5C 161.85,196.331 157.183,196.998 152.5,197.5C 150.901,197.232 149.568,197.566 148.5,198.5C 131.709,199.122 115.042,198.122 98.5,195.5C 92.704,193.217 86.704,191.55 80.5,190.5C 79.9644,193.698 80.631,196.365 82.5,198.5C 81.2248,201.604 81.2248,204.604 82.5,207.5C 82.3347,211.182 82.5014,214.848 83,218.5C 83.6708,219.252 84.5041,219.586 85.5,219.5C 85.5,220.167 85.1667,220.5 84.5,220.5C 81.6275,220.198 78.9608,219.531 76.5,218.5C 77.8271,214.049 78.4937,209.216 78.5,204C 78.3333,199.167 78.1667,194.333 78,189.5C 76.9148,188.707 75.7481,188.04 74.5,187.5C 68.8846,159.801 65.8846,131.801 65.5,103.5C 66.5,103.5 67.5,103.5 68.5,103.5C 67.7562,92.1918 67.2562,80.8585 67,69.5C 64.1349,66.7205 61.4682,63.7205 59,60.5C 58.3333,55.8333 58.3333,51.1667 59,46.5C 58.4064,41.0095 60.4064,37.0095 65,34.5C 67.393,29.3217 69.393,23.9884 71,18.5C 72.0608,15.4384 73.8941,12.9384 76.5,11C 80.9346,8.44915 85.6012,6.44915 90.5,5C 117.371,-0.187418 144.371,-0.854084 171.5,3C 181.382,4.50678 189.882,8.67344 197,15.5C 199.275,21.0447 201.775,26.3781 204.5,31.5 Z"/></g>
<g><path style="opacity:1" fill="#6e5748" d="M 79.5,98.5 C 80.9649,99.4057 81.9649,100.739 82.5,102.5C 81.1886,103.258 80.6886,104.258 81,105.5C 84.8113,104.034 85.3113,104.7 82.5,107.5C 81.8826,107.611 81.3826,107.944 81,108.5C 79.2825,107.545 77.6158,106.545 76,105.5C 75.586,105.957 75.086,106.291 74.5,106.5C 73.7379,105.372 73.0712,104.205 72.5,103C 73.7425,102.689 74.7425,103.189 75.5,104.5C 76.885,102.464 78.2183,100.464 79.5,98.5 Z"/></g>
<g><path style="opacity:1" fill="#664f3f" d="M 196.5,98.5 C 196.768,100.099 196.434,101.432 195.5,102.5C 193.221,103.868 192.554,105.702 193.5,108C 192.906,108.464 192.239,108.631 191.5,108.5C 190.542,108.047 189.708,107.381 189,106.5C 188.167,107.5 187.333,108.5 186.5,109.5C 184.604,108.361 183.604,109.027 183.5,111.5C 183.167,111.5 182.833,111.5 182.5,111.5C 182.5,111.167 182.5,110.833 182.5,110.5C 181.826,108.976 180.826,107.642 179.5,106.5C 180.498,103.972 181.331,103.972 182,106.5C 184.023,104.987 183.856,103.654 181.5,102.5C 182.456,100.3 181.79,99.9671 179.5,101.5C 181.584,97.6244 184.084,93.9577 187,90.5C 186.923,91.7376 187.089,92.7376 187.5,93.5C 187.833,93.1667 188.167,92.8333 188.5,92.5C 188.57,90.3565 189.07,88.3565 190,86.5C 190.574,88.492 191.741,89.992 193.5,91C 192.034,92.5522 191.034,94.3855 190.5,96.5C 191.764,96.6399 192.931,96.6399 194,96.5C 193.923,95.2624 194.089,94.2624 194.5,93.5C 195.17,95.2914 195.837,96.9581 196.5,98.5 Z"/></g>
<g><path style="opacity:1" fill="#c3ac98" d="M 185.5,84.5 C 186.815,83.5244 188.148,82.5244 189.5,81.5C 189.833,81.8333 190.167,82.1667 190.5,82.5C 185.643,88.189 180.977,94.0224 176.5,100C 177.244,101.039 178.244,101.539 179.5,101.5C 177.716,103.41 176.716,105.744 176.5,108.5C 172.865,108.344 172.532,107.178 175.5,105C 174.549,101.943 174.216,98.7766 174.5,95.5C 177.809,91.1853 181.143,86.852 184.5,82.5C 185.002,81.479 185.668,81.3123 186.5,82C 185.748,82.6708 185.414,83.5041 185.5,84.5 Z"/></g>
<g><path style="opacity:1" fill="#644a35" d="M 93.5,81.5 C 93.6643,88.2022 93.331,94.8689 92.5,101.5C 91.1961,94.776 91.5294,88.1094 93.5,81.5 Z"/></g>
<g><path style="opacity:1" fill="#765f4e" d="M 90.5,91.5 C 90.0019,96.1522 89.6686,100.819 89.5,105.5C 89.7678,107.099 89.4345,108.432 88.5,109.5C 87.1667,109.167 85.8333,108.833 84.5,108.5C 85.6431,108.092 86.6431,107.425 87.5,106.5C 83.5149,100.704 81.0149,94.3706 80,87.5C 80.8624,89.087 81.5291,90.7536 82,92.5C 82.3333,91.5 82.6667,90.5 83,89.5C 83.6667,90.8333 84.3333,92.1667 85,93.5C 86.2754,91.2827 87.2754,88.9494 88,86.5C 88.7568,88.3146 89.5902,89.9812 90.5,91.5 Z"/></g>
<g><path style="opacity:1" fill="#48311f" d="M 185.5,84.5 C 183.976,88.2022 181.81,91.5355 179,94.5C 180.067,90.5715 182.234,87.2381 185.5,84.5 Z"/></g>
<g><path style="opacity:1" fill="#ddc4b1" d="M 195.5,102.5 C 196.434,101.432 196.768,100.099 196.5,98.5C 196.98,93.1779 197.313,87.8446 197.5,82.5C 197.401,79.3637 197.401,75.6971 197.5,71.5C 198.583,71.4606 199.583,71.1272 200.5,70.5C 200.833,72 201.167,73.5 201.5,75C 199.588,84.0679 199.088,93.2345 200,102.5C 200.374,103.416 200.874,104.25 201.5,105C 196.562,109.025 194.562,108.192 195.5,102.5 Z"/></g>
<g><path style="opacity:1" fill="#4d3625" d="M 79.5,69.5 C 80.4916,69.3284 81.1583,69.6618 81.5,70.5C 81.3893,71.1174 81.056,71.6174 80.5,72C 82.9269,72.9023 85.2603,73.7356 87.5,74.5C 86.6236,74.3691 85.9569,74.7025 85.5,75.5C 89.0636,76.9655 92.7302,78.1322 96.5,79C 95.552,79.4828 94.552,79.6495 93.5,79.5C 90.3588,77.7138 87.6921,78.2138 85.5,81C 86.1905,82.0674 86.6905,83.2341 87,84.5C 87.3333,83.5 87.6667,82.5 88,81.5C 89.5566,84.6665 90.3899,87.9998 90.5,91.5C 89.5902,89.9812 88.7568,88.3146 88,86.5C 87.2754,88.9494 86.2754,91.2827 85,93.5C 84.3333,92.1667 83.6667,90.8333 83,89.5C 82.6667,90.5 82.3333,91.5 82,92.5C 81.5291,90.7536 80.8624,89.087 80,87.5C 81.0149,94.3706 83.5149,100.704 87.5,106.5C 86.6431,107.425 85.6431,108.092 84.5,108.5C 83.5084,108.672 82.8417,108.338 82.5,107.5C 85.3113,104.7 84.8113,104.034 81,105.5C 80.6886,104.258 81.1886,103.258 82.5,102.5C 81.9649,100.739 80.9649,99.4057 79.5,98.5C 77.8868,98.9443 76.7202,99.9443 76,101.5C 73.8414,98.9194 73.3414,96.2527 74.5,93.5C 75.2679,92.7375 75.7679,91.7375 76,90.5C 76.7246,92.9494 77.7246,95.2827 79,97.5C 78.9135,94.0562 78.0802,90.7228 76.5,87.5C 77.1831,84.5386 78.0164,84.2053 79,86.5C 79.3333,85.8333 79.6667,85.1667 80,84.5C 80.6667,85.8333 81.3333,87.1667 82,88.5C 82.6667,84.5 83.3333,84.5 84,88.5C 84.4978,86.4731 84.3311,84.4731 83.5,82.5C 83.8757,80.6171 84.8757,79.1171 86.5,78C 85.1667,77.3333 83.8333,77.3333 82.5,78C 81.994,80.6945 80.8273,82.1945 79,82.5C 78.5161,80.8225 77.6828,80.1558 76.5,80.5C 80.8922,75.1234 80.3922,74.4567 75,78.5C 74.5045,80.4727 74.3379,82.4727 74.5,84.5C 73.8333,84.8333 73.1667,85.1667 72.5,85.5C 72.3958,81.3902 73.7292,77.8902 76.5,75C 75.5842,74.7216 74.9175,74.2216 74.5,73.5C 74.8417,72.6618 75.5084,72.3284 76.5,72.5C 78.1898,72.1436 79.1898,71.1436 79.5,69.5 Z"/></g>
<g><path style="opacity:1" fill="#cfb5a0" d="M 76.5,80.5 C 75.8333,82.1667 75.1667,83.8333 74.5,85.5C 74.5,85.1667 74.5,84.8333 74.5,84.5C 74.3379,82.4727 74.5045,80.4727 75,78.5C 80.3922,74.4567 80.8922,75.1234 76.5,80.5 Z"/></g>
<g><path style="opacity:1" fill="#bea793" d="M 179.5,83.5 C 180.423,82.6971 181.423,82.5304 182.5,83C 180,86.1667 177.5,89.3333 175,92.5C 174.333,91.5 174.333,90.5 175,89.5C 177.127,87.8863 178.627,85.8863 179.5,83.5 Z"/></g>
<g><path style="opacity:1" fill="#bba593" d="M 179.5,83.5 C 177.871,84.6253 176.371,85.9586 175,87.5C 174.333,86.8333 174.333,86.1667 175,85.5C 176.685,83.9825 178.185,82.3159 179.5,80.5C 180.087,81.2334 180.087,82.2334 179.5,83.5 Z"/></g>
<g><path style="opacity:1" fill="#9d8673" d="M 74.5,93.5 C 73.3697,90.8033 73.3697,88.1367 74.5,85.5C 75.1667,83.8333 75.8333,82.1667 76.5,80.5C 77.6828,80.1558 78.5161,80.8225 79,82.5C 80.8273,82.1945 81.994,80.6945 82.5,78C 83.8333,77.3333 85.1667,77.3333 86.5,78C 84.8757,79.1171 83.8757,80.6171 83.5,82.5C 84.3311,84.4731 84.4978,86.4731 84,88.5C 83.3333,84.5 82.6667,84.5 82,88.5C 81.3333,87.1667 80.6667,85.8333 80,84.5C 79.6667,85.1667 79.3333,85.8333 79,86.5C 78.0164,84.2053 77.1831,84.5386 76.5,87.5C 78.0802,90.7228 78.9135,94.0562 79,97.5C 77.7246,95.2827 76.7246,92.9494 76,90.5C 75.7679,91.7375 75.2679,92.7375 74.5,93.5 Z"/></g>
<g><path style="opacity:1" fill="#8c735c" d="M 169.5,80.5 C 170.568,81.4345 171.901,81.7678 173.5,81.5C 173.5,82.5 173.5,83.5 173.5,84.5C 168.417,82.824 163.083,81.6573 157.5,81C 161.486,80.5012 165.486,80.3345 169.5,80.5 Z"/></g>
<g><path style="opacity:1" fill="#c5ad98" d="M 93.5,79.5 C 93.5,80.1667 93.5,80.8333 93.5,81.5C 91.5294,88.1094 91.1961,94.776 92.5,101.5C 92.628,103.655 92.128,105.655 91,107.5C 90.7216,106.584 90.2216,105.918 89.5,105.5C 89.6686,100.819 90.0019,96.1522 90.5,91.5C 90.3899,87.9998 89.5566,84.6665 88,81.5C 87.6667,82.5 87.3333,83.5 87,84.5C 86.6905,83.2341 86.1905,82.0674 85.5,81C 87.6921,78.2138 90.3588,77.7138 93.5,79.5 Z"/></g>
<g><path style="opacity:1" fill="#9b8470" d="M 197.5,71.5 C 197.401,75.6971 197.401,79.3637 197.5,82.5C 196.696,83.3865 196.029,85.0532 195.5,87.5C 194.28,87.1131 193.613,86.2798 193.5,85C 196.51,80.1733 195.177,77.0067 189.5,75.5C 189.331,76.3966 188.998,77.3966 188.5,78.5C 187.5,77.8333 186.5,77.1667 185.5,76.5C 184.994,79.2505 183.66,79.0838 181.5,76C 185.295,74.2453 189.128,73.7453 193,74.5C 194.623,73.4962 196.123,72.4962 197.5,71.5 Z"/></g>
<g><path style="opacity:1" fill="#e5ccb3" d="M 87.5,74.5 C 115.658,79.708 143.991,80.708 172.5,77.5C 173.5,77.8333 174.5,78.1667 175.5,78.5C 173.977,80.2825 171.977,80.9492 169.5,80.5C 165.486,80.3345 161.486,80.5012 157.5,81C 163.083,81.6573 168.417,82.824 173.5,84.5C 173.5,85.8333 173.5,87.1667 173.5,88.5C 172.833,95.3447 172.167,102.345 171.5,109.5C 170.672,104.868 170.172,100.202 170,95.5C 168.743,101.769 168.243,108.102 168.5,114.5C 167.624,114.631 166.957,114.298 166.5,113.5C 167.626,107.218 167.793,100.885 167,94.5C 166.07,99.7993 165.403,105.133 165,110.5C 164.617,111.056 164.117,111.389 163.5,111.5C 164.463,107.204 164.629,102.871 164,98.5C 163.121,101.818 162.287,105.152 161.5,108.5C 160.376,103.279 159.542,103.279 159,108.5C 158.667,107.833 158.333,107.167 158,106.5C 155.629,109.52 152.462,111.02 148.5,111C 150.167,111.333 151.833,111.667 153.5,112C 150.207,112.826 146.874,113.326 143.5,113.5C 142.527,113.987 141.527,114.487 140.5,115C 142.167,115.333 143.833,115.667 145.5,116C 141.179,116.499 136.846,116.666 132.5,116.5C 122.403,116.818 112.403,115.985 102.5,114C 96.9697,112.999 92.303,111.499 88.5,109.5C 89.4345,108.432 89.7678,107.099 89.5,105.5C 90.2216,105.918 90.7216,106.584 91,107.5C 92.128,105.655 92.628,103.655 92.5,101.5C 93.331,94.8689 93.6643,88.2022 93.5,81.5C 93.5,80.8333 93.5,80.1667 93.5,79.5C 94.552,79.6495 95.552,79.4828 96.5,79C 92.7302,78.1322 89.0636,76.9655 85.5,75.5C 85.9569,74.7025 86.6236,74.3691 87.5,74.5 Z"/></g>
<g><path style="opacity:1" fill="#c9b4a3" d="M 177.5,77.5 C 179.456,76.1988 181.123,76.6988 182.5,79C 180.718,79.1218 179.052,78.6218 177.5,77.5 Z"/></g>
<g><path style="opacity:1" fill="#e2cab7" d="M 74.5,73.5 C 74.9175,74.2216 75.5842,74.7216 76.5,75C 73.7292,77.8902 72.3958,81.3902 72.5,85.5C 72.6633,87.8568 72.4966,90.1902 72,92.5C 71.51,91.2068 71.3433,89.8734 71.5,88.5C 71.1718,83.1254 71.5052,77.7921 72.5,72.5C 73.1835,72.8627 73.8501,73.1961 74.5,73.5 Z"/></g>
<g><path style="opacity:1" fill="#8d7665" d="M 76.5,72.5 C 75.5084,72.3284 74.8417,72.6618 74.5,73.5C 73.8501,73.1961 73.1835,72.8627 72.5,72.5C 71.5052,77.7921 71.1718,83.1254 71.5,88.5C 70.5665,82.3098 70.2331,76.1432 70.5,70C 72.8212,69.992 74.8212,70.8253 76.5,72.5 Z"/></g>
<g><path style="opacity:1" fill="#957b66" d="M 189.5,61.5 C 189.833,61.5 190.167,61.5 190.5,61.5C 190.804,63.7957 191.804,64.129 193.5,62.5C 195.626,63.1032 197.959,63.1032 200.5,62.5C 200.784,64.4147 200.451,66.0813 199.5,67.5C 199.38,66.4138 198.713,65.7472 197.5,65.5C 195.218,66.2234 192.884,66.5567 190.5,66.5C 191.263,65.7321 192.263,65.2321 193.5,65C 192.207,64.51 190.873,64.3433 189.5,64.5C 189.5,63.5 189.5,62.5 189.5,61.5 Z"/></g>
<g><path style="opacity:1" fill="#e0c7af" d="M 205.5,59.5 C 205.151,56.3583 204.984,53.025 205,49.5C 204.118,52.7895 203.452,56.1228 203,59.5C 202.667,57.8333 202.333,56.1667 202,54.5C 201.752,59.7351 198.919,62.4018 193.5,62.5C 191.804,64.129 190.804,63.7957 190.5,61.5C 190.833,58.1667 191.167,54.8333 191.5,51.5C 192.825,52.9526 193.658,52.6192 194,50.5C 194.495,48.5273 194.662,46.5273 194.5,44.5C 195.552,44.6495 196.552,44.4828 197.5,44C 196.099,43.5899 194.766,43.0899 193.5,42.5C 194.648,41.8359 195.981,41.6692 197.5,42C 196.167,41 194.833,40 193.5,39C 193.833,38.8333 194.167,38.6667 194.5,38.5C 200.515,41.1641 200.849,40.6641 195.5,37C 195.833,36.6667 196.167,36.3333 196.5,36C 193.28,36.8051 189.946,37.6384 186.5,38.5C 185.584,38.4573 184.917,38.1239 184.5,37.5C 185.167,36.5 185.833,35.5 186.5,34.5C 187.151,35.0906 187.818,35.7573 188.5,36.5C 189.134,34.4332 190.134,32.5998 191.5,31C 190.333,30.5 189.5,29.6667 189,28.5C 188.583,29.756 187.75,30.4226 186.5,30.5C 186.414,29.5041 186.748,28.6708 187.5,28C 174.862,29.4967 162.196,31.1634 149.5,33C 155.167,33.2417 160.833,33.0751 166.5,32.5C 167.413,37.7402 168.413,37.7402 169.5,32.5C 170.298,34.0777 170.798,35.7444 171,37.5C 171.002,34.9488 171.836,32.9488 173.5,31.5C 173.5,32.1667 173.5,32.8333 173.5,33.5C 173.5,35.8333 173.5,38.1667 173.5,40.5C 164.857,41.6639 156.19,42.8306 147.5,44C 157.223,44.454 166.89,44.1207 176.5,43C 175.747,44.487 174.914,44.6537 174,43.5C 173.405,44.8989 173.572,46.2322 174.5,47.5C 172.157,48.2749 169.823,48.9416 167.5,49.5C 155.181,50.2525 142.848,50.5858 130.5,50.5C 122.493,50.6664 114.493,50.4997 106.5,50C 106.957,49.586 107.291,49.086 107.5,48.5C 113.194,47.7934 118.861,46.96 124.5,46C 122.866,45.5065 121.199,45.3398 119.5,45.5C 119.665,42.4816 119.498,39.4816 119,36.5C 119.07,39.992 118.237,42.992 116.5,45.5C 116.5,44.1667 116.5,42.8333 116.5,41.5C 116.042,38.6062 116.709,36.1062 118.5,34C 106.252,32.6763 94.0853,30.843 82,28.5C 81.228,28.6448 80.5613,28.9781 80,29.5C 79,28.5 78,27.5 77,26.5C 74.6794,29.0583 74.3461,31.725 76,34.5C 76.3333,34.1667 76.6667,33.8333 77,33.5C 77.6839,35.359 78.6839,37.0257 80,38.5C 80.3176,36.9391 81.1509,35.7724 82.5,35C 81.5494,34.2825 81.3828,33.4491 82,32.5C 83.1937,34.6234 83.8603,36.9568 84,39.5C 86.4455,33.2182 87.7788,33.8849 88,41.5C 88.6548,37.9311 89.1548,34.5977 89.5,31.5C 90.3236,34.7848 90.8236,38.1182 91,41.5C 92.0796,38.3855 92.2463,35.3855 91.5,32.5C 93.1667,32.5 94.8333,32.5 96.5,32.5C 96.5,34.1667 96.5,35.8333 96.5,37.5C 95.0549,39.5707 94.0549,41.904 93.5,44.5C 88.3026,43.9505 83.3026,42.6171 78.5,40.5C 76.4457,42.1938 74.1123,43.3605 71.5,44C 72.428,44.3879 73.0946,45.0546 73.5,46C 71.8733,50.0506 71.3733,54.2172 72,58.5C 72.4189,54.1482 73.0855,53.8149 74,57.5C 75.3103,53.8258 75.477,50.1591 74.5,46.5C 76.7508,44.974 79.2508,43.974 82,43.5C 83.033,43.5481 83.3663,43.8814 83,44.5C 81.8289,45.8932 80.3289,46.7265 78.5,47C 80.7249,48.1306 83.0583,48.9639 85.5,49.5C 86.739,47.7342 88.9057,46.4009 92,45.5C 93.8882,45.796 95.7216,46.296 97.5,47C 94.9723,49.0574 91.9723,50.0574 88.5,50C 92.0257,51.3368 95.6924,51.8368 99.5,51.5C 99.3367,53.8568 99.5034,56.1902 100,58.5C 101.319,56.7505 101.819,54.7505 101.5,52.5C 123.537,52.8325 145.537,52.1659 167.5,50.5C 172.453,49.5891 177.453,48.9224 182.5,48.5C 185.376,47.1968 188.376,46.6968 191.5,47C 190.944,47.3826 190.611,47.8826 190.5,48.5C 189.8,52.7978 189.467,57.1311 189.5,61.5C 189.5,62.5 189.5,63.5 189.5,64.5C 190.873,64.3433 192.207,64.51 193.5,65C 192.263,65.2321 191.263,65.7321 190.5,66.5C 192.884,66.5567 195.218,66.2234 197.5,65.5C 198.713,65.7472 199.38,66.4138 199.5,67.5C 172.354,75.0681 144.688,77.5681 116.5,75C 104.77,73.9194 93.1036,72.4194 81.5,70.5C 81.1583,69.6618 80.4916,69.3284 79.5,69.5C 74.19,68.5628 69.19,66.7295 64.5,64C 62.0424,62.2125 60.3758,59.8792 59.5,57C 60.7702,51.1484 62.1035,45.3151 63.5,39.5C 64.914,38.376 66.414,37.376 68,36.5C 70.9425,30.2819 73.6091,23.9485 76,17.5C 80.7545,13.3502 86.2545,10.5169 92.5,9C 116.325,4.31861 140.325,3.31861 164.5,6C 172.789,7.40497 180.789,9.73831 188.5,13C 190.09,14.0458 191.59,15.2125 193,16.5C 195.481,22.2868 198.147,27.9535 201,33.5C 202.981,35.6575 205.314,37.3241 208,38.5C 208.671,44.3566 209.504,50.1899 210.5,56C 209.918,61.2549 207.085,64.7549 202,66.5C 201.333,65.5 201.333,64.5 202,63.5C 202.333,63.8333 202.667,64.1667 203,64.5C 203.847,62.8068 204.68,61.1401 205.5,59.5 Z"/></g>
<g><path style="opacity:1" fill="#543b27" d="M 75.5,66.5 C 75.9169,65.8761 76.5836,65.5427 77.5,65.5C 83.6642,67.6996 89.9975,69.1996 96.5,70C 89.2581,70.423 82.2581,69.2563 75.5,66.5 Z"/></g>
<g><path style="opacity:1" fill="#4d3320" d="M 190.5,66.5 C 179.518,69.8561 168.185,71.3561 156.5,71C 167.855,69.5615 179.188,68.0615 190.5,66.5 Z"/></g>
<g><path style="opacity:1" fill="#4b3321" d="M 205.5,59.5 C 206.252,56.2527 206.752,52.9194 207,49.5C 207.167,51.1667 207.333,52.8333 207.5,54.5C 207.444,56.6397 206.777,58.3064 205.5,59.5 Z"/></g>
<g><path style="opacity:1" fill="#563c2b" d="M 190.5,48.5 C 191.404,49.209 191.737,50.209 191.5,51.5C 191.167,54.8333 190.833,58.1667 190.5,61.5C 190.167,61.5 189.833,61.5 189.5,61.5C 189.467,57.1311 189.8,52.7978 190.5,48.5 Z"/></g>
<g><path style="opacity:1" fill="#624833" d="M 187.5,49.5 C 188.774,53.0742 188.607,56.7409 187,60.5C 186.322,56.7789 186.489,53.1122 187.5,49.5 Z"/></g>
<g><path style="opacity:1" fill="#9f8570" d="M 130.5,50.5 C 121.638,51.4549 112.805,51.7882 104,51.5C 104.019,49.8925 104.185,48.2259 104.5,46.5C 108.702,46.8168 112.702,46.4834 116.5,45.5C 118.237,42.992 119.07,39.992 119,36.5C 119.498,39.4816 119.665,42.4816 119.5,45.5C 121.199,45.3398 122.866,45.5065 124.5,46C 118.861,46.96 113.194,47.7934 107.5,48.5C 107.291,49.086 106.957,49.586 106.5,50C 114.493,50.4997 122.493,50.6664 130.5,50.5 Z"/></g>
<g><path style="opacity:1" fill="#563d28" d="M 66.5,46.5 C 67.2216,46.0825 67.7216,45.4158 68,44.5C 67.8064,48.9466 66.8064,53.2799 65,57.5C 65.0032,53.8036 65.5032,50.1369 66.5,46.5 Z"/></g>
<g><path style="opacity:1" fill="#5a4330" d="M 70.5,45.5 C 71.709,47.4346 71.5423,49.4346 70,51.5C 69.3224,49.4024 69.4891,47.4024 70.5,45.5 Z"/></g>
<g><path style="opacity:1" fill="#a38872" d="M 193.5,42.5 C 194.766,43.0899 196.099,43.5899 197.5,44C 196.552,44.4828 195.552,44.6495 194.5,44.5C 194.662,46.5273 194.495,48.5273 194,50.5C 193.658,52.6192 192.825,52.9526 191.5,51.5C 191.737,50.209 191.404,49.209 190.5,48.5C 190.611,47.8826 190.944,47.3826 191.5,47C 188.376,46.6968 185.376,47.1968 182.5,48.5C 181.282,47.8386 179.949,47.1719 178.5,46.5C 179.233,45.913 180.233,45.913 181.5,46.5C 184.522,46.196 187.522,45.696 190.5,45C 192.119,44.7645 193.119,43.9311 193.5,42.5 Z"/></g>
<g><path style="opacity:1" fill="#725944" d="M 173.5,40.5 C 175.167,41.1667 176.833,41.8333 178.5,42.5C 179.5,43.8333 180.5,45.1667 181.5,46.5C 180.233,45.913 179.233,45.913 178.5,46.5C 179.949,47.1719 181.282,47.8386 182.5,48.5C 177.453,48.9224 172.453,49.5891 167.5,50.5C 167.5,50.1667 167.5,49.8333 167.5,49.5C 169.823,48.9416 172.157,48.2749 174.5,47.5C 173.572,46.2322 173.405,44.8989 174,43.5C 174.914,44.6537 175.747,44.487 176.5,43C 166.89,44.1207 157.223,44.454 147.5,44C 156.19,42.8306 164.857,41.6639 173.5,40.5 Z"/></g>
<g><path style="opacity:1" fill="#604732" d="M 66.5,46.5 C 65.7784,46.9175 65.2784,47.5842 65,48.5C 64.2937,46.0288 64.627,43.6954 66,41.5C 66.4935,43.1341 66.6602,44.8008 66.5,46.5 Z"/></g>
<g><path style="opacity:1" fill="#604733" d="M 93.5,44.5 C 100.476,45.2316 107.476,45.5649 114.5,45.5C 115.167,45.5 115.833,45.5 116.5,45.5C 112.702,46.4834 108.702,46.8168 104.5,46.5C 104.185,48.2259 104.019,49.8925 104,51.5C 112.805,51.7882 121.638,51.4549 130.5,50.5C 142.848,50.5858 155.181,50.2525 167.5,49.5C 167.5,49.8333 167.5,50.1667 167.5,50.5C 145.537,52.1659 123.537,52.8325 101.5,52.5C 101.819,54.7505 101.319,56.7505 100,58.5C 99.5034,56.1902 99.3367,53.8568 99.5,51.5C 95.6924,51.8368 92.0257,51.3368 88.5,50C 91.9723,50.0574 94.9723,49.0574 97.5,47C 95.7216,46.296 93.8882,45.796 92,45.5C 88.9057,46.4009 86.739,47.7342 85.5,49.5C 83.0583,48.9639 80.7249,48.1306 78.5,47C 80.3289,46.7265 81.8289,45.8932 83,44.5C 83.3663,43.8814 83.033,43.5481 82,43.5C 79.2508,43.974 76.7508,44.974 74.5,46.5C 75.477,50.1591 75.3103,53.8258 74,57.5C 73.0855,53.8149 72.4189,54.1482 72,58.5C 71.3733,54.2172 71.8733,50.0506 73.5,46C 73.0946,45.0546 72.428,44.3879 71.5,44C 74.1123,43.3605 76.4457,42.1938 78.5,40.5C 83.3026,42.6171 88.3026,43.9505 93.5,44.5 Z"/></g>
<g><path style="opacity:1" fill="#c1aa98" d="M 102.5,46.5 C 103.653,47.3132 103.653,48.3132 102.5,49.5C 101.635,50.5827 100.635,50.7494 99.5,50C 100.71,48.9609 101.71,47.7942 102.5,46.5 Z"/></g>
<g><path style="opacity:1" fill="#ddc3ae" d="M 193.5,42.5 C 193.119,43.9311 192.119,44.7645 190.5,45C 187.522,45.696 184.522,46.196 181.5,46.5C 180.5,45.1667 179.5,43.8333 178.5,42.5C 180.044,42.7031 181.378,43.3698 182.5,44.5C 182.833,44.3333 183.167,44.1667 183.5,44C 181.073,42.4455 181.073,41.2789 183.5,40.5C 184.695,40.3225 185.862,39.9891 187,39.5C 189.279,40.3914 191.446,41.3914 193.5,42.5 Z"/></g>
<g><path style="opacity:1" fill="#493120" d="M 185.5,30.5 C 185.833,30.5 186.167,30.5 186.5,30.5C 186.577,31.7498 187.244,32.5831 188.5,33C 187.584,33.2784 186.918,33.7784 186.5,34.5C 185.833,35.5 185.167,36.5 184.5,37.5C 182.217,36.9236 181.883,37.9236 183.5,40.5C 181.073,41.2789 181.073,42.4455 183.5,44C 183.167,44.1667 182.833,44.3333 182.5,44.5C 181.378,43.3698 180.044,42.7031 178.5,42.5C 176.833,41.8333 175.167,41.1667 173.5,40.5C 173.5,38.1667 173.5,35.8333 173.5,33.5C 174.674,35.8844 175.34,38.2177 175.5,40.5C 176.314,38.2338 176.814,35.9005 177,33.5C 178.019,35.2694 178.186,36.9361 177.5,38.5C 178.689,39.4287 180.022,39.762 181.5,39.5C 180.36,36.9752 179.693,34.3085 179.5,31.5C 179.833,31.5 180.167,31.5 180.5,31.5C 180.682,36.7937 181.182,36.7937 182,31.5C 182.914,35.1851 183.581,34.8518 184,30.5C 184.807,34.449 185.307,34.449 185.5,30.5 Z"/></g>
<g><path style="opacity:1" fill="#937a64" d="M 115.5,37.5 C 115.232,39.099 115.566,40.4324 116.5,41.5C 116.5,42.8333 116.5,44.1667 116.5,45.5C 115.833,45.5 115.167,45.5 114.5,45.5C 114.194,42.6146 114.527,39.9479 115.5,37.5 Z"/></g>
<g><path style="opacity:1" fill="#563f29" d="M 69.5,38.5 C 76.1779,40.8643 75.8446,42.031 68.5,42C 71.1667,41.3333 71.1667,40.6667 68.5,40C 69.056,39.6174 69.3893,39.1174 69.5,38.5 Z"/></g>
<g><path style="opacity:1" fill="#705743" d="M 193.5,42.5 C 191.446,41.3914 189.279,40.3914 187,39.5C 185.862,39.9891 184.695,40.3225 183.5,40.5C 181.883,37.9236 182.217,36.9236 184.5,37.5C 184.917,38.1239 185.584,38.4573 186.5,38.5C 189.946,37.6384 193.28,36.8051 196.5,36C 196.167,36.3333 195.833,36.6667 195.5,37C 200.849,40.6641 200.515,41.1641 194.5,38.5C 194.167,38.6667 193.833,38.8333 193.5,39C 194.833,40 196.167,41 197.5,42C 195.981,41.6692 194.648,41.8359 193.5,42.5 Z"/></g>
<g><path style="opacity:1" fill="#af9883" d="M 179.5,31.5 C 179.693,34.3085 180.36,36.9752 181.5,39.5C 180.022,39.762 178.689,39.4287 177.5,38.5C 178.186,36.9361 178.019,35.2694 177,33.5C 176.814,35.9005 176.314,38.2338 175.5,40.5C 175.34,38.2177 174.674,35.8844 173.5,33.5C 173.5,32.8333 173.5,32.1667 173.5,31.5C 175.653,30.4271 177.653,30.4271 179.5,31.5 Z"/></g>
<g><path style="opacity:1" fill="#e6ccb4" d="M 115.5,37.5 C 114.527,39.9479 114.194,42.6146 114.5,45.5C 107.476,45.5649 100.476,45.2316 93.5,44.5C 94.0549,41.904 95.0549,39.5707 96.5,37.5C 97.4345,36.4324 97.7678,35.099 97.5,33.5C 103.491,33.9657 109.491,34.299 115.5,34.5C 115.5,35.5 115.5,36.5 115.5,37.5 Z"/></g>
<g><path style="opacity:1" fill="#725b47" d="M 186.5,34.5 C 186.918,33.7784 187.584,33.2784 188.5,33C 187.244,32.5831 186.577,31.7498 186.5,30.5C 187.75,30.4226 188.583,29.756 189,28.5C 189.5,29.6667 190.333,30.5 191.5,31C 190.134,32.5998 189.134,34.4332 188.5,36.5C 187.818,35.7573 187.151,35.0906 186.5,34.5 Z"/></g>
<g><path style="opacity:1" fill="#b7a08e" d="M 185.5,30.5 C 185.307,34.449 184.807,34.449 184,30.5C 183.581,34.8518 182.914,35.1851 182,31.5C 181.182,36.7937 180.682,36.7937 180.5,31.5C 180.791,30.3509 181.624,29.6842 183,29.5C 184.07,29.528 184.903,29.8614 185.5,30.5 Z"/></g>
<g><path style="opacity:1" fill="#5d4331" d="M 116.5,41.5 C 115.566,40.4324 115.232,39.099 115.5,37.5C 115.5,36.5 115.5,35.5 115.5,34.5C 109.491,34.299 103.491,33.9657 97.5,33.5C 97.7678,35.099 97.4345,36.4324 96.5,37.5C 96.5,35.8333 96.5,34.1667 96.5,32.5C 94.8333,32.5 93.1667,32.5 91.5,32.5C 92.2463,35.3855 92.0796,38.3855 91,41.5C 90.8236,38.1182 90.3236,34.7848 89.5,31.5C 89.1548,34.5977 88.6548,37.9311 88,41.5C 87.7788,33.8849 86.4455,33.2182 84,39.5C 83.8603,36.9568 83.1937,34.6234 82,32.5C 81.3828,33.4491 81.5494,34.2825 82.5,35C 81.1509,35.7724 80.3176,36.9391 80,38.5C 78.6839,37.0257 77.6839,35.359 77,33.5C 76.6667,33.8333 76.3333,34.1667 76,34.5C 74.3461,31.725 74.6794,29.0583 77,26.5C 78,27.5 79,28.5 80,29.5C 80.5613,28.9781 81.228,28.6448 82,28.5C 94.0853,30.843 106.252,32.6763 118.5,34C 116.709,36.1062 116.042,38.6062 116.5,41.5 Z"/></g>
<g><path style="opacity:1" fill="#6c523d" d="M 186.5,30.5 C 186.167,30.5 185.833,30.5 185.5,30.5C 184.903,29.8614 184.07,29.528 183,29.5C 181.624,29.6842 180.791,30.3509 180.5,31.5C 180.167,31.5 179.833,31.5 179.5,31.5C 177.653,30.4271 175.653,30.4271 173.5,31.5C 171.836,32.9488 171.002,34.9488 171,37.5C 170.798,35.7444 170.298,34.0777 169.5,32.5C 168.413,37.7402 167.413,37.7402 166.5,32.5C 160.833,33.0751 155.167,33.2417 149.5,33C 162.196,31.1634 174.862,29.4967 187.5,28C 186.748,28.6708 186.414,29.5041 186.5,30.5 Z"/></g>
<g><path style="opacity:1" fill="#cab09f" d="M 85.5,30.5 C 87.4646,30.9483 87.7979,31.9483 86.5,33.5C 85.6143,32.675 85.281,31.675 85.5,30.5 Z"/></g>
<g><path style="opacity:1" fill="#664e3b" d="M 102.5,24.5 C 110.833,25.1667 119.167,25.8333 127.5,26.5C 120.492,26.3337 113.492,26.5004 106.5,27C 111.774,27.813 111.774,28.313 106.5,28.5C 104.077,28.4057 101.744,27.9057 99.5,27C 100.691,26.3021 101.691,25.4687 102.5,24.5 Z"/></g>
<g><path style="opacity:1" fill="#634a33" d="M 85.5,20.5 C 87.531,21.9148 88.3643,23.9148 88,26.5C 85.9614,25.0217 85.1281,23.0217 85.5,20.5 Z"/></g>
<g><path style="opacity:1" fill="#573d28" d="M 84.5,13.5 C 85.8734,13.3433 87.2068,13.51 88.5,14C 84.4833,15.0314 81.3166,17.198 79,20.5C 78.3333,19.5 78.3333,18.5 79,17.5C 80.8121,16.0229 82.6455,14.6896 84.5,13.5 Z"/></g>
<g><path style="opacity:1" fill="#422b1a" d="M 93.5,14.5 C 96.1873,14.3359 98.854,14.5026 101.5,15C 99.5421,17.7482 97.7088,20.5815 96,23.5C 91.9598,26.513 89.7932,25.3463 89.5,20C 89.9009,17.44 91.2342,15.6066 93.5,14.5 Z"/></g>
<g><path style="opacity:1" fill="#e0c7b3" d="M 91.5,18.5 C 97.3207,17.7509 97.9874,19.4176 93.5,23.5C 91.7826,22.3315 91.1159,20.6648 91.5,18.5 Z"/></g>
<g><path style="opacity:1" fill="#3a2416" d="M 127.5,26.5 C 119.167,25.8333 110.833,25.1667 102.5,24.5C 103.351,22.1184 104.684,20.1184 106.5,18.5C 107.254,15.909 108.921,14.0757 111.5,13C 131.833,12.3333 152.167,12.3333 172.5,13C 175.232,13.413 177.899,14.0797 180.5,15C 184.306,16.3955 185.306,18.8955 183.5,22.5C 181.887,23.4274 180.221,24.2607 178.5,25C 161.532,26.3564 144.532,26.8564 127.5,26.5 Z"/></g>
<g><path style="opacity:1" fill="#bea695" d="M 161.5,20.5 C 161.947,23.5239 162.78,23.8572 164,21.5C 164.674,22.5784 165.674,23.2451 167,23.5C 168.935,22.6569 170.769,22.6569 172.5,23.5C 166.202,24.4963 159.868,24.8297 153.5,24.5C 153.393,22.6214 153.893,22.2881 155,23.5C 155.278,22.5842 155.778,21.9175 156.5,21.5C 157.281,23.3223 158.448,23.9889 160,23.5C 160.492,22.451 160.326,21.451 159.5,20.5C 159.97,19.537 160.637,19.537 161.5,20.5 Z"/></g>
<g><path style="opacity:1" fill="#e2c9b2" d="M 128.5,16.5 C 132.179,16.0604 135.512,16.727 138.5,18.5C 138.225,20.8418 137.392,20.8418 136,18.5C 135.751,20.668 136.584,22.3347 138.5,23.5C 127.326,24.824 115.993,24.824 104.5,23.5C 105.456,21.9246 106.123,20.258 106.5,18.5C 107.458,18.0472 108.292,17.3805 109,16.5C 115.397,16.7766 121.897,16.7766 128.5,16.5 Z"/></g>
<g><path style="opacity:1" fill="#725a4a" d="M 149.5,16.5 C 153.424,15.9969 155.757,17.6636 156.5,21.5C 155.778,21.9175 155.278,22.5842 155,23.5C 153.893,22.2881 153.393,22.6214 153.5,24.5C 153.167,24.5 152.833,24.5 152.5,24.5C 150.957,22.0722 149.957,19.4056 149.5,16.5 Z"/></g>
<g><path style="opacity:1" fill="#8f7763" d="M 149.5,23.5 C 145.935,24.7866 142.268,24.7866 138.5,23.5C 136.584,22.3347 135.751,20.668 136,18.5C 137.392,20.8418 138.225,20.8418 138.5,18.5C 138.369,17.7611 138.536,17.0944 139,16.5C 139.741,17.6405 140.575,17.6405 141.5,16.5C 143,18.8333 144.5,21.1667 146,23.5C 146.333,22.8333 146.667,22.1667 147,21.5C 147.708,22.3805 148.542,23.0472 149.5,23.5 Z"/></g>
<g><path style="opacity:1" fill="#6e5849" d="M 161.5,20.5 C 163.369,18.3477 165.869,17.0144 169,16.5C 170.261,16.7591 171.261,17.4258 172,18.5C 174.333,18.5 176.667,18.5 179,18.5C 180.205,19.0712 181.372,19.7379 182.5,20.5C 182.192,21.3081 181.692,21.9747 181,22.5C 178.879,21.8975 176.546,20.8975 174,19.5C 171.36,20.1162 168.694,19.7829 166,18.5C 165.667,19.1667 165.333,19.8333 165,20.5C 164.014,19.8288 162.847,19.8288 161.5,20.5 Z"/></g>
<g><path style="opacity:1" fill="#d9c2b0" d="M 148.5,16.5 C 148.833,16.5 149.167,16.5 149.5,16.5C 149.957,19.4056 150.957,22.0722 152.5,24.5C 151.391,24.4431 150.391,24.1098 149.5,23.5C 148.914,21.1602 147.914,18.9935 146.5,17C 147.094,16.5357 147.761,16.369 148.5,16.5 Z"/></g>
<g><path style="opacity:1" fill="#66503f" d="M 148.5,16.5 C 147.761,16.369 147.094,16.5357 146.5,17C 147.914,18.9935 148.914,21.1602 149.5,23.5C 148.542,23.0472 147.708,22.3805 147,21.5C 146.667,22.1667 146.333,22.8333 146,23.5C 144.5,21.1667 143,18.8333 141.5,16.5C 140.575,17.6405 139.741,17.6405 139,16.5C 138.536,17.0944 138.369,17.7611 138.5,18.5C 135.512,16.727 132.179,16.0604 128.5,16.5C 129.134,15.0532 130.301,14.3866 132,14.5C 140.484,15.1964 148.984,15.3631 157.5,15C 154.305,15.1805 151.305,15.6805 148.5,16.5 Z"/></g>
<g><path style="opacity:1" fill="#503825" d="M 171.5,11.5 C 176.791,10.5693 181.791,11.736 186.5,15C 181.71,13.3876 176.71,12.2209 171.5,11.5 Z"/></g>
<g><path style="opacity:1" fill="#785d46" d="M 108.5,8.5 C 112.514,8.33449 116.514,8.50115 120.5,9C 116.289,10.5339 111.956,10.8673 107.5,10C 108.056,9.61742 108.389,9.11742 108.5,8.5 Z"/></g>
<g><path style="opacity:1" fill="#7a604d" d="M 168.5,114.5 C 167.791,115.404 166.791,115.737 165.5,115.5C 165.715,113.821 165.048,112.821 163.5,112.5C 163.5,112.167 163.5,111.833 163.5,111.5C 164.117,111.389 164.617,111.056 165,110.5C 165.403,105.133 166.07,99.7993 167,94.5C 167.793,100.885 167.626,107.218 166.5,113.5C 166.957,114.298 167.624,114.631 168.5,114.5 Z"/></g>
<g><path style="opacity:1" fill="#412a19" d="M 182.5,110.5 C 181.167,109.167 179.833,109.167 178.5,110.5C 177.833,109.833 177.167,109.167 176.5,108.5C 176.716,105.744 177.716,103.41 179.5,101.5C 181.79,99.9671 182.456,100.3 181.5,102.5C 183.856,103.654 184.023,104.987 182,106.5C 181.331,103.972 180.498,103.972 179.5,106.5C 180.826,107.642 181.826,108.976 182.5,110.5 Z"/></g>
<g><path style="opacity:1" fill="#523826" d="M 163.5,111.5 C 163.5,111.833 163.5,112.167 163.5,112.5C 162.842,111.602 162.176,110.602 161.5,109.5C 160.808,110.025 160.308,110.692 160,111.5C 159.107,110.289 158.274,110.289 157.5,111.5C 158.025,112.192 158.692,112.692 159.5,113C 154.046,114.551 148.712,114.718 143.5,113.5C 146.874,113.326 150.207,112.826 153.5,112C 151.833,111.667 150.167,111.333 148.5,111C 152.462,111.02 155.629,109.52 158,106.5C 158.333,107.167 158.667,107.833 159,108.5C 159.542,103.279 160.376,103.279 161.5,108.5C 162.287,105.152 163.121,101.818 164,98.5C 164.629,102.871 164.463,107.204 163.5,111.5 Z"/></g>
<g><path style="opacity:1" fill="#705741" d="M 173.5,88.5 C 173.198,91.0593 173.532,93.3926 174.5,95.5C 174.216,98.7766 174.549,101.943 175.5,105C 172.532,107.178 172.865,108.344 176.5,108.5C 177.167,109.167 177.833,109.833 178.5,110.5C 175.81,110.661 172.81,110.661 169.5,110.5C 169.5,111.833 169.5,113.167 169.5,114.5C 169.167,114.5 168.833,114.5 168.5,114.5C 168.243,108.102 168.743,101.769 170,95.5C 170.172,100.202 170.672,104.868 171.5,109.5C 172.167,102.345 172.833,95.3447 173.5,88.5 Z"/></g>
<g><path style="opacity:1" fill="#b8a391" d="M 191.5,108.5 C 189.021,109.795 186.354,110.795 183.5,111.5C 183.604,109.027 184.604,108.361 186.5,109.5C 187.333,108.5 188.167,107.5 189,106.5C 189.708,107.381 190.542,108.047 191.5,108.5 Z"/></g>
<g><path style="opacity:1" fill="#e4cbb2" d="M 195.5,175.5 C 196.643,172.024 196.81,168.358 196,164.5C 195.585,166.291 194.585,167.624 193,168.5C 192.333,171.5 192.333,174.5 193,177.5C 193.278,176.584 193.778,175.918 194.5,175.5C 194.799,177.604 194.466,179.604 193.5,181.5C 168.631,192.316 142.631,196.482 115.5,194C 101.677,192.294 88.0106,189.794 74.5,186.5C 74.5,184.833 74.5,183.167 74.5,181.5C 75.2679,180.737 75.7679,179.737 76,178.5C 76.3173,180.301 76.984,180.634 78,179.5C 78.1787,175.975 78.6787,172.641 79.5,169.5C 79.3359,172.187 79.5026,174.854 80,177.5C 80.3333,175.5 80.6667,173.5 81,171.5C 81.3215,182.05 82.1549,182.55 83.5,173C 82.2707,169.25 81.4374,165.417 81,161.5C 80.5172,162.448 80.3505,163.448 80.5,164.5C 79.6805,161.695 79.1805,158.695 79,155.5C 78.6667,156.833 78.3333,158.167 78,159.5C 76.9221,149.865 76.2554,140.199 76,130.5C 75.6667,133.167 75.3333,135.833 75,138.5C 74.6174,137.944 74.1174,137.611 73.5,137.5C 71.1928,135.906 71.1928,143.906 73.5,161.5C 73.1667,161.5 72.8333,161.5 72.5,161.5C 71.4767,146.673 70.4767,131.84 69.5,117C 69.8333,114.167 70.1667,111.333 70.5,108.5C 114.407,124.107 158.407,124.441 202.5,109.5C 201.211,132.512 199.711,155.512 198,178.5C 197.333,179.167 196.667,179.833 196,180.5C 195.506,178.866 195.34,177.199 195.5,175.5 Z"/></g>
<g><path style="opacity:1" fill="#7d6651" d="M 197.5,117.5 C 198.29,118.609 198.79,119.942 199,121.5C 199.333,120.833 199.667,120.167 200,119.5C 200.667,123.167 200.667,126.833 200,130.5C 199.138,128.913 198.471,127.246 198,125.5C 197.667,125.833 197.333,126.167 197,126.5C 196.505,123.469 196.671,120.469 197.5,117.5 Z"/></g>
<g><path style="opacity:1" fill="#351b0c" d="M 187.5,120.5 C 188.776,121.386 188.776,122.386 187.5,123.5C 186.438,122.575 186.438,121.575 187.5,120.5 Z"/></g>
<g><path style="opacity:1" fill="#5a3e30" d="M 192.5,118.5 C 193.613,119.946 193.78,121.613 193,123.5C 192.333,122.167 191.667,122.167 191,123.5C 190.36,121.457 190.86,119.79 192.5,118.5 Z"/></g>
<g><path style="opacity:1" fill="#745a48" d="M 76.5,114.5 C 77.8195,115.942 79.4862,116.608 81.5,116.5C 81.8495,119.045 81.0162,121.045 79,122.5C 78.0255,120.122 77.3589,120.456 77,123.5C 76.0855,119.815 75.4189,120.148 75,124.5C 72.7392,120.654 73.2392,117.32 76.5,114.5 Z"/></g>
<g><path style="opacity:1" fill="#c9b19e" d="M 163.5,112.5 C 165.048,112.821 165.715,113.821 165.5,115.5C 154.38,117.134 143.38,117.467 132.5,116.5C 136.846,116.666 141.179,116.499 145.5,116C 143.833,115.667 142.167,115.333 140.5,115C 141.527,114.487 142.527,113.987 143.5,113.5C 148.712,114.718 154.046,114.551 159.5,113C 158.692,112.692 158.025,112.192 157.5,111.5C 158.274,110.289 159.107,110.289 160,111.5C 160.308,110.692 160.808,110.025 161.5,109.5C 162.176,110.602 162.842,111.602 163.5,112.5 Z"/></g>
<g><path style="opacity:1" fill="#d6c0ac" d="M 182.5,110.5 C 182.5,110.833 182.5,111.167 182.5,111.5C 178.137,112.373 173.804,113.373 169.5,114.5C 169.5,113.167 169.5,111.833 169.5,110.5C 172.81,110.661 175.81,110.661 178.5,110.5C 179.833,109.167 181.167,109.167 182.5,110.5 Z"/></g>
<g><path style="opacity:1" fill="#a98f76" d="M 108.5,129.5 C 105.023,131.64 102.689,134.64 101.5,138.5C 101.337,136.143 101.503,133.81 102,131.5C 102.333,131.833 102.667,132.167 103,132.5C 104.264,130.393 106.097,129.393 108.5,129.5 Z"/></g>
<g><path style="opacity:1" fill="#907660" d="M 175.5,149.5 C 174.13,151.25 173.13,153.25 172.5,155.5C 172.665,151.336 172.165,147.003 171,142.5C 170.667,142.833 170.333,143.167 170,143.5C 167.95,141.112 165.616,139.112 163,137.5C 161.2,138.32 159.366,138.986 157.5,139.5C 158.058,138.21 159.058,137.377 160.5,137C 164.909,135.738 168.743,136.572 172,139.5C 173.46,142.748 174.626,146.081 175.5,149.5 Z"/></g>
<g><path style="opacity:1" fill="#e4cbb3" d="M 125.5,130.5 C 129.164,135.821 132.33,141.488 135,147.5C 135.667,152.833 135.667,158.167 135,163.5C 134.417,165.002 133.584,166.335 132.5,167.5C 131.571,168.55 130.905,168.55 130.5,167.5C 129.687,166.347 128.687,166.347 127.5,167.5C 125.896,163.657 124.729,159.657 124,155.5C 120.667,146.688 116.833,138.021 112.5,129.5C 116.981,128.147 121.314,128.48 125.5,130.5 Z"/></g>
<g><path style="opacity:1" fill="#927760" d="M 157.5,139.5 C 158.833,142.833 157.833,143.833 154.5,142.5C 155.167,141.167 156.167,140.167 157.5,139.5 Z"/></g>
<g><path style="opacity:1" fill="#4c3524" d="M 73.5,137.5 C 74.1989,145.475 74.6989,153.475 75,161.5C 75.3333,160.833 75.6667,160.167 76,159.5C 76.1667,161.667 76.3333,163.833 76.5,166C 76.6091,168.7 76.1091,171.2 75,173.5C 74.4987,169.49 73.9987,165.49 73.5,161.5C 71.1928,143.906 71.1928,135.906 73.5,137.5 Z"/></g>
<g><path style="opacity:1" fill="#e3cab2" d="M 108.5,129.5 C 109.043,129.56 109.376,129.893 109.5,130.5C 108.833,131.167 108.167,131.833 107.5,132.5C 111.371,133.141 112.038,134.641 109.5,137C 113.907,141.717 115.574,147.217 114.5,153.5C 115.325,154.386 116.325,154.719 117.5,154.5C 117.43,158.372 119.263,160.705 123,161.5C 124.202,163.677 124.702,166.011 124.5,168.5C 125.833,168.5 127.167,168.5 128.5,168.5C 127.852,170.586 126.352,171.586 124,171.5C 120.849,170.907 117.682,170.407 114.5,170C 113.529,168.519 112.196,167.685 110.5,167.5C 108.745,164.32 106.745,161.32 104.5,158.5C 104.54,155.575 103.707,152.909 102,150.5C 101.501,146.514 101.334,142.514 101.5,138.5C 102.689,134.64 105.023,131.64 108.5,129.5 Z"/></g>
<g><path style="opacity:1" fill="#654a34" d="M 154.5,142.5 C 153.738,144.262 152.404,145.262 150.5,145.5C 151.262,143.738 152.596,142.738 154.5,142.5 Z"/></g>
<g><path style="opacity:1" fill="#624731" d="M 150.5,145.5 C 148.471,147.858 146.471,150.192 144.5,152.5C 145.092,148.911 147.092,146.578 150.5,145.5 Z"/></g>
<g><path style="opacity:1" fill="#5a4230" d="M 125.5,130.5 C 121.314,128.48 116.981,128.147 112.5,129.5C 116.833,138.021 120.667,146.688 124,155.5C 124.729,159.657 125.896,163.657 127.5,167.5C 128.687,166.347 129.687,166.347 130.5,167.5C 129.833,167.833 129.167,168.167 128.5,168.5C 127.167,168.5 125.833,168.5 124.5,168.5C 124.702,166.011 124.202,163.677 123,161.5C 119.263,160.705 117.43,158.372 117.5,154.5C 116.325,154.719 115.325,154.386 114.5,153.5C 115.574,147.217 113.907,141.717 109.5,137C 112.038,134.641 111.371,133.141 107.5,132.5C 108.167,131.833 108.833,131.167 109.5,130.5C 109.376,129.893 109.043,129.56 108.5,129.5C 111.186,128.009 114.186,127.343 117.5,127.5C 119.5,127.667 121.5,127.833 123.5,128C 124.381,128.708 125.047,129.542 125.5,130.5 Z"/></g>
<g><path style="opacity:1" fill="#70553f" d="M 101.5,138.5 C 101.334,142.514 101.501,146.514 102,150.5C 103.707,152.909 104.54,155.575 104.5,158.5C 99.6338,152.292 98.6338,145.625 101.5,138.5 Z"/></g>
<g><path style="opacity:1" fill="#674f3e" d="M 175.5,149.5 C 175.665,153.182 175.499,156.848 175,160.5C 174.246,163.684 172.746,166.351 170.5,168.5C 170.869,166.559 171.536,164.725 172.5,163C 171.833,162.667 171.167,162.333 170.5,162C 171.244,160.185 171.911,158.352 172.5,156.5C 172.5,156.167 172.5,155.833 172.5,155.5C 173.13,153.25 174.13,151.25 175.5,149.5 Z"/></g>
<g><path style="opacity:1" fill="#634832" d="M 144.5,152.5 C 145.596,155.012 144.762,157.012 142,158.5C 141.992,156.179 142.825,154.179 144.5,152.5 Z"/></g>
<g><path style="opacity:1" fill="#8c7360" d="M 80.5,164.5 C 79.962,166.117 79.6287,167.784 79.5,169.5C 78.6787,172.641 78.1787,175.975 78,179.5C 76.984,180.634 76.3173,180.301 76,178.5C 75.7679,179.737 75.2679,180.737 74.5,181.5C 73.6462,174.899 72.9795,168.232 72.5,161.5C 72.8333,161.5 73.1667,161.5 73.5,161.5C 73.9987,165.49 74.4987,169.49 75,173.5C 76.1091,171.2 76.6091,168.7 76.5,166C 76.3333,163.833 76.1667,161.667 76,159.5C 75.6667,160.167 75.3333,160.833 75,161.5C 74.6989,153.475 74.1989,145.475 73.5,137.5C 74.1174,137.611 74.6174,137.944 75,138.5C 75.3333,135.833 75.6667,133.167 76,130.5C 76.2554,140.199 76.9221,149.865 78,159.5C 78.3333,158.167 78.6667,156.833 79,155.5C 79.1805,158.695 79.6805,161.695 80.5,164.5 Z"/></g>
<g><path style="opacity:1" fill="#694f37" d="M 104.5,158.5 C 106.745,161.32 108.745,164.32 110.5,167.5C 107.246,165.323 105.246,162.323 104.5,158.5 Z"/></g>
<g><path style="opacity:1" fill="#543d2b" d="M 143.5,179.5 C 142.058,178.18 141.392,176.514 141.5,174.5C 143.288,171.452 144.788,168.118 146,164.5C 147.441,163.13 149.108,162.13 151,161.5C 153.274,157.286 155.274,152.953 157,148.5C 159.818,147.191 161.984,145.191 163.5,142.5C 164.141,144.296 165.141,145.796 166.5,147C 164.19,148.637 162.69,150.804 162,153.5C 160.185,155.405 158.185,157.072 156,158.5C 151.807,165.563 147.641,172.563 143.5,179.5 Z"/></g>
<g><path style="opacity:1" fill="#644a38" d="M 79.5,169.5 C 79.6287,167.784 79.962,166.117 80.5,164.5C 80.3505,163.448 80.5172,162.448 81,161.5C 81.4374,165.417 82.2707,169.25 83.5,173C 82.1549,182.55 81.3215,182.05 81,171.5C 80.6667,173.5 80.3333,175.5 80,177.5C 79.5026,174.854 79.3359,172.187 79.5,169.5 Z"/></g>
<g><path style="opacity:1" fill="#6c513c" d="M 125.5,130.5 C 135.944,140.006 139.444,151.672 136,165.5C 133.869,169.47 130.702,172.137 126.5,173.5C 123.375,172.521 120.042,172.187 116.5,172.5C 113.911,171.581 111.911,169.914 110.5,167.5C 112.196,167.685 113.529,168.519 114.5,170C 117.682,170.407 120.849,170.907 124,171.5C 126.352,171.586 127.852,170.586 128.5,168.5C 129.167,168.167 129.833,167.833 130.5,167.5C 130.905,168.55 131.571,168.55 132.5,167.5C 133.584,166.335 134.417,165.002 135,163.5C 135.667,158.167 135.667,152.833 135,147.5C 132.33,141.488 129.164,135.821 125.5,130.5 Z"/></g>
<g><path style="opacity:1" fill="#6a5140" d="M 195.5,175.5 C 195.167,172.833 194.833,172.833 194.5,175.5C 193.778,175.918 193.278,176.584 193,177.5C 192.333,174.5 192.333,171.5 193,168.5C 194.585,167.624 195.585,166.291 196,164.5C 196.81,168.358 196.643,172.024 195.5,175.5 Z"/></g>
<g><path style="opacity:1" fill="#957e69" d="M 172.5,156.5 C 171.911,158.352 171.244,160.185 170.5,162C 171.167,162.333 171.833,162.667 172.5,163C 171.536,164.725 170.869,166.559 170.5,168.5C 170.672,169.492 170.338,170.158 169.5,170.5C 165.324,174.74 160.991,178.74 156.5,182.5C 154.833,182.5 153.167,182.5 151.5,182.5C 155.06,178.422 159.227,174.089 164,169.5C 164.748,167.668 165.748,166.001 167,164.5C 167.305,162.443 167.305,160.443 167,158.5C 168.779,161.276 169.779,160.943 170,157.5C 170.671,156.748 171.504,156.414 172.5,156.5 Z"/></g>
<g><path style="opacity:1" fill="#624734" d="M 190.5,170.5 C 191.802,173.107 191.636,175.773 190,178.5C 189.398,175.779 189.565,173.113 190.5,170.5 Z"/></g>
<g><path style="opacity:1" fill="#4c3222" d="M 116.5,172.5 C 120.042,172.187 123.375,172.521 126.5,173.5C 124.512,173.827 122.512,174.16 120.5,174.5C 118.645,174.66 117.312,173.993 116.5,172.5 Z"/></g>
<g><path style="opacity:1" fill="#543d29" d="M 169.5,170.5 C 167.066,176.602 162.733,180.602 156.5,182.5C 160.991,178.74 165.324,174.74 169.5,170.5 Z"/></g>
<g><path style="opacity:1" fill="#3c2512" d="M 85.5,171.5 C 87.3794,174.856 87.8794,178.523 87,182.5C 85.6632,178.974 85.1632,175.308 85.5,171.5 Z"/></g>
<g><path style="opacity:1" fill="#987c68" d="M 141.5,174.5 C 141.392,176.514 142.058,178.18 143.5,179.5C 142.209,179.263 141.209,179.596 140.5,180.5C 137.418,176.745 136.252,172.411 137,167.5C 138.049,170.187 139.549,172.52 141.5,174.5 Z"/></g>
<g><path style="opacity:1" fill="#765c48" d="M 184.5,173.5 C 185.638,176.304 185.805,179.304 185,182.5C 184.147,180.875 183.147,180.542 182,181.5C 181.833,180.667 181.667,179.833 181.5,179C 181.969,176.804 182.969,174.971 184.5,173.5 Z"/></g>
<g><path style="opacity:1" fill="#765b49" d="M 89.5,175.5 C 93.0907,177.81 94.2573,181.144 93,185.5C 92.7811,184.062 92.2811,182.729 91.5,181.5C 90.914,181.709 90.414,182.043 90,182.5C 89.5034,180.19 89.3367,177.857 89.5,175.5 Z"/></g>
<g><path style="opacity:1" fill="#6a503c" d="M 179.5,177.5 C 180.844,179.185 180.677,180.852 179,182.5C 178.36,180.735 178.527,179.068 179.5,177.5 Z"/></g>
<g><path style="opacity:1" fill="#624a37" d="M 143.5,179.5 C 145.532,180.907 147.699,182.24 150,183.5C 150.383,182.944 150.883,182.611 151.5,182.5C 153.167,182.5 154.833,182.5 156.5,182.5C 150.664,186.717 145.33,186.05 140.5,180.5C 141.209,179.596 142.209,179.263 143.5,179.5 Z"/></g>
<g><path style="opacity:1" fill="#785e47" d="M 176.5,179.5 C 177.434,180.568 177.768,181.901 177.5,183.5C 174.12,183.821 173.287,182.821 175,180.5C 176.087,182.932 176.587,182.598 176.5,179.5 Z"/></g>
<g><path style="opacity:1" fill="#593214" d="M 23.5,183.5 C 22.791,184.404 21.791,184.737 20.5,184.5C 21.7255,191.346 23.0588,198.18 24.5,205C 24.3333,206.833 24.1667,208.667 24,210.5C 23.6174,211.056 23.1174,211.389 22.5,211.5C 23.0139,209.383 23.3473,207.216 23.5,205C 21.4299,197.96 20.0965,190.794 19.5,183.5C 20.8333,183.5 22.1667,183.5 23.5,183.5 Z"/></g>
<g><path style="opacity:1" fill="#47311c" d="M 98.5,181.5 C 100.926,182.353 101.76,184.019 101,186.5C 100.333,185.167 99.6667,185.167 99,186.5C 98.5065,184.866 98.3398,183.199 98.5,181.5 Z"/></g>
<g><path style="opacity:1" fill="#43220a" d="M 253.5,184.5 C 254.919,183.549 256.585,183.216 258.5,183.5C 258.795,185.735 258.461,187.735 257.5,189.5C 257.5,187.833 257.5,186.167 257.5,184.5C 256.167,184.5 254.833,184.5 253.5,184.5 Z"/></g>
<g><path style="opacity:1" fill="#492514" d="M 28.5,186.5 C 32.1513,187.659 35.4846,189.326 38.5,191.5C 36.079,191.122 33.7457,190.455 31.5,189.5C 30.3065,188.728 29.3065,187.728 28.5,186.5 Z"/></g>
<g><path style="opacity:1" fill="#613b19" d="M 244.5,188.5 C 241.912,190.625 238.912,191.958 235.5,192.5C 238.088,190.375 241.088,189.042 244.5,188.5 Z"/></g>
<g><path style="opacity:1" fill="#4f2c16" d="M 38.5,191.5 C 40.5529,191.402 42.2196,192.069 43.5,193.5C 41.4471,193.598 39.7804,192.931 38.5,191.5 Z"/></g>
<g><path style="opacity:1" fill="#64432b" d="M 257.5,189.5 C 257.741,191.898 257.074,193.898 255.5,195.5C 255.259,193.102 255.926,191.102 257.5,189.5 Z"/></g>
<g><path style="opacity:1" fill="#a89280" d="M 98.5,195.5 C 98.5,196.5 98.5,197.5 98.5,198.5C 97.5416,198.047 96.7083,197.381 96,196.5C 94.8403,198.797 93.8403,198.464 93,195.5C 92.6582,197.619 91.8249,197.953 90.5,196.5C 88.1798,195.238 85.8465,194.238 83.5,193.5C 81.2458,194.714 80.9125,196.381 82.5,198.5C 80.631,196.365 79.9644,193.698 80.5,190.5C 86.704,191.55 92.704,193.217 98.5,195.5 Z"/></g>
<g><path style="opacity:1" fill="#432813" d="M 43.5,193.5 C 53.0455,195.646 62.7121,197.146 72.5,198C 73.9423,198.377 74.9423,199.21 75.5,200.5C 68.2888,198.79 60.9554,197.623 53.5,197C 49.8368,196.428 46.5035,195.262 43.5,193.5 Z"/></g>
<g><path style="opacity:1" fill="#705848" d="M 189.5,190.5 C 192.325,191.478 193.658,193.478 193.5,196.5C 192.833,196.5 192.167,196.5 191.5,196.5C 192.11,197.391 192.443,198.391 192.5,199.5C 191.577,198.697 190.577,198.53 189.5,199C 190.451,199.718 190.617,200.551 190,201.5C 188.429,199.077 186.263,197.744 183.5,197.5C 181.409,197.682 179.409,197.348 177.5,196.5C 176.396,197.631 176.729,198.465 178.5,199C 176.981,200.218 175.814,201.718 175,203.5C 175,202.167 175,200.833 175,199.5C 173.647,200.685 172.48,202.019 171.5,203.5C 170.735,202.388 169.735,201.721 168.5,201.5C 167.904,199.602 167.904,197.935 168.5,196.5C 169.815,195.524 171.148,194.524 172.5,193.5C 172.5,194.5 172.5,195.5 172.5,196.5C 173.719,195.737 174.719,194.737 175.5,193.5C 180.012,191.069 184.678,190.069 189.5,190.5 Z"/></g>
<g><path style="opacity:1" fill="#382111" d="M 191.5,196.5 C 190.883,196.611 190.383,196.944 190,197.5C 188.457,195.622 186.624,194.122 184.5,193C 185.416,192.626 186.25,192.126 187,191.5C 189.049,192.714 190.549,194.38 191.5,196.5 Z"/></g>
<g><path style="opacity:1" fill="#604123" d="M 235.5,192.5 C 228.864,196.248 221.864,197.581 214.5,196.5C 221.654,195.936 228.654,194.603 235.5,192.5 Z"/></g>
<g><path style="opacity:1" fill="#432d1f" d="M 90.5,196.5 C 89.4223,198.738 89.9223,200.738 92,202.5C 92.3333,201.833 92.6667,201.167 93,200.5C 95.929,203.751 96.0957,207.085 93.5,210.5C 93.8627,211.183 94.1961,211.85 94.5,212.5C 94.2753,215.546 92.942,217.879 90.5,219.5C 90.6716,218.508 90.3382,217.842 89.5,217.5C 89.8243,216.188 90.4909,215.355 91.5,215C 90.9706,213.441 90.304,211.941 89.5,210.5C 90.1667,210.167 90.8333,209.833 91.5,209.5C 90.316,207.954 89.316,206.287 88.5,204.5C 88.0894,205.262 87.9227,206.262 88,207.5C 87,206.167 86,206.167 85,207.5C 84.6886,206.258 85.1886,205.258 86.5,204.5C 85.6852,202.724 84.5185,202.057 83,202.5C 83.3308,200.981 83.1641,199.648 82.5,198.5C 80.9125,196.381 81.2458,194.714 83.5,193.5C 85.8465,194.238 88.1798,195.238 90.5,196.5 Z"/></g>
<g><path style="opacity:1" fill="#d1b9a5" d="M 98.5,195.5 C 115.042,198.122 131.709,199.122 148.5,198.5C 151.797,198.329 152.131,198.995 149.5,200.5C 148.914,200.291 148.414,199.957 148,199.5C 142.4,200.146 136.9,200.813 131.5,201.5C 130.178,201.67 129.011,201.337 128,200.5C 126.933,201.191 125.766,201.691 124.5,202C 125.167,202.333 125.833,202.667 126.5,203C 124.613,203.78 122.946,203.613 121.5,202.5C 117.227,200.744 112.894,200.41 108.5,201.5C 106.565,200.85 104.565,200.517 102.5,200.5C 101.329,199.655 99.9952,198.989 98.5,198.5C 98.5,197.5 98.5,196.5 98.5,195.5 Z"/></g>
<g><path style="opacity:1" fill="#dbc4ae" d="M 168.5,196.5 C 167.904,197.935 167.904,199.602 168.5,201.5C 167.902,208.632 167.235,215.632 166.5,222.5C 165.5,222.5 164.5,222.5 163.5,222.5C 163.653,218.337 164.653,214.504 166.5,211C 165.703,207.255 165.203,203.421 165,199.5C 164.781,200.938 164.281,202.271 163.5,203.5C 163.81,201.799 163.31,200.132 162,198.5C 161,201.167 160,201.167 159,198.5C 158.692,199.308 158.192,199.975 157.5,200.5C 155.997,199.948 154.331,199.948 152.5,200.5C 152.5,199.5 152.5,198.5 152.5,197.5C 157.183,196.998 161.85,196.331 166.5,195.5C 167.416,195.543 168.083,195.876 168.5,196.5 Z"/></g>
<g><path style="opacity:1" fill="#62391b" d="M 209.5,197.5 C 210.239,197.369 210.906,197.536 211.5,198C 207.82,198.348 204.486,199.515 201.5,201.5C 203.315,198.593 205.981,197.259 209.5,197.5 Z"/></g>
<g><path style="opacity:1" fill="#d1924f" d="M 23.5,183.5 C 25.3684,184.263 27.0351,185.263 28.5,186.5C 29.3065,187.728 30.3065,188.728 31.5,189.5C 28.7201,189.193 26.2201,188.193 24,186.5C 23.5,186.833 23,187.167 22.5,187.5C 23.935,188.929 24.935,190.595 25.5,192.5C 24.6689,194.473 24.5022,196.473 25,198.5C 25.4828,197.552 25.6495,196.552 25.5,195.5C 26.5,195.5 27.5,195.5 28.5,195.5C 27.5659,200.459 26.7325,205.459 26,210.5C 24.3829,211.851 23.2162,213.518 22.5,215.5C 18.4891,217.672 14.1557,218.672 9.5,218.5C 13.5158,217.393 17.1825,215.726 20.5,213.5C 20.8333,212.5 21.5,211.833 22.5,211.5C 23.1174,211.389 23.6174,211.056 24,210.5C 24.1667,208.667 24.3333,206.833 24.5,205C 23.0588,198.18 21.7255,191.346 20.5,184.5C 21.791,184.737 22.791,184.404 23.5,183.5 Z"/></g>
<g><path style="opacity:1" fill="#573d2b" d="M 98.5,198.5 C 99.9952,198.989 101.329,199.655 102.5,200.5C 101.167,200.5 99.8333,200.5 98.5,200.5C 98.3337,207.508 98.5004,214.508 99,221.5C 106.387,222.907 113.887,223.574 121.5,223.5C 121.5,223.833 121.5,224.167 121.5,224.5C 108.861,224.709 96.5273,223.376 84.5,220.5C 85.1667,220.5 85.5,220.167 85.5,219.5C 86.8333,216.833 86.8333,214.167 85.5,211.5C 86.8333,213.5 88.1667,215.5 89.5,217.5C 90.3382,217.842 90.6716,218.508 90.5,219.5C 92.5145,220.924 94.8478,221.59 97.5,221.5C 97.6653,217.818 97.4986,214.152 97,210.5C 96.6667,210.167 96.3333,209.833 96,209.5C 95.7679,210.737 95.2679,211.737 94.5,212.5C 94.1961,211.85 93.8627,211.183 93.5,210.5C 96.0957,207.085 95.929,203.751 93,200.5C 92.6667,201.167 92.3333,201.833 92,202.5C 89.9223,200.738 89.4223,198.738 90.5,196.5C 91.8249,197.953 92.6582,197.619 93,195.5C 93.8403,198.464 94.8403,198.797 96,196.5C 96.7083,197.381 97.5416,198.047 98.5,198.5 Z"/></g>
<g><path style="opacity:1" fill="#604935" d="M 148.5,198.5 C 149.568,197.566 150.901,197.232 152.5,197.5C 152.5,198.5 152.5,199.5 152.5,200.5C 154.331,199.948 155.997,199.948 157.5,200.5C 158.192,199.975 158.692,199.308 159,198.5C 160,201.167 161,201.167 162,198.5C 163.31,200.132 163.81,201.799 163.5,203.5C 164.281,202.271 164.781,200.938 165,199.5C 165.203,203.421 165.703,207.255 166.5,211C 164.653,214.504 163.653,218.337 163.5,222.5C 164.5,222.5 165.5,222.5 166.5,222.5C 166.5,222.833 166.5,223.167 166.5,223.5C 165.167,223.5 163.833,223.5 162.5,223.5C 162.761,219.658 162.094,215.991 160.5,212.5C 158.604,211.534 156.604,211.201 154.5,211.5C 154.5,209.833 154.5,208.167 154.5,206.5C 153.5,206.5 152.5,206.5 151.5,206.5C 151.167,210.5 150.833,210.5 150.5,206.5C 148.143,206.663 145.81,206.497 143.5,206C 144.448,205.517 145.448,205.351 146.5,205.5C 146.349,202.282 145.516,201.949 144,204.5C 143.5,203.333 142.667,202.5 141.5,202C 138.183,201.502 134.85,201.335 131.5,201.5C 136.9,200.813 142.4,200.146 148,199.5C 148.414,199.957 148.914,200.291 149.5,200.5C 152.131,198.995 151.797,198.329 148.5,198.5 Z"/></g>
<g><path style="opacity:1" fill="#493222" d="M 203.5,217.5 C 204.167,217.833 204.833,218.167 205.5,218.5C 195.837,221.429 185.837,223.095 175.5,223.5C 174.833,223.5 174.167,223.5 173.5,223.5C 171.167,223.5 168.833,223.5 166.5,223.5C 166.5,223.167 166.5,222.833 166.5,222.5C 167.235,215.632 167.902,208.632 168.5,201.5C 169.735,201.721 170.735,202.388 171.5,203.5C 172.48,202.019 173.647,200.685 175,199.5C 175,200.833 175,202.167 175,203.5C 175.814,201.718 176.981,200.218 178.5,199C 176.729,198.465 176.396,197.631 177.5,196.5C 179.409,197.348 181.409,197.682 183.5,197.5C 185.545,199.89 187.212,202.556 188.5,205.5C 188.182,206.647 187.516,207.481 186.5,208C 187.167,208.333 187.833,208.667 188.5,209C 186.655,209.187 184.989,210.02 183.5,211.5C 186.6,212.474 186.933,214.474 184.5,217.5C 182.272,218.322 181.605,219.655 182.5,221.5C 184.084,218.025 186.084,217.692 188.5,220.5C 189.725,219.848 190.392,218.681 190.5,217C 191.085,211.133 191.752,205.299 192.5,199.5C 192.443,198.391 192.11,197.391 191.5,196.5C 192.167,196.5 192.833,196.5 193.5,196.5C 193.433,204.238 192.766,211.905 191.5,219.5C 192.325,220.386 193.325,220.719 194.5,220.5C 194.808,209.35 195.641,198.35 197,187.5C 198.399,197.768 198.899,208.102 198.5,218.5C 200.415,218.784 202.081,218.451 203.5,217.5 Z"/></g>
<g><path style="opacity:1" fill="#b59e89" d="M 183.5,197.5 C 186.263,197.744 188.429,199.077 190,201.5C 190.617,200.551 190.451,199.718 189.5,199C 190.577,198.53 191.577,198.697 192.5,199.5C 191.752,205.299 191.085,211.133 190.5,217C 190.392,218.681 189.725,219.848 188.5,220.5C 189.303,219.577 189.47,218.577 189,217.5C 187.701,217.966 186.201,217.966 184.5,217.5C 186.933,214.474 186.6,212.474 183.5,211.5C 184.989,210.02 186.655,209.187 188.5,209C 187.833,208.667 187.167,208.333 186.5,208C 187.516,207.481 188.182,206.647 188.5,205.5C 187.212,202.556 185.545,199.89 183.5,197.5 Z"/></g>
<g><path style="opacity:1" fill="#ddc7b0" d="M 156.5,201.5 C 158.337,201.639 158.67,202.306 157.5,203.5C 156.702,203.043 156.369,202.376 156.5,201.5 Z"/></g>
<g><path style="opacity:1" fill="#e5cfb9" d="M 152.5,202.5 C 154.337,202.639 154.67,203.306 153.5,204.5C 152.702,204.043 152.369,203.376 152.5,202.5 Z"/></g>
<g><path style="opacity:1" fill="#ae9783" d="M 147.5,202.5 C 148.5,202.5 149.5,202.5 150.5,202.5C 150.5,203.5 150.5,204.5 150.5,205.5C 149.5,205.5 148.5,205.5 147.5,205.5C 147.5,204.5 147.5,203.5 147.5,202.5 Z"/></g>
<g><path style="opacity:1" fill="#d8c3b0" d="M 178.5,203.5 C 181.012,204.216 181.012,205.216 178.5,206.5C 177.438,205.575 177.438,204.575 178.5,203.5 Z"/></g>
<g><path style="opacity:1" fill="#5c3419" d="M 255.5,195.5 C 254.526,198.928 253.859,202.428 253.5,206C 253.409,208.775 254.076,211.275 255.5,213.5C 254.542,213.047 253.708,212.381 253,211.5C 252.333,207.5 252.333,203.5 253,199.5C 253.608,197.934 254.442,196.6 255.5,195.5 Z"/></g>
<g><path style="opacity:1" fill="#e5cbb3" d="M 102.5,200.5 C 104.565,200.517 106.565,200.85 108.5,201.5C 112.768,202.373 117.102,202.706 121.5,202.5C 122.946,203.613 124.613,203.78 126.5,203C 125.833,202.667 125.167,202.333 124.5,202C 125.766,201.691 126.933,201.191 128,200.5C 129.011,201.337 130.178,201.67 131.5,201.5C 134.85,201.335 138.183,201.502 141.5,202C 142.667,202.5 143.5,203.333 144,204.5C 145.516,201.949 146.349,202.282 146.5,205.5C 145.448,205.351 144.448,205.517 143.5,206C 145.81,206.497 148.143,206.663 150.5,206.5C 150.833,210.5 151.167,210.5 151.5,206.5C 152.5,206.5 153.5,206.5 154.5,206.5C 154.5,208.167 154.5,209.833 154.5,211.5C 156.604,211.201 158.604,211.534 160.5,212.5C 162.094,215.991 162.761,219.658 162.5,223.5C 148.819,224.428 135.152,224.428 121.5,223.5C 113.887,223.574 106.387,222.907 99,221.5C 98.5004,214.508 98.3337,207.508 98.5,200.5C 99.8333,200.5 101.167,200.5 102.5,200.5 Z"/></g>
<g><path style="opacity:1" fill="#5b412b" d="M 108.5,201.5 C 112.894,200.41 117.227,200.744 121.5,202.5C 117.102,202.706 112.768,202.373 108.5,201.5 Z"/></g>
<g><path style="opacity:1" fill="#c0a798" d="M 175.5,209.5 C 175.329,206.203 175.995,205.869 177.5,208.5C 177.043,209.298 176.376,209.631 175.5,209.5 Z"/></g>
<g><path style="opacity:1" fill="#2f1b0d" d="M 75.5,200.5 C 76.1174,200.611 76.6174,200.944 77,201.5C 78.1329,206.853 77.2996,211.853 74.5,216.5C 75.2427,217.182 75.9094,217.849 76.5,218.5C 67.0537,216.846 57.8871,214.18 49,210.5C 48.2352,210.57 47.7352,210.903 47.5,211.5C 47.1667,211.5 46.8333,211.5 46.5,211.5C 46.5743,209.589 47.5743,208.422 49.5,208C 57.8391,207.858 66.1724,207.858 74.5,208C 75.5784,207.326 76.2451,206.326 76.5,205C 76.2272,203.467 75.8938,201.967 75.5,200.5 Z"/></g>
<g><path style="opacity:1" fill="#cab4a1" d="M 159.5,201.5 C 160.376,201.369 161.043,201.702 161.5,202.5C 160.77,205.109 160.27,207.776 160,210.5C 159.502,207.518 159.335,204.518 159.5,201.5 Z"/></g>
<g><path style="opacity:1" fill="#dbc0b3" d="M 182.5,207.5 C 184.657,208.053 184.49,209.053 182,210.5C 181.53,209.423 181.697,208.423 182.5,207.5 Z"/></g>
<g><path style="opacity:1" fill="#7e6756" d="M 82.5,198.5 C 83.1641,199.648 83.3308,200.981 83,202.5C 84.5185,202.057 85.6852,202.724 86.5,204.5C 85.1886,205.258 84.6886,206.258 85,207.5C 86,206.167 87,206.167 88,207.5C 87.9227,206.262 88.0894,205.262 88.5,204.5C 89.316,206.287 90.316,207.954 91.5,209.5C 90.8333,209.833 90.1667,210.167 89.5,210.5C 90.304,211.941 90.9706,213.441 91.5,215C 90.4909,215.355 89.8243,216.188 89.5,217.5C 88.1667,215.5 86.8333,213.5 85.5,211.5C 84.5,210.167 83.5,208.833 82.5,207.5C 81.2248,204.604 81.2248,201.604 82.5,198.5 Z"/></g>
<g><path style="opacity:1" fill="#2e1a0d" d="M 201.5,201.5 C 200.85,203.435 200.517,205.435 200.5,207.5C 209.468,208.066 218.468,208.233 227.5,208C 228.381,208.708 229.047,209.542 229.5,210.5C 229.5,210.833 229.5,211.167 229.5,211.5C 227.473,211.338 225.473,211.505 223.5,212C 217.793,215.022 211.793,217.189 205.5,218.5C 204.833,218.167 204.167,217.833 203.5,217.5C 199.233,212.422 198.567,207.088 201.5,201.5 Z"/></g>
<g><path style="opacity:1" fill="#c9b19e" d="M 82.5,207.5 C 83.5,208.833 84.5,210.167 85.5,211.5C 86.8333,214.167 86.8333,216.833 85.5,219.5C 84.5041,219.586 83.6708,219.252 83,218.5C 82.5014,214.848 82.3347,211.182 82.5,207.5 Z"/></g>
<g><path style="opacity:1" fill="#5d3521" d="M 255.5,213.5 C 259.576,215.186 263.576,216.853 267.5,218.5C 262.768,218.373 258.768,216.707 255.5,213.5 Z"/></g>
<g><path style="opacity:1" fill="#c6af9b" d="M 175.5,209.5 C 174.146,213.032 172.146,216.198 169.5,219C 170,219.5 170.5,220 171,220.5C 174,217.167 177,213.833 180,210.5C 179.866,212.189 179.366,213.856 178.5,215.5C 176.086,216.911 174.419,218.911 173.5,221.5C 171.99,222.728 170.49,222.728 169,221.5C 169.198,216.817 169.031,212.483 168.5,208.5C 169.79,207.592 171.123,207.759 172.5,209C 170.993,209.837 170.493,211.004 171,212.5C 172.129,210.859 173.629,209.859 175.5,209.5 Z"/></g>
<g><path style="opacity:1" fill="#6d4623" d="M 20.5,213.5 C 17.1825,215.726 13.5158,217.393 9.5,218.5C 7.19438,218.993 4.86105,219.326 2.5,219.5C 8.26475,217.133 14.2648,215.133 20.5,213.5 Z"/></g>
<g><path style="opacity:1" fill="#918176" d="M 184.5,217.5 C 186.201,217.966 187.701,217.966 189,217.5C 189.47,218.577 189.303,219.577 188.5,220.5C 186.084,217.692 184.084,218.025 182.5,221.5C 181.605,219.655 182.272,218.322 184.5,217.5 Z"/></g>
<g><path style="opacity:1" fill="#5e2d0d" d="M 229.5,210.5 C 230.879,218.772 232.545,227.106 234.5,235.5C 231.131,227.985 229.465,219.985 229.5,211.5C 229.5,211.167 229.5,210.833 229.5,210.5 Z"/></g>
<g><path style="opacity:1" fill="#a18b76" d="M 90.5,219.5 C 92.942,217.879 94.2753,215.546 94.5,212.5C 95.2679,211.737 95.7679,210.737 96,209.5C 96.3333,209.833 96.6667,210.167 97,210.5C 97.4986,214.152 97.6653,217.818 97.5,221.5C 94.8478,221.59 92.5145,220.924 90.5,219.5 Z"/></g>
<g><path style="opacity:1" fill="#513b29" d="M 178.5,215.5 C 177.581,218.089 175.914,220.089 173.5,221.5C 174.419,218.911 176.086,216.911 178.5,215.5 Z"/></g>
<g><path style="opacity:1" fill="#614321" d="M 267.5,218.5 C 271.092,218.698 274.426,219.698 277.5,221.5C 277.5,222.833 277.5,224.167 277.5,225.5C 277.167,225.5 276.833,225.5 276.5,225.5C 276.67,224.178 276.337,223.011 275.5,222C 272.524,221.295 269.858,220.129 267.5,218.5 Z"/></g>
<g><path style="opacity:1" fill="#dd9346" d="M 31.5,189.5 C 33.7457,190.455 36.079,191.122 38.5,191.5C 39.7804,192.931 41.4471,193.598 43.5,193.5C 46.5035,195.262 49.8368,196.428 53.5,197C 60.9554,197.623 68.2888,198.79 75.5,200.5C 75.8938,201.967 76.2272,203.467 76.5,205C 76.2451,206.326 75.5784,207.326 74.5,208C 66.1724,207.858 57.8391,207.858 49.5,208C 47.5743,208.422 46.5743,209.589 46.5,211.5C 43.4992,220.158 41.4992,229.158 40.5,238.5C 39.9032,239.139 39.0698,239.472 38,239.5C 34.003,237.778 29.8363,236.778 25.5,236.5C 23.2084,234.733 20.5418,233.733 17.5,233.5C 12.6894,230.93 7.68937,228.597 2.5,226.5C 1.5,225.833 0.5,225.167 -0.5,224.5C -0.5,223.167 -0.5,221.833 -0.5,220.5C 0.391047,219.89 1.39105,219.557 2.5,219.5C 4.86105,219.326 7.19438,218.993 9.5,218.5C 14.1557,218.672 18.4891,217.672 22.5,215.5C 23.2162,213.518 24.3829,211.851 26,210.5C 26.7325,205.459 27.5659,200.459 28.5,195.5C 27.5,195.5 26.5,195.5 25.5,195.5C 25.6495,196.552 25.4828,197.552 25,198.5C 24.5022,196.473 24.6689,194.473 25.5,192.5C 24.935,190.595 23.935,188.929 22.5,187.5C 23,187.167 23.5,186.833 24,186.5C 26.2201,188.193 28.7201,189.193 31.5,189.5 Z"/></g>
<g><path style="opacity:1" fill="#cbb5a3" d="M 173.5,221.5 C 175.914,220.089 177.581,218.089 178.5,215.5C 179.794,214.71 180.961,213.71 182,212.5C 182.667,213.5 182.667,214.5 182,215.5C 179.982,217.35 178.149,219.35 176.5,221.5C 175.386,222.776 174.386,222.776 173.5,221.5 Z"/></g>
<g><path style="opacity:1" fill="#de9346" d="M 47.5,212.5 C 50.7935,212.259 53.7935,213.092 56.5,215C 53.4557,215.359 53.1224,216.026 55.5,217C 55.1113,218.618 53.778,219.785 51.5,220.5C 52.8333,220.833 54.1667,221.167 55.5,221.5C 58.1984,220.809 60.865,220.142 63.5,219.5C 63.5,220.5 63.5,221.5 63.5,222.5C 61.5,222.833 59.5,223.167 57.5,223.5C 58.1963,226.32 59.1963,228.987 60.5,231.5C 58.9411,237.78 58.1078,244.114 58,250.5C 61.0377,252.693 64.2044,253.027 67.5,251.5C 67.8417,250.662 68.5084,250.328 69.5,250.5C 70.4959,250.586 71.3292,250.252 72,249.5C 72.3522,245.899 72.5188,242.566 72.5,239.5C 73.086,239.709 73.586,240.043 74,240.5C 74.3333,245.167 74.6667,249.833 75,254.5C 76.3561,255.38 77.8561,255.714 79.5,255.5C 80.5,255.5 81.5,255.5 82.5,255.5C 85.9148,255.566 88.9148,256.732 91.5,259C 89.444,259.311 87.444,259.811 85.5,260.5C 83.9288,258.585 81.9288,257.585 79.5,257.5C 79.5,259.167 79.5,260.833 79.5,262.5C 76.8127,262.664 74.146,262.497 71.5,262C 71.8333,261.667 72.1667,261.333 72.5,261C 69.6037,259.302 66.6037,259.136 63.5,260.5C 57.3435,259.223 51.3435,257.556 45.5,255.5C 43.0029,254.871 41.6696,253.204 41.5,250.5C 41.5,246.5 41.5,242.5 41.5,238.5C 42.8679,229.695 44.8679,221.028 47.5,212.5 Z"/></g>
<g><path style="opacity:1" fill="#dc9347" d="M 253.5,184.5 C 254.833,184.5 256.167,184.5 257.5,184.5C 257.5,186.167 257.5,187.833 257.5,189.5C 255.926,191.102 255.259,193.102 255.5,195.5C 254.442,196.6 253.608,197.934 253,199.5C 252.333,203.5 252.333,207.5 253,211.5C 253.708,212.381 254.542,213.047 255.5,213.5C 258.768,216.707 262.768,218.373 267.5,218.5C 269.858,220.129 272.524,221.295 275.5,222C 276.337,223.011 276.67,224.178 276.5,225.5C 276.5,226.167 276.167,226.5 275.5,226.5C 272.738,227.38 270.071,228.546 267.5,230C 262.144,230.354 257.478,232.188 253.5,235.5C 250.848,235.41 248.515,236.076 246.5,237.5C 243.848,237.41 241.515,238.076 239.5,239.5C 239.167,239.5 238.833,239.5 238.5,239.5C 236.726,238.63 235.393,237.297 234.5,235.5C 232.545,227.106 230.879,218.772 229.5,210.5C 229.047,209.542 228.381,208.708 227.5,208C 218.468,208.233 209.468,208.066 200.5,207.5C 200.517,205.435 200.85,203.435 201.5,201.5C 204.486,199.515 207.82,198.348 211.5,198C 210.906,197.536 210.239,197.369 209.5,197.5C 210.919,196.549 212.585,196.216 214.5,196.5C 221.864,197.581 228.864,196.248 235.5,192.5C 238.912,191.958 241.912,190.625 244.5,188.5C 247.088,186.375 250.088,185.042 253.5,184.5 Z"/></g>
<g><path style="opacity:1" fill="#412b1a" d="M 2.5,226.5 C 7.68937,228.597 12.6894,230.93 17.5,233.5C 11.8084,232.486 6.80839,230.152 2.5,226.5 Z"/></g>
<g><path style="opacity:1" fill="#8a5c33" d="M 275.5,226.5 C 268.898,231.04 261.565,234.04 253.5,235.5C 257.478,232.188 262.144,230.354 267.5,230C 270.071,228.546 272.738,227.38 275.5,226.5 Z"/></g>
<g><path style="opacity:1" fill="#d89248" d="M 76.5,218.5 C 78.9608,219.531 81.6275,220.198 84.5,220.5C 96.5273,223.376 108.861,224.709 121.5,224.5C 138.851,225.677 156.185,225.344 173.5,223.5C 174.167,223.5 174.833,223.5 175.5,223.5C 173.342,225.22 170.675,226.053 167.5,226C 148.824,226.167 130.158,226.667 111.5,227.5C 115.325,228.265 119.158,228.932 123,229.5C 124.56,231.294 124.06,232.794 121.5,234C 124.893,235.168 127.559,234.334 129.5,231.5C 127.851,230.852 126.518,229.852 125.5,228.5C 126.333,228.167 127.167,227.833 128,227.5C 138.423,227.994 148.923,228.327 159.5,228.5C 159.5,229.5 159.5,230.5 159.5,231.5C 154.588,231.47 150.254,232.803 146.5,235.5C 146.36,237.124 147.027,238.29 148.5,239C 147.833,239.333 147.167,239.667 146.5,240C 147.5,240.833 148.5,241.667 149.5,242.5C 148.753,242.736 147.92,243.07 147,243.5C 146.667,246.167 146.333,248.833 146,251.5C 144.4,252.866 142.567,253.866 140.5,254.5C 142.465,255.292 144.465,255.959 146.5,256.5C 147.386,257.325 147.719,258.325 147.5,259.5C 146.5,259.5 145.5,259.5 144.5,259.5C 144.5,258.5 144.5,257.5 144.5,256.5C 142.833,256.5 141.167,256.5 139.5,256.5C 139.5,254.833 139.5,253.167 139.5,251.5C 140.833,251.5 142.167,251.5 143.5,251.5C 143.5,249.833 143.5,248.167 143.5,246.5C 142.167,246.5 140.833,246.5 139.5,246.5C 139.5,244.833 139.5,243.167 139.5,241.5C 140.833,241.5 142.167,241.5 143.5,241.5C 143.5,240.167 143.5,238.833 143.5,237.5C 140.5,237.5 137.5,237.5 134.5,237.5C 134.5,245.5 134.5,253.5 134.5,261.5C 133.511,257.627 132.511,253.627 131.5,249.5C 130.817,249.863 130.15,250.196 129.5,250.5C 129.5,249.167 129.5,247.833 129.5,246.5C 128.167,246.5 126.833,246.5 125.5,246.5C 125.5,244.833 125.5,243.167 125.5,241.5C 127.167,241.5 128.833,241.5 130.5,241.5C 130.5,239.833 130.5,238.167 130.5,236.5C 127.167,236.5 123.833,236.5 120.5,236.5C 120.432,244.514 120.099,252.514 119.5,260.5C 118.834,257.311 118.167,253.977 117.5,250.5C 115.674,250.92 113.674,250.92 111.5,250.5C 111.34,252.199 111.506,253.866 112,255.5C 113.049,254.483 114.216,254.316 115.5,255C 113.03,255.74 111.363,257.24 110.5,259.5C 110.5,256.167 110.5,252.833 110.5,249.5C 112.167,249.5 113.833,249.5 115.5,249.5C 114.167,246.5 112.833,243.5 111.5,240.5C 113.167,240.5 114.833,240.5 116.5,240.5C 116.5,239.167 116.5,237.833 116.5,236.5C 113.455,236.492 110.455,236.159 107.5,235.5C 106.833,243.5 106.167,251.5 105.5,259.5C 104.824,255.521 103.824,251.521 102.5,247.5C 103.244,244.05 101.91,242.384 98.5,242.5C 98.5,241.5 98.5,240.5 98.5,239.5C 100.167,239.5 101.833,239.5 103.5,239.5C 103.5,237.833 103.5,236.167 103.5,234.5C 100.167,234.5 96.8333,234.5 93.5,234.5C 92.5055,242.135 91.8388,249.802 91.5,257.5C 92.8333,257.5 94.1667,257.5 95.5,257.5C 96.0508,254.193 96.3841,250.86 96.5,247.5C 97.5,247.5 98.5,247.5 99.5,247.5C 97.6735,250.677 98.3402,253.177 101.5,255C 100.594,256.699 100.261,258.533 100.5,260.5C 96.4862,260.334 92.4862,260.501 88.5,261C 89.6667,261.5 90.5,262.333 91,263.5C 94.4649,262.733 98.2982,262.4 102.5,262.5C 102.5,263.5 102.5,264.5 102.5,265.5C 99.4486,265.636 96.4486,265.302 93.5,264.5C 91.6274,264.482 91.2941,264.982 92.5,266C 94.6667,266.167 96.8333,266.333 99,266.5C 105.591,265.845 112.091,265.011 118.5,264C 118.957,264.414 119.291,264.914 119.5,265.5C 115.808,266.252 112.142,267.086 108.5,268C 109.056,268.383 109.389,268.883 109.5,269.5C 102.885,268.365 96.2181,267.698 89.5,267.5C 80.7313,265.578 72.0647,263.244 63.5,260.5C 66.6037,259.136 69.6037,259.302 72.5,261C 72.1667,261.333 71.8333,261.667 71.5,262C 74.146,262.497 76.8127,262.664 79.5,262.5C 79.5,260.833 79.5,259.167 79.5,257.5C 81.9288,257.585 83.9288,258.585 85.5,260.5C 87.444,259.811 89.444,259.311 91.5,259C 88.9148,256.732 85.9148,255.566 82.5,255.5C 84.1436,254.684 85.3103,253.35 86,251.5C 87.0401,246.632 88.2068,241.799 89.5,237C 89.5159,234.695 88.5159,233.028 86.5,232C 83.7395,231.278 81.0728,231.445 78.5,232.5C 76.5,231.167 74.5,229.833 72.5,228.5C 69.3751,226.828 66.5417,227.162 64,229.5C 60.9181,235.491 59.5847,241.824 60,248.5C 61.8484,251.041 64.3484,252.041 67.5,251.5C 64.2044,253.027 61.0377,252.693 58,250.5C 58.1078,244.114 58.9411,237.78 60.5,231.5C 59.1963,228.987 58.1963,226.32 57.5,223.5C 59.5,223.167 61.5,222.833 63.5,222.5C 63.5,221.5 63.5,220.5 63.5,219.5C 60.865,220.142 58.1984,220.809 55.5,221.5C 54.1667,221.167 52.8333,220.833 51.5,220.5C 53.778,219.785 55.1113,218.618 55.5,217C 53.1224,216.026 53.4557,215.359 56.5,215C 53.7935,213.092 50.7935,212.259 47.5,212.5C 47.5,212.167 47.5,211.833 47.5,211.5C 47.7352,210.903 48.2352,210.57 49,210.5C 57.8871,214.18 67.0537,216.846 76.5,218.5 Z"/></g>
<g><path style="opacity:1" fill="#371e0e" d="M 72.5,228.5 C 74.7071,231.598 75.0404,234.932 73.5,238.5C 71.5165,238.617 69.8498,237.95 68.5,236.5C 69.6808,234.802 69.6808,233.135 68.5,231.5C 65.604,236.17 64.604,241.17 65.5,246.5C 66.2436,245.009 66.9103,243.509 67.5,242C 69.5493,241.53 70.8826,242.364 71.5,244.5C 70.8224,246.516 70.1557,248.516 69.5,250.5C 68.5084,250.328 67.8417,250.662 67.5,251.5C 64.3484,252.041 61.8484,251.041 60,248.5C 59.5847,241.824 60.9181,235.491 64,229.5C 66.5417,227.162 69.3751,226.828 72.5,228.5 Z"/></g>
<g><path style="opacity:1" fill="#6d4620" d="M 121.5,223.5 C 135.152,224.428 148.819,224.428 162.5,223.5C 163.833,223.5 165.167,223.5 166.5,223.5C 168.833,223.5 171.167,223.5 173.5,223.5C 156.185,225.344 138.851,225.677 121.5,224.5C 121.5,224.167 121.5,223.833 121.5,223.5 Z"/></g>
<g><path style="opacity:1" fill="#41261a" d="M 17.5,233.5 C 20.5418,233.733 23.2084,234.733 25.5,236.5C 22.4582,236.267 19.7916,235.267 17.5,233.5 Z"/></g>
<g><path style="opacity:1" fill="#683914" d="M 46.5,211.5 C 46.8333,211.5 47.1667,211.5 47.5,211.5C 47.5,211.833 47.5,212.167 47.5,212.5C 44.8679,221.028 42.8679,229.695 41.5,238.5C 41.1667,238.5 40.8333,238.5 40.5,238.5C 41.4992,229.158 43.4992,220.158 46.5,211.5 Z"/></g>
<g><path style="opacity:1" fill="#614324" d="M 253.5,235.5 C 251.485,236.924 249.152,237.59 246.5,237.5C 248.515,236.076 250.848,235.41 253.5,235.5 Z"/></g>
<g><path style="opacity:1" fill="#582c10" d="M 234.5,235.5 C 235.393,237.297 236.726,238.63 238.5,239.5C 238.5,240.167 238.167,240.5 237.5,240.5C 235.259,239.7 234.259,238.034 234.5,235.5 Z"/></g>
<g><path style="opacity:1" fill="#4e301b" d="M 25.5,236.5 C 29.8363,236.778 34.003,237.778 38,239.5C 39.0698,239.472 39.9032,239.139 40.5,238.5C 40.8333,238.5 41.1667,238.5 41.5,238.5C 41.5,242.5 41.5,246.5 41.5,250.5C 40.834,247.642 40.1674,244.642 39.5,241.5C 34.5941,240.2 29.9274,238.534 25.5,236.5 Z"/></g>
<g><path style="opacity:1" fill="#cc8d4e" d="M 72.5,228.5 C 74.5,229.833 76.5,231.167 78.5,232.5C 75.9666,239.354 75.2999,246.354 76.5,253.5C 77.6016,254.176 78.6016,254.842 79.5,255.5C 77.8561,255.714 76.3561,255.38 75,254.5C 74.6667,249.833 74.3333,245.167 74,240.5C 73.586,240.043 73.086,239.709 72.5,239.5C 72.5188,242.566 72.3522,245.899 72,249.5C 71.3292,250.252 70.4959,250.586 69.5,250.5C 70.1557,248.516 70.8224,246.516 71.5,244.5C 70.8826,242.364 69.5493,241.53 67.5,242C 66.9103,243.509 66.2436,245.009 65.5,246.5C 64.604,241.17 65.604,236.17 68.5,231.5C 69.6808,233.135 69.6808,234.802 68.5,236.5C 69.8498,237.95 71.5165,238.617 73.5,238.5C 75.0404,234.932 74.7071,231.598 72.5,228.5 Z"/></g>
<g><path style="opacity:1" fill="#371e0e" d="M 82.5,255.5 C 81.5,255.5 80.5,255.5 79.5,255.5C 78.6016,254.842 77.6016,254.176 76.5,253.5C 75.2999,246.354 75.9666,239.354 78.5,232.5C 81.0728,231.445 83.7395,231.278 86.5,232C 88.5159,233.028 89.5159,234.695 89.5,237C 88.2068,241.799 87.0401,246.632 86,251.5C 85.3103,253.35 84.1436,254.684 82.5,255.5 Z"/></g>
<g><path style="opacity:1" fill="#64421f" d="M 246.5,237.5 C 244.485,238.924 242.152,239.59 239.5,239.5C 241.515,238.076 243.848,237.41 246.5,237.5 Z"/></g>
<g><path style="opacity:1" fill="#e6ccb4" d="M 276.5,225.5 C 276.833,225.5 277.167,225.5 277.5,225.5C 277.5,238.167 277.5,250.833 277.5,263.5C 273.746,264.541 270.08,265.875 266.5,267.5C 265.708,268.7 265.708,270.033 266.5,271.5C 234.167,271.5 201.833,271.5 169.5,271.5C 182.371,269.788 195.371,267.954 208.5,266C 214.285,264.738 219.952,263.072 225.5,261C 227.584,260.303 229.251,259.136 230.5,257.5C 234.236,256.095 236.569,253.429 237.5,249.5C 237.5,249.167 237.5,248.833 237.5,248.5C 238.623,246.312 238.623,243.979 237.5,241.5C 237.5,241.167 237.5,240.833 237.5,240.5C 238.167,240.5 238.5,240.167 238.5,239.5C 238.833,239.5 239.167,239.5 239.5,239.5C 242.152,239.59 244.485,238.924 246.5,237.5C 249.152,237.59 251.485,236.924 253.5,235.5C 261.565,234.04 268.898,231.04 275.5,226.5C 276.167,226.5 276.5,226.167 276.5,225.5 Z"/></g>
<g><path style="opacity:1" fill="#e6cdb4" d="M -0.5,224.5 C 0.5,225.167 1.5,225.833 2.5,226.5C 6.80839,230.152 11.8084,232.486 17.5,233.5C 19.7916,235.267 22.4582,236.267 25.5,236.5C 29.9274,238.534 34.5941,240.2 39.5,241.5C 40.1674,244.642 40.834,247.642 41.5,250.5C 41.6696,253.204 43.0029,254.871 45.5,255.5C 59.384,261.973 74.0506,265.973 89.5,267.5C 97.4034,269.486 105.403,270.819 113.5,271.5C 77.5,271.5 41.5,271.5 5.5,271.5C 5.5,270.167 5.5,268.833 5.5,267.5C 3.29719,267.396 1.29719,266.73 -0.5,265.5C -0.5,251.833 -0.5,238.167 -0.5,224.5 Z"/></g>
<g><path style="opacity:1" fill="#c0894d" d="M 82.5,235.5 C 83.6491,235.791 84.3158,236.624 84.5,238C 83.7944,241.862 82.961,245.695 82,249.5C 80.6575,250.902 79.8242,250.569 79.5,248.5C 80.8227,244.225 81.8227,239.891 82.5,235.5 Z"/></g>
<g><path style="opacity:1" fill="#684726" d="M 237.5,241.5 C 238.623,243.979 238.623,246.312 237.5,248.5C 236.583,245.995 236.583,243.662 237.5,241.5 Z"/></g>
<g><path style="opacity:1" fill="#371d0e" d="M 110.5,259.5 C 108.833,259.5 107.167,259.5 105.5,259.5C 106.167,251.5 106.833,243.5 107.5,235.5C 110.455,236.159 113.455,236.492 116.5,236.5C 116.5,237.833 116.5,239.167 116.5,240.5C 114.833,240.5 113.167,240.5 111.5,240.5C 112.833,243.5 114.167,246.5 115.5,249.5C 113.833,249.5 112.167,249.5 110.5,249.5C 110.5,252.833 110.5,256.167 110.5,259.5 Z"/></g>
<g><path style="opacity:1" fill="#381f0c" d="M 129.5,250.5 C 127.833,250.5 126.167,250.5 124.5,250.5C 124.5,252.5 124.5,254.5 124.5,256.5C 126.167,256.5 127.833,256.5 129.5,256.5C 129.5,257.833 129.5,259.167 129.5,260.5C 126.167,260.5 122.833,260.5 119.5,260.5C 120.099,252.514 120.432,244.514 120.5,236.5C 123.833,236.5 127.167,236.5 130.5,236.5C 130.5,238.167 130.5,239.833 130.5,241.5C 128.833,241.5 127.167,241.5 125.5,241.5C 125.5,243.167 125.5,244.833 125.5,246.5C 126.833,246.5 128.167,246.5 129.5,246.5C 129.5,247.833 129.5,249.167 129.5,250.5 Z"/></g>
<g><path style="opacity:1" fill="#3a1f0d" d="M 144.5,259.5 C 141.663,261.402 138.329,262.069 134.5,261.5C 134.5,253.5 134.5,245.5 134.5,237.5C 137.5,237.5 140.5,237.5 143.5,237.5C 143.5,238.833 143.5,240.167 143.5,241.5C 142.167,241.5 140.833,241.5 139.5,241.5C 139.5,243.167 139.5,244.833 139.5,246.5C 140.833,246.5 142.167,246.5 143.5,246.5C 143.5,248.167 143.5,249.833 143.5,251.5C 142.167,251.5 140.833,251.5 139.5,251.5C 139.5,253.167 139.5,254.833 139.5,256.5C 141.167,256.5 142.833,256.5 144.5,256.5C 144.5,257.5 144.5,258.5 144.5,259.5 Z"/></g>
<g><path style="opacity:1" fill="#381f10" d="M 102.5,247.5 C 101.5,247.5 100.5,247.5 99.5,247.5C 98.5,247.5 97.5,247.5 96.5,247.5C 96.3841,250.86 96.0508,254.193 95.5,257.5C 94.1667,257.5 92.8333,257.5 91.5,257.5C 91.8388,249.802 92.5055,242.135 93.5,234.5C 96.8333,234.5 100.167,234.5 103.5,234.5C 103.5,236.167 103.5,237.833 103.5,239.5C 101.833,239.5 100.167,239.5 98.5,239.5C 98.5,240.5 98.5,241.5 98.5,242.5C 101.91,242.384 103.244,244.05 102.5,247.5 Z"/></g>
<g><path style="opacity:1" fill="#dd9346" d="M 229.5,211.5 C 229.465,219.985 231.131,227.985 234.5,235.5C 234.259,238.034 235.259,239.7 237.5,240.5C 237.5,240.833 237.5,241.167 237.5,241.5C 236.583,243.662 236.583,245.995 237.5,248.5C 237.5,248.833 237.5,249.167 237.5,249.5C 235.196,252.141 232.862,254.808 230.5,257.5C 219.029,262.535 207.029,265.702 194.5,267C 171.255,269.903 147.922,271.07 124.5,270.5C 119.482,270.387 114.482,270.053 109.5,269.5C 109.389,268.883 109.056,268.383 108.5,268C 112.142,267.086 115.808,266.252 119.5,265.5C 119.291,264.914 118.957,264.414 118.5,264C 112.091,265.011 105.591,265.845 99,266.5C 96.8333,266.333 94.6667,266.167 92.5,266C 91.2941,264.982 91.6274,264.482 93.5,264.5C 96.4486,265.302 99.4486,265.636 102.5,265.5C 102.5,264.5 102.5,263.5 102.5,262.5C 98.2982,262.4 94.4649,262.733 91,263.5C 90.5,262.333 89.6667,261.5 88.5,261C 92.4862,260.501 96.4862,260.334 100.5,260.5C 100.261,258.533 100.594,256.699 101.5,255C 98.3402,253.177 97.6735,250.677 99.5,247.5C 100.5,247.5 101.5,247.5 102.5,247.5C 103.824,251.521 104.824,255.521 105.5,259.5C 107.167,259.5 108.833,259.5 110.5,259.5C 111.363,257.24 113.03,255.74 115.5,255C 114.216,254.316 113.049,254.483 112,255.5C 111.506,253.866 111.34,252.199 111.5,250.5C 113.674,250.92 115.674,250.92 117.5,250.5C 118.167,253.977 118.834,257.311 119.5,260.5C 122.684,262.414 126.351,263.08 130.5,262.5C 130.5,260.167 130.5,257.833 130.5,255.5C 128.833,255.5 127.167,255.5 125.5,255.5C 125.5,254.167 125.5,252.833 125.5,251.5C 127.099,251.768 128.432,251.434 129.5,250.5C 130.15,250.196 130.817,249.863 131.5,249.5C 132.511,253.627 133.511,257.627 134.5,261.5C 138.329,262.069 141.663,261.402 144.5,259.5C 145.5,259.5 146.5,259.5 147.5,259.5C 147.719,258.325 147.386,257.325 146.5,256.5C 144.465,255.959 142.465,255.292 140.5,254.5C 142.567,253.866 144.4,252.866 146,251.5C 146.333,248.833 146.667,246.167 147,243.5C 147.92,243.07 148.753,242.736 149.5,242.5C 148.5,241.667 147.5,240.833 146.5,240C 147.167,239.667 147.833,239.333 148.5,239C 147.027,238.29 146.36,237.124 146.5,235.5C 150.254,232.803 154.588,231.47 159.5,231.5C 159.5,230.5 159.5,229.5 159.5,228.5C 148.923,228.327 138.423,227.994 128,227.5C 127.167,227.833 126.333,228.167 125.5,228.5C 126.518,229.852 127.851,230.852 129.5,231.5C 127.559,234.334 124.893,235.168 121.5,234C 124.06,232.794 124.56,231.294 123,229.5C 119.158,228.932 115.325,228.265 111.5,227.5C 130.158,226.667 148.824,226.167 167.5,226C 170.675,226.053 173.342,225.22 175.5,223.5C 185.837,223.095 195.837,221.429 205.5,218.5C 211.793,217.189 217.793,215.022 223.5,212C 225.473,211.505 227.473,211.338 229.5,211.5 Z"/></g>
<g><path style="opacity:1" fill="#371f0d" d="M 207.5,227.5 C 214.879,228.02 217.713,232.02 216,239.5C 214.197,240.313 212.697,241.48 211.5,243C 212.167,245.333 212.833,247.667 213.5,250C 212.381,251.876 210.714,252.709 208.5,252.5C 206.833,244.5 205.167,236.5 203.5,228.5C 205.099,228.768 206.432,228.434 207.5,227.5 Z"/></g>
<g><path style="opacity:1" fill="#ce8d48" d="M 178.5,233.5 C 179.509,236.527 179.509,239.527 178.5,242.5C 177.692,240.577 177.192,238.577 177,236.5C 175.644,235.62 174.144,235.286 172.5,235.5C 173.091,243.226 174.091,250.893 175.5,258.5C 176.833,258.5 178.167,258.5 179.5,258.5C 179.276,254.821 178.942,251.154 178.5,247.5C 179.5,247.5 180.5,247.5 181.5,247.5C 181.336,250.187 181.503,252.854 182,255.5C 183.049,257.107 184.549,257.773 186.5,257.5C 186.082,258.222 185.416,258.722 184.5,259C 178.452,259.252 172.452,259.752 166.5,260.5C 169.355,257.408 170.188,253.741 169,249.5C 166.317,246.984 163.817,244.317 161.5,241.5C 161.833,241.167 162.167,240.833 162.5,240.5C 164.179,242.104 166.179,242.771 168.5,242.5C 168.5,241.5 168.5,240.5 168.5,239.5C 170.052,237.965 171.385,236.131 172.5,234C 174.473,233.505 176.473,233.338 178.5,233.5 Z"/></g>
<g><path style="opacity:1" fill="#3a1f0f" d="M 178.5,233.5 C 180.766,233.141 182.599,233.808 184,235.5C 185.032,242.818 185.865,250.152 186.5,257.5C 184.549,257.773 183.049,257.107 182,255.5C 181.503,252.854 181.336,250.187 181.5,247.5C 180.5,247.5 179.5,247.5 178.5,247.5C 178.942,251.154 179.276,254.821 179.5,258.5C 178.167,258.5 176.833,258.5 175.5,258.5C 174.091,250.893 173.091,243.226 172.5,235.5C 174.144,235.286 175.644,235.62 177,236.5C 177.192,238.577 177.692,240.577 178.5,242.5C 179.509,239.527 179.509,236.527 178.5,233.5 Z"/></g>
<g><path style="opacity:1" fill="#371e0f" d="M 168.5,239.5 C 168.5,240.5 168.5,241.5 168.5,242.5C 166.179,242.771 164.179,242.104 162.5,240.5C 162.167,240.833 161.833,241.167 161.5,241.5C 163.817,244.317 166.317,246.984 169,249.5C 170.188,253.741 169.355,257.408 166.5,260.5C 164.473,260.662 162.473,260.495 160.5,260C 158.747,257.42 157.747,254.587 157.5,251.5C 159.167,251.5 160.833,251.5 162.5,251.5C 162.5,252.833 162.5,254.167 162.5,255.5C 163.5,255.5 164.5,255.5 165.5,255.5C 164.051,251.528 161.551,248.194 158,245.5C 157.333,243.167 157.333,240.833 158,238.5C 161.819,235.721 165.319,236.054 168.5,239.5 Z"/></g>
<g><path style="opacity:1" fill="#3a1f0e" d="M 191.5,231.5 C 195.49,230.616 198.323,231.949 200,235.5C 201.065,240.122 201.899,244.789 202.5,249.5C 202.424,253.339 200.424,255.339 196.5,255.5C 194.617,255.124 193.117,254.124 192,252.5C 189.803,246.323 188.803,239.989 189,233.5C 189.995,232.934 190.828,232.267 191.5,231.5 Z"/></g>
<g><path style="opacity:1" fill="#c38b52" d="M 193.5,235.5 C 195.713,237.958 196.879,240.958 197,244.5C 197.808,246.579 197.641,248.579 196.5,250.5C 194.749,245.662 193.749,240.662 193.5,235.5 Z"/></g>
<g><path style="opacity:1" fill="#b7824a" d="M 208.5,232.5 C 211.423,233.163 212.09,234.83 210.5,237.5C 208.783,236.332 208.116,234.665 208.5,232.5 Z"/></g>
<g><path style="opacity:1" fill="#57351a" d="M 237.5,249.5 C 236.569,253.429 234.236,256.095 230.5,257.5C 232.862,254.808 235.196,252.141 237.5,249.5 Z"/></g>
<g><path style="opacity:1" fill="#b98348" d="M 129.5,250.5 C 128.432,251.434 127.099,251.768 125.5,251.5C 125.5,252.833 125.5,254.167 125.5,255.5C 127.167,255.5 128.833,255.5 130.5,255.5C 130.5,257.833 130.5,260.167 130.5,262.5C 126.351,263.08 122.684,262.414 119.5,260.5C 122.833,260.5 126.167,260.5 129.5,260.5C 129.5,259.167 129.5,257.833 129.5,256.5C 127.833,256.5 126.167,256.5 124.5,256.5C 124.5,254.5 124.5,252.5 124.5,250.5C 126.167,250.5 127.833,250.5 129.5,250.5 Z"/></g>
<g><path style="opacity:1" fill="#4b311e" d="M 45.5,255.5 C 51.3435,257.556 57.3435,259.223 63.5,260.5C 72.0647,263.244 80.7313,265.578 89.5,267.5C 74.0506,265.973 59.384,261.973 45.5,255.5 Z"/></g>
<g><path style="opacity:1" fill="#341f12" d="M 277.5,263.5 C 277.5,265.5 277.5,267.5 277.5,269.5C 276.29,269.932 275.29,270.599 274.5,271.5C 271.833,271.5 269.167,271.5 266.5,271.5C 265.708,270.033 265.708,268.7 266.5,267.5C 270.08,265.875 273.746,264.541 277.5,263.5 Z"/></g>
<g><path style="opacity:1" fill="#361f12" d="M -0.5,265.5 C 1.29719,266.73 3.29719,267.396 5.5,267.5C 5.5,268.833 5.5,270.167 5.5,271.5C 3.5,271.5 1.5,271.5 -0.5,271.5C -0.5,269.5 -0.5,267.5 -0.5,265.5 Z"/></g>
<g><path style="opacity:1" fill="#4f3421" d="M 89.5,267.5 C 96.2181,267.698 102.885,268.365 109.5,269.5C 114.482,270.053 119.482,270.387 124.5,270.5C 124.5,270.833 124.5,271.167 124.5,271.5C 120.833,271.5 117.167,271.5 113.5,271.5C 105.403,270.819 97.4034,269.486 89.5,267.5 Z"/></g>
<g><path style="opacity:1" fill="#583218" d="M 230.5,257.5 C 229.251,259.136 227.584,260.303 225.5,261C 219.952,263.072 214.285,264.738 208.5,266C 195.371,267.954 182.371,269.788 169.5,271.5C 154.5,271.5 139.5,271.5 124.5,271.5C 124.5,271.167 124.5,270.833 124.5,270.5C 147.922,271.07 171.255,269.903 194.5,267C 207.029,265.702 219.029,262.535 230.5,257.5 Z"/></g>
<g><path style="opacity:1" fill="#ceb5a3" d="M 277.5,269.5 C 277.5,270.167 277.5,270.833 277.5,271.5C 276.5,271.5 275.5,271.5 274.5,271.5C 275.29,270.599 276.29,269.932 277.5,269.5 Z"/></g>
</svg>
