<?xml version="1.0" encoding="UTF-8"?>
<svg xmlns="http://www.w3.org/2000/svg" xmlns:xlink="http://www.w3.org/1999/xlink" width="20px" height="20px" viewBox="0 0 20 20" version="1.1">
<g id="surface1">
<path style=" stroke:none;fill-rule:nonzero;fill:rgb(0%,0%,0%);fill-opacity:1;" d="M 8.367188 -0.304688 C 9.175781 -0.296875 9.175781 -0.296875 10 -0.289062 C 10.539062 -0.292969 11.078125 -0.300781 11.632812 -0.304688 C 13.078125 0 13.078125 0 14.617188 2.308594 C 16.199219 2.863281 16.199219 2.863281 17.691406 3.078125 C 17.945312 4.09375 18.199219 5.109375 18.460938 6.152344 C 17.953125 6.152344 17.445312 6.152344 16.921875 6.152344 C 16.921875 10.722656 16.921875 15.292969 16.921875 20 C 12.355469 20 7.785156 20 3.078125 20 C 3.078125 15.429688 3.078125 10.863281 3.078125 6.152344 C 2.570312 6.152344 2.0625 6.152344 1.539062 6.152344 C 1.792969 5.136719 2.046875 4.125 2.308594 3.078125 C 2.785156 2.996094 3.257812 2.917969 3.75 2.835938 C 6.066406 2.085938 6.027344 0.191406 8.367188 -0.304688 Z M 9.230469 1.539062 C 8.976562 2.046875 8.722656 2.554688 8.460938 3.078125 C 9.476562 2.824219 10.492188 2.570312 11.539062 2.308594 C 10.777344 2.054688 10.015625 1.800781 9.230469 1.539062 Z M 4.617188 6.152344 C 4.59375 8.0625 4.578125 9.96875 4.566406 11.875 C 4.5625 12.417969 4.554688 12.960938 4.546875 13.523438 C 4.542969 14.914062 4.574219 16.304688 4.617188 17.691406 C 5.449219 18.695312 5.449219 18.695312 7.453125 18.5625 C 8.292969 18.5625 9.132812 18.558594 10 18.558594 C 10.839844 18.558594 11.683594 18.5625 12.546875 18.5625 C 14.550781 18.695312 14.550781 18.695312 15.382812 17.691406 C 15.441406 15.746094 15.457031 13.820312 15.433594 11.875 C 15.429688 11.328125 15.425781 10.78125 15.421875 10.21875 C 15.414062 8.863281 15.398438 7.507812 15.382812 6.152344 C 11.832031 6.152344 8.277344 6.152344 4.617188 6.152344 Z M 4.617188 6.152344 "/>
<path style=" stroke:none;fill-rule:nonzero;fill:rgb(0%,0%,0%);fill-opacity:1;" d="M 12.308594 7.691406 C 12.816406 7.691406 13.324219 7.691406 13.847656 7.691406 C 13.847656 10.738281 13.847656 13.785156 13.847656 16.921875 C 13.339844 16.921875 12.832031 16.921875 12.308594 16.921875 C 12.308594 13.875 12.308594 10.832031 12.308594 7.691406 Z M 12.308594 7.691406 "/>
<path style=" stroke:none;fill-rule:nonzero;fill:rgb(0%,0%,0%);fill-opacity:1;" d="M 9.230469 7.691406 C 9.738281 7.691406 10.246094 7.691406 10.769531 7.691406 C 10.769531 10.738281 10.769531 13.785156 10.769531 16.921875 C 10.261719 16.921875 9.753906 16.921875 9.230469 16.921875 C 9.230469 13.875 9.230469 10.832031 9.230469 7.691406 Z M 9.230469 7.691406 "/>
<path style=" stroke:none;fill-rule:nonzero;fill:rgb(0%,0%,0%);fill-opacity:1;" d="M 6.152344 7.691406 C 6.660156 7.691406 7.167969 7.691406 7.691406 7.691406 C 7.691406 10.738281 7.691406 13.785156 7.691406 16.921875 C 7.183594 16.921875 6.675781 16.921875 6.152344 16.921875 C 6.152344 13.875 6.152344 10.832031 6.152344 7.691406 Z M 6.152344 7.691406 "/>
</g>
</svg>
