<?xml version="1.0" standalone="no"?>
<!DOCTYPE svg PUBLIC "-//W3C//DTD SVG 20010904//EN"
 "http://www.w3.org/TR/2001/REC-SVG-20010904/DTD/svg10.dtd">
<svg version="1.0" xmlns="http://www.w3.org/2000/svg"
 width="40px" height="40px" viewBox="0 0 512.000000 512.000000"
 preserveAspectRatio="xMidYMid meet">

<g transform="translate(0.000000,512.000000) scale(0.100000,-0.100000)"
fill="#000000" stroke="none">
<path d="M394 4141 c-102 -25 -201 -106 -250 -206 l-29 -60 0 -1315 0 -1315
29 -60 c38 -76 105 -143 181 -181 l60 -29 2175 0 2175 0 58 27 c80 38 158 115
193 191 l29 62 0 1310 0 1310 -29 60 c-38 76 -105 143 -181 181 l-60 29 -2160
2 c-1188 0 -2174 -2 -2191 -6z m4351 -168 c46 -24 75 -54 101 -103 18 -34 19
-84 19 -1311 l0 -1276 -30 -49 c-19 -30 -49 -60 -79 -79 l-49 -30 -2141 0
c-2071 0 -2142 1 -2176 19 -49 26 -79 55 -103 101 l-22 40 -3 1253 c-1 824 1
1267 8 1291 12 46 46 98 81 123 66 50 -46 47 2229 45 l2125 -2 40 -22z"/>
<path d="M1413 3635 c-264 -72 -427 -333 -372 -597 28 -133 135 -277 255 -340
147 -79 334 -77 486 4 69 37 167 137 203 208 74 146 73 332 -3 474 -36 69
-145 175 -212 208 -114 56 -247 72 -357 43z m267 -171 c154 -70 241 -251 196
-410 -42 -147 -161 -247 -312 -261 -143 -13 -287 73 -350 209 -39 87 -40 196
-2 279 84 184 289 264 468 183z"/>
<path d="M2964 3588 c-44 -21 -52 -80 -16 -120 14 -17 64 -18 777 -18 l762 0
21 23 c29 31 28 72 -3 102 l-24 25 -748 -1 c-493 0 -755 -4 -769 -11z"/>
<path d="M2948 3090 c-24 -25 -29 -36 -23 -58 3 -15 15 -36 26 -47 19 -19 35
-20 557 -23 295 -2 552 0 570 3 70 13 95 82 47 130 l-24 25 -561 0 -562 0 -30
-30z"/>
<path d="M2954 2617 c-20 -17 -27 -33 -27 -57 0 -24 7 -40 27 -57 l28 -24 429
3 c426 3 429 3 450 25 29 29 29 77 0 106 -21 22 -24 22 -450 25 l-429 3 -28
-24z"/>
<path d="M4098 2624 c-51 -27 -50 -102 2 -129 22 -12 66 -15 195 -15 182 0
219 9 231 55 10 39 -4 73 -36 90 -41 21 -352 21 -392 -1z"/>
<path d="M1375 2569 c-345 -17 -554 -88 -707 -240 -89 -88 -138 -177 -164
-299 -22 -106 -15 -314 16 -433 37 -142 -84 -127 1020 -127 l947 0 21 23 c49
52 86 288 71 449 -20 213 -106 364 -267 469 -194 127 -504 179 -937 158z m534
-173 c299 -52 455 -172 506 -388 23 -97 18 -272 -11 -370 -5 -17 -55 -18 -869
-18 l-863 0 -12 53 c-6 28 -14 95 -17 147 -13 235 76 404 259 494 82 41 232
81 353 95 124 15 542 6 654 -13z"/>
<path d="M2975 2150 c-27 -10 -42 -29 -50 -62 -6 -22 -1 -33 24 -59 l31 -31
106 4 c97 3 107 5 125 27 36 44 19 100 -35 121 -32 12 -172 12 -201 0z"/>
<path d="M3475 2153 c-60 -15 -77 -94 -29 -132 26 -21 36 -21 531 -21 l504 0
24 25 c43 42 29 105 -26 124 -32 11 -960 15 -1004 4z"/>
<path d="M2948 1653 c-37 -42 -28 -101 19 -122 16 -8 180 -11 529 -11 l505 0
24 25 c30 30 32 64 4 99 l-20 26 -523 0 c-485 0 -524 -1 -538 -17z"/>
</g>
</svg>
